<svg xmlns="http://www.w3.org/2000/svg" xmlns:xlink="http://www.w3.org/1999/xlink" viewBox="0 0 431.67 447.38"><defs><style>.cls-1{fill:none}.cls-2{fill:#ffa2b4}.cls-3,.cls-4,.cls-44{fill:#e37c8f}.cls-3{opacity:.37}.cls-5{opacity:.44}.cls-6{fill:#ffc5d3}.cls-7{fill:#cadffc}.cls-8,.cls-9{fill:#84a6ff}.cls-9{opacity:.28}.cls-10{clip-path:url(#clip-path)}.cls-11{fill:#288c81}.cls-12,.cls-22{fill:#f78ba5}.cls-13{fill:#1b3670}.cls-14{fill:#e27a98}.cls-15,.cls-25{fill:#223a7a}.cls-16{fill:#36beaf}.cls-17{fill:#2cb5a1}.cls-18,.cls-30,.cls-32{fill:#fff}.cls-19{fill:#4ad3bf}.cls-20{fill:#2b4a8e}.cls-21{fill:#217f72}.cls-22{opacity:.55}.cls-23,.cls-34{fill:#3467c1}.cls-24{fill:#406dd3}.cls-25{opacity:.3}.cls-26,.cls-36{fill:#dea03d}.cls-27{fill:#efac4d}.cls-28{fill:#ffc176}.cls-29{fill:#abc5ff}.cls-30{opacity:.51}.cls-31{opacity:.42}.cls-32{opacity:.2}.cls-33{fill:#4c73dc}.cls-34{opacity:.35}.cls-35{fill:#ecc93a}.cls-36{opacity:.38}.cls-37{fill:#fce790}.cls-38,.cls-43{fill:#335296}.cls-39{fill:#e3f0ff}.cls-40{fill:#ff80af}.cls-41{fill:#1e346f}.cls-42{fill:#1a3166}.cls-43{opacity:.48}.cls-44{opacity:.13}.cls-45{fill:#e1efff}</style><clipPath id="clip-path"><path d="M335.33,190.67s-77-39.68-116.8-55.8a15.66,15.66,0,0,0-11.73,0C167,151,90,190.67,90,190.67c-5.14,35,14.73,117.16,23,149.06a43.27,43.27,0,0,0,14.28,22.55c30.4,25.08,66.52,41.41,80,47a14,14,0,0,0,10.8,0c13.46-5.61,49.57-21.94,80-47a43.22,43.22,0,0,0,14.29-22.55C320.6,307.83,340.48,225.66,335.33,190.67Z" class="cls-1"/></clipPath></defs><g id="Layer_2" data-name="Layer 2"><g id="OBJECTS"><path d="M63.69,180.86c1.07.47,2.34,1.24,2.23,2.4a1.93,1.93,0,0,1-1.75,1.57,5.62,5.62,0,0,1-2.48-.41l-3.44-1.13a6.19,6.19,0,0,1-2.63-1.36,2.13,2.13,0,0,1-.33-2.71,2.09,2.09,0,0,1,2-.58,5.93,5.93,0,0,1,2,.89c-.08-2.48-.16-4.95-.23-7.43l6.54,2.3c1.08.38,2.2.68,3.28,1C68.71,176,64.17,181.07,63.69,180.86Z" class="cls-2"/><path d="M87.87,180.86c1.15-.24,2.62-.34,3.22.67a2,2,0,0,1-.52,2.29,5.65,5.65,0,0,1-2.27,1.1L84.85,186a6.3,6.3,0,0,1-2.93.41,2.13,2.13,0,0,1-1.84-2,2.08,2.08,0,0,1,1.28-1.63,6.36,6.36,0,0,1,2.13-.42L79,176.43l6.66-1.92c1.11-.32,2.19-.72,3.27-1.06C89.16,174,88.38,180.76,87.87,180.86Z" class="cls-2"/><path d="M103.94,172.05c1-.57,2.39-1.12,3.26-.34a1.93,1.93,0,0,1,.2,2.34,5.72,5.72,0,0,1-1.82,1.74l-3,2.07a6.19,6.19,0,0,1-2.67,1.28,2.12,2.12,0,0,1-2.36-1.37,2.08,2.08,0,0,1,.73-1.94,6.06,6.06,0,0,1,1.9-1l-6.08-4.28,5.78-3.85c1-.63,1.86-1.34,2.79-2C103.09,165.14,104.39,171.8,103.94,172.05Z" class="cls-2"/><path d="M113.7,156.63c.67-1,1.66-2,2.79-1.73a2,2,0,0,1,1.2,2,5.58,5.58,0,0,1-.89,2.36L115,162.44a6.27,6.27,0,0,1-1.84,2.32,2.12,2.12,0,0,1-2.72-.2,2.09,2.09,0,0,1-.19-2.07,6.15,6.15,0,0,1,1.25-1.76l-7.33-1.2,3.51-6c.58-1,1.09-2,1.64-3C109.91,150.78,114,156.21,113.7,156.63Z" class="cls-2"/><path d="M117.8,135c0-1.18.24-2.63,1.35-3a2,2,0,0,1,2.13,1,5.83,5.83,0,0,1,.57,2.45c.09,1.21.19,2.41.28,3.61a6.23,6.23,0,0,1-.24,3,2.14,2.14,0,0,1-2.38,1.35,2.11,2.11,0,0,1-1.3-1.62,6,6,0,0,1,.06-2.16l-6.76,3.07c-.13-2.31-.27-4.61-.4-6.92-.07-1.15-.22-2.29-.31-3.42C111.4,132.25,117.81,134.5,117.8,135Z" class="cls-2"/><path d="M110.64,118c-.65-1-1.3-2.3-.58-3.23a1.94,1.94,0,0,1,2.32-.37,5.56,5.56,0,0,1,1.86,1.69l2.29,2.81a6.07,6.07,0,0,1,1.47,2.56,2.11,2.11,0,0,1-1.18,2.46,2.09,2.09,0,0,1-2-.59,6,6,0,0,1-1.18-1.81l-3.82,6.37-4.26-5.47c-.71-.9-1.49-1.76-2.2-2.64C103.81,119.38,110.35,117.59,110.64,118Z" class="cls-2"/><path d="M83.77,176.52a39.6,39.6,0,0,1-29.6-4.26,32.69,32.69,0,0,1-13-14.14c-6-12.76-2.42-28.88,8.65-37.66,12.38-9.84,32.09-13.06,46.14-6.86A29.17,29.17,0,0,1,103.1,118c5.37,4.58,9,11.31,9.51,20.5C113.61,155.77,100.22,172.34,83.77,176.52Z" class="cls-2"/><path d="M83.77,176.52a39.6,39.6,0,0,1-29.6-4.26,40.39,40.39,0,0,0,5.56,1.52A37.94,37.94,0,0,0,91,165.5,39.57,39.57,0,0,0,104.69,136a32.84,32.84,0,0,0-5.76-19.34,40.73,40.73,0,0,0-3-3.1A29.17,29.17,0,0,1,103.1,118c5.37,4.58,9,11.31,9.51,20.5C113.61,155.77,100.22,172.34,83.77,176.52Z" class="cls-3"/><path d="M49.61,142.48a8.31,8.31,0,0,0-1-4,3.12,3.12,0,0,0-4.15-1.07,5.16,5.16,0,0,0-2.1,3.17,7,7,0,0,0,2,6.94,3.2,3.2,0,0,0,4.66-1A8.17,8.17,0,0,0,49.61,142.48Z" class="cls-4"/><path d="M57.77,125.13a2.85,2.85,0,0,0-4.14-1.68c-2.39,1.35-3.91,5-2.06,7.38a2.76,2.76,0,0,0,.66.62l.16.13a2.94,2.94,0,0,0,3.8-.22,5.4,5.4,0,0,0,1.58-2.9A8,8,0,0,0,57.77,125.13Z" class="cls-4"/><path d="M60,137.59a3.11,3.11,0,0,0-3-.79,4.56,4.56,0,0,0-2.35,1.77,3.94,3.94,0,0,0-.64,2.31,4.14,4.14,0,0,0,1,2.54,3.42,3.42,0,0,0,1,1.19,3.07,3.07,0,0,0,2.37.63,2.42,2.42,0,0,0,1.19-.38,3.17,3.17,0,0,0,1.15-1.15A4.75,4.75,0,0,0,60,137.59Z" class="cls-4"/><path d="M76.93,133a3.25,3.25,0,0,0-4.41-1.16,6.4,6.4,0,0,0-3,5.6c0,2.19.69,5.32,3,6.08A3.81,3.81,0,0,0,77,141.6C78.67,139.15,78.21,135.48,76.93,133Z" class="cls-4"/><path d="M71.12,117.84c-2.45-.72-4.6,1.53-4.52,3.89a3.37,3.37,0,0,0,1.69,2.87,2.14,2.14,0,0,0,.44.2,2.72,2.72,0,0,0,.57.33,2.76,2.76,0,0,0,3-.56,4,4,0,0,0,1.35-3.17A3.73,3.73,0,0,0,71.12,117.84Z" class="cls-4"/><path d="M94.15,127.28a4.2,4.2,0,0,0-6.15.16,7.11,7.11,0,0,0-1.92,5.64c.18,2,.78,4.71,2.59,5.92a4.52,4.52,0,0,0,5.53-.55,7.43,7.43,0,0,0,1.84-5.4A8.1,8.1,0,0,0,94.15,127.28Z" class="cls-4"/><path d="M87.37,154.78A4.36,4.36,0,0,0,85.1,152a4.71,4.71,0,0,0-4.57-1c-4.4,1.35-4.91,8.59-.27,10C83.72,162.12,88.47,158.56,87.37,154.78Z" class="cls-4"/><path d="M68.38,161.55a5.52,5.52,0,0,0-.78-3.15,5.39,5.39,0,0,0-5.15-2.46,6.61,6.61,0,0,0-5.07,3,4.68,4.68,0,0,0,1.25,5.79c2.68,2.33,7.13,2.76,9.23-.61A3.6,3.6,0,0,0,68.38,161.55Z" class="cls-4"/><path d="M52.83,155.94a2.79,2.79,0,0,0-.38-1.41,3.53,3.53,0,0,0-1.11-1.1,3.25,3.25,0,0,0-1.55-.43,3.29,3.29,0,0,0-2.3.92.94.94,0,0,0-.1.1,4.71,4.71,0,0,0-.47.61,3.26,3.26,0,0,0-.31.72l0,.12a3.23,3.23,0,0,0,.8,3,3.63,3.63,0,0,0,.69.55,4.82,4.82,0,0,0,.74.31l.13,0a3.38,3.38,0,0,0,1.58,0,4.49,4.49,0,0,0,.71-.31l.12-.07a3.21,3.21,0,0,0,1-1,2.86,2.86,0,0,0,.37-1.11c0-.1,0-.21,0-.31S52.8,156.13,52.83,155.94Z" class="cls-4"/><path d="M97.85,145.5a2.7,2.7,0,0,0-1.31-1.72,2.84,2.84,0,0,0-2.21-.27,2.94,2.94,0,0,0-1.73,1.3,2.72,2.72,0,0,0,0,2.73,2.79,2.79,0,0,0,1.82,1.27,2.63,2.63,0,0,0,.8.12,2.83,2.83,0,0,0,1.92-.79,2.78,2.78,0,0,0,.69-1.2A2.71,2.71,0,0,0,97.85,145.5Z" class="cls-4"/><path d="M72.69,151a3,3,0,0,0-2-2,3.62,3.62,0,0,0-2,0,3.17,3.17,0,0,0-1.33.76c-.13.17-.27.34-.4.52s-.1.22-.14.33a2,2,0,0,0-.15.38,1.81,1.81,0,0,0,0,.95,1.76,1.76,0,0,0,.28.89,3.48,3.48,0,0,0,.38.48h0c.16.14.13.18.27.29a2.35,2.35,0,0,0,.26.29A2.92,2.92,0,0,0,72.69,151Z" class="cls-4"/><path d="M94.16,120.27a2.72,2.72,0,0,0-1.06-2.09,2.56,2.56,0,0,0-1.63-.54,6.57,6.57,0,0,0-1.66-.3A3,3,0,0,0,87,119.23a3.1,3.1,0,0,0,.63,3.36,3.92,3.92,0,0,0,1.75,1,2.22,2.22,0,0,0,.42.25,3.18,3.18,0,0,1,.4.23,2.69,2.69,0,0,0,2.79,0,2.83,2.83,0,0,0,1.38-2.39A4.15,4.15,0,0,0,94.16,120.27Z" class="cls-4"/><path d="M70.93,107.14c-1.17.08-2.65,0-3.1-1.09a2,2,0,0,1,.82-2.2,5.67,5.67,0,0,1,2.4-.78l3.57-.6a6.14,6.14,0,0,1,2.95,0,2.12,2.12,0,0,1,1.55,2.25,2.07,2.07,0,0,1-1.49,1.44,6.24,6.24,0,0,1-2.16.13l3.65,6.46-6.86,1c-1.14.16-2.26.42-3.38.6C68.73,113.75,70.41,107.18,70.93,107.14Z" class="cls-2"/><path d="M52.69,113c-1.11.38-2.56.67-3.27-.26a1.92,1.92,0,0,1,.22-2.33,5.57,5.57,0,0,1,2.11-1.38l3.3-1.5a6.16,6.16,0,0,1,2.85-.78,1.87,1.87,0,0,1,1,3.55,6.17,6.17,0,0,1-2.06.68l5.2,5.3-6.37,2.75c-1,.45-2.08,1-3.11,1.46C52.27,120,52.2,113.2,52.69,113Z" class="cls-2"/><path d="M38.24,126.88c-.78.87-1.91,1.83-3,1.36a2,2,0,0,1-.93-2.16,5.65,5.65,0,0,1,1.19-2.22L37.67,121a6,6,0,0,1,2.12-2,2.12,2.12,0,0,1,2.67.54,2.09,2.09,0,0,1-.07,2.08,6.52,6.52,0,0,1-1.47,1.59L48,125.24l-4.26,5.48c-.7.91-1.34,1.87-2,2.78C41.23,133.18,37.89,127.27,38.24,126.88Z" class="cls-2"/><path d="M33.83,151.38c.1,1.17,0,2.65-1.06,3.11a2,2,0,0,1-2.21-.8,5.66,5.66,0,0,1-.81-2.39l-.63-3.56a6.18,6.18,0,0,1-.05-3,2.12,2.12,0,0,1,2.23-1.57,2.08,2.08,0,0,1,1.46,1.48,6,6,0,0,1,.15,2.16l6.43-3.72c.36,2.28.72,4.57,1.07,6.85.18,1.14.44,2.26.64,3.38C40.47,153.51,33.87,151.9,33.83,151.38Z" class="cls-2"/><path d="M43.52,168.55c.76.89,1.57,2.12,1,3.13a2,2,0,0,1-2.26.66,5.66,5.66,0,0,1-2.06-1.44l-2.62-2.5A6.18,6.18,0,0,1,35.78,166a1.87,1.87,0,0,1,2.92-2.26,6.32,6.32,0,0,1,1.39,1.65l3-6.79L48,163.53c.81.81,1.69,1.56,2.51,2.35C50.13,166.35,43.86,168.94,43.52,168.55Z" class="cls-2"/><path d="M92.35,108.08c-1-.54-2.25-1.39-2.07-2.55a2,2,0,0,1,1.85-1.45,5.7,5.7,0,0,1,2.45.59L97.94,106a6.11,6.11,0,0,1,2.53,1.53,2.13,2.13,0,0,1,.15,2.73,2.1,2.1,0,0,1-2,.45,6.45,6.45,0,0,1-1.92-1c-.08,2.47-.17,5-.26,7.42L90,114.4c-1.05-.45-2.14-.82-3.2-1.25C87,112.57,91.89,107.84,92.35,108.08Z" class="cls-2"/><g class="cls-5"><path d="M68.21,122.07c-1.81-3.53-5.12-3.4-8.25-1.67a33.63,33.63,0,0,0-15.58,18.37c-1.41,4.31-1.4,9.85,3.26,12.14,4.39,2.15,8.94-1.23,11.78-4.38a46.6,46.6,0,0,0,6.87-10.61C68.26,131.9,70.44,126.41,68.21,122.07Z" class="cls-6"/><path d="M100.7,122.13c-1.29-1.81-4.3-2.29-5.48,0a13,13,0,0,0-1.13,5.4,31.46,31.46,0,0,0-.23,5,3.88,3.88,0,0,0,2.73,3.6c1.45.39,3.58-.23,4.22-1.72C102.27,131,103,125.39,100.7,122.13Z" class="cls-6"/><path d="M95.26,148.85c-.12-2-2.33-3.66-4.23-2.43-2.16,1.39-3.53,3.31-5.43,5s-3.62,3-5.44,4.83c-2.73,2.72,0,7.3,3.7,6.37a14.05,14.05,0,0,0,7.92-5.4C93.72,154.73,95.47,152.13,95.26,148.85Z" class="cls-6"/></g><path d="M137.27,133.47c-3.44-26.95-25.18-49-53.59-50.06-26.49-1-54.74,14.38-65.45,39.18a52.68,52.68,0,0,0-4.15,16.51c-1.33,16.07,4.8,32.43,15.47,44.37,11,12.25,27.09,19.12,43.41,19.68,31.49,1.08,61-24.33,64.43-55.7A59.34,59.34,0,0,0,137.27,133.47ZM45.92,183.55c-11.13-7.5-18.43-19.87-20.66-33-2.11-12.44,1.52-25.38,9.08-35.38.44-.58.9-1.14,1.36-1.7,1,1,2,2.09,3,3.11q4.81,4.86,9.6,9.76,9.76,10,19.5,20c12,12.35,23.72,24.94,35.57,37.42a54,54,0,0,1-19,7.39A52,52,0,0,1,45.92,183.55Zm68.52-9.29a50.12,50.12,0,0,1-4.53,4.57c-11.67-13.18-23.83-25.91-36.12-38.52Q64.24,130.5,54.44,121q-5.11-5-10.26-9.88c-1-1-2.12-2-3.2-2.93A51.16,51.16,0,0,1,68.37,96.69c13.82-1.64,28.31.76,40.28,8C132.7,119.39,131.82,154.24,114.44,174.26Z" class="cls-7"/><path d="M349.9,181s-86.18-44.39-130.67-62.42a17.44,17.44,0,0,0-13.13,0C161.61,136.62,75.44,181,75.44,181c-5.76,39.15,16.48,131.07,25.74,166.76a48.41,48.41,0,0,0,16,25.23c34,28,74.41,46.31,89.46,52.59a15.65,15.65,0,0,0,12.09,0c15-6.28,55.46-24.55,89.47-52.59a48.41,48.41,0,0,0,16-25.23C333.42,312.08,355.65,220.16,349.9,181Z" class="cls-8"/><path d="M330.22,258.83h0c-2.31,13.24-5.05,26.61-7.79,38.95-3.76,16.93-7.51,31.92-10.11,42a43.25,43.25,0,0,1-14.27,22.55q-3.35,2.76-6.76,5.36c-20.31,15.55-42.18,27.29-57.68,34.7-6.49,3.1-11.86,5.43-15.54,7a14.14,14.14,0,0,1-7.37.95,13.91,13.91,0,0,1-3.2-.86l-.23-.09c-1.76-.73-3.9-1.65-6.37-2.74-6.76-3-15.94-7.33-26.24-12.91-14.75-8-31.81-18.53-47.37-31.37A43.27,43.27,0,0,1,113,339.73c-.69-2.68-1.47-5.7-2.3-9-1.16-4.59-2.42-9.74-3.75-15.31-1.71-7.18-3.52-15-5.3-23.28-2-9.49-4.06-19.46-5.86-29.42-5-27.69-8.26-55.26-5.8-72,0,0,6.48-3.33,16.65-8.47l10-5,2.25-1.13c3.35-1.67,6.89-3.44,10.58-5.26l4.94-2.43,6.83-3.35c8.83-4.31,18.09-8.78,27.16-13,14-6.6,27.59-12.72,38.41-17.11a15.66,15.66,0,0,1,11.73,0l2.62,1.08,1.93.8.63.26,1,.44,3.7,1.59c41.38,17.88,106.89,51.63,106.89,51.63a81.6,81.6,0,0,1,.75,8.71C336.69,215.22,334.06,236.83,330.22,258.83Z" class="cls-7"/><path d="M330.22,258.83h0c-2.31,13.24-5.05,26.61-7.79,38.95-3.76,16.93-7.51,31.92-10.11,42a43.25,43.25,0,0,1-14.27,22.55q-3.35,2.76-6.76,5.36c-20.31,15.55-42.18,27.29-57.68,34.7-6.49,3.1-11.86,5.43-15.54,7a14.14,14.14,0,0,1-7.37.95,13.91,13.91,0,0,1-3.2-.86l-.23-.09c-1.76-.73-3.9-1.65-6.37-2.74-6.76-3-15.94-7.33-26.24-12.91-14.75-8-31.81-18.53-47.37-31.37A43.27,43.27,0,0,1,113,339.73c-.69-2.68-1.47-5.7-2.3-9-1.16-4.59-2.42-9.74-3.75-15.31-1.71-7.18-3.52-15-5.3-23.28-2-9.49-4.06-19.46-5.86-29.42q8.33,3,17.07,5.26a224.64,224.64,0,0,0,104.18,1.75,210.91,210.91,0,0,0,54.34-20.11c24.19-13.05,45.51-30.47,64.7-50.21C336.69,215.22,334.06,236.83,330.22,258.83Z" class="cls-9"/><g class="cls-10"><path d="M231.5,398.87a5.78,5.78,0,0,1-.93,3.6A5.67,5.67,0,0,1,228,404l-1.3.45c-27.19,9.3-56.65,8.74-85.44,6.76l-6.07-.44c-9.67-.72-19.35-1.53-29-2.69-6.24-.74-12.46-1.64-18.65-2.74-1.77-.32-3.53-.65-5.3-1-2-.41-4.21-.9-5.75-2.32-5.63-5.2-1.72-25-1.13-31.88C76.61,355.81,80,341.82,83.62,328c2.31-9,4.78-18.13,9.74-26,6.43-10.18,16.75-17.51,28-21.91,2.12-.83,4.26-1.56,6.44-2.2a120.55,120.55,0,0,1,28.94-4.33c6.66-.29,13.41-.25,19.89,1.33,5.74,1.41,11.08,2.42,16.27,4.47a41,41,0,0,1,5.7,2.78c.43.25.91.55,1.44.89a4.46,4.46,0,0,1,1.65-1.79,3.06,3.06,0,0,1,4.28,2.27c2.12-2.15,4.39-.12,5.77,2.47h0a8.58,8.58,0,0,1,1.21,4.78,8,8,0,0,1-.56,1.7c4.61,5.31,4.23,12.45,6.51,19.44a256.44,256.44,0,0,1,12,59.89A257.78,257.78,0,0,1,231.5,398.87Z" class="cls-11"/><path d="M192.87,279.34c-5.81,11.26-12.29,22.19-21.44,30.85-2.3,2.18-4.86,4.26-7.9,5.18a15.75,15.75,0,0,1-11.67-1.52,35.31,35.31,0,0,1-9.27-7.66c-6.4-7-14.3-17.95-14.82-28.32a120.55,120.55,0,0,1,28.94-4.33c6.66-.29,13.41-.25,19.89,1.33C182.34,276.28,187.68,277.29,192.87,279.34Z" class="cls-2"/><path d="M174.94,301.78c-15.35,3.63-32.88-1.55-32.88-1.55l3.15-34.48,1.28-14,.7-7.66,25.37,2.07.2,4.46.8,19Z" class="cls-2"/><path d="M173.56,269.55a87.38,87.38,0,0,1-8.46,3.11,13.77,13.77,0,0,1-4.53.81,14.91,14.91,0,0,1-5-1.45c-4.05-1.7-7.85-3.77-10.31-6.27l1.28-14c.26-.28.54-.55.84-.82,5-4.75,12.94-5.46,19.52-3.28a21.58,21.58,0,0,1,5.91,3Z" class="cls-12"/><path d="M117.55,215.31c1.59,4.62,4.06,9.49,8.62,11.24a5.32,5.32,0,0,0,3.68.23c1.9-.69,2.87-2.77,3.53-4.69,3.31-9.76,3.49-20.28,3.36-30.6-.12-8.52-4.85-30.32-16.3-17.38C110.65,185.18,113.19,202.59,117.55,215.31Z" class="cls-13"/><path d="M218.17,188.65c.24,10.53-4.55,20.61-10.81,29.07-2.52,3.41-5.78,6.88-10,7.14a5.47,5.47,0,0,1-4.31-1.45,7.86,7.86,0,0,1-1.64-3.47c-3.4-12.45-6.19-35.38,3.72-45.8S217.93,177.92,218.17,188.65Z" class="cls-13"/><path d="M120.94,218.55a8.31,8.31,0,0,0-6.26,4,10.32,10.32,0,0,0-1.05,6.87c.89,5.63,5.16,10.78,11.06,13.32,2.66,1.14,6.11,1.69,8.43.09,4.71-3.25,1.42-11.24.74-15.51C133.11,222.6,126.53,218,120.94,218.55Z" class="cls-12"/><path d="M133.37,233.37a18.25,18.25,0,0,0-7.21-5.72c-2.37-1-5.39-2.21-7.77-.68a.75.75,0,0,0-.15,1.17c1.64,1.59,4,1.85,6,2.89a21.7,21.7,0,0,1,5.94,4.85C131.66,237.59,134.81,235.25,133.37,233.37Z" class="cls-14"/><path d="M202.8,220.05a7.3,7.3,0,0,1,5.48,4.08,12,12,0,0,1,.92,7,18.1,18.1,0,0,1-9.68,13.51c-2.33,1.16-5.35,1.71-7.38.09-4.12-3.3-1.24-11.4-.65-15.72C192.15,224.16,197.9,219.53,202.8,220.05Z" class="cls-12"/><path d="M201.85,229.22c-4,0-7.53,3-9.31,6.43-1.44,2.78,2.77,5.25,4.21,2.46s3.53-4.16,5.95-5.77A1.69,1.69,0,0,0,201.85,229.22Z" class="cls-14"/><path d="M195.72,231.57c-7.59,38.36-37.22,36.11-37.22,36.11C138,266,130,248.16,127.3,230.18a136,136,0,0,1-.85-29.68c.41-5.72,1-9.38,1-9.38,36.84-22.39,68.62,0,68.62,0,.4,3.23.72,6.33.94,9.29C198,213,197.36,223.25,195.72,231.57Z" class="cls-2"/><path d="M164.43,219.57a2.68,2.68,0,0,0-2.54-1.93,2.2,2.2,0,0,0-.5.06l-.19,0a2.67,2.67,0,0,0-1.93,2.53,55,55,0,0,0,.11,7.48c.11,2.27.09,4.47,1.08,6.55.72,1.51,3.4,1.59,4.09,0C166.31,230.25,165.49,223.78,164.43,219.57Z" class="cls-12"/><path d="M197,200.41c-.06.06-.14.11-.2.16a16.17,16.17,0,0,1-3.5,1.76c-10.63,4.1-22.58,3.89-33.6,1-3.25-.84-6.73-2.14-8.4-5.06a61.43,61.43,0,0,1-24.85,2.22c.41-5.72,1-9.38,1-9.38,36.84-22.39,68.62,0,68.62,0C196.46,194.35,196.78,197.45,197,200.41Z" class="cls-12"/><path d="M151.71,195a50.94,50.94,0,0,1-32.88-3c-6-2.7-11.88-7.08-13.79-13.42s2-14.51,8.6-15c-2.07-1.19-2.88-3.93-2.39-6.27a12.56,12.56,0,0,1,3.68-6.05c.51-.52,1-1,1.58-1.5A31.14,31.14,0,0,1,145,143.32c6.53,1.86,12.29,5.86,18.83,7.7,8.31,2.35,17.32,1.06,25.63,3.4s15.52,8.79,18,16.88a20.54,20.54,0,0,1,.83,3.92C211.22,201.7,167.54,206.43,151.71,195Z" class="cls-15"/><path d="M146.25,215.25c-.78-2.09-2.91-3.55-5.09-2.27-2.4,1.4-2.51,5.46-1.38,7.69C142.54,226.1,147.82,219.44,146.25,215.25Z" class="cls-15"/><path d="M186.7,215.25c-.79-2.09-2.91-3.55-5.1-2.27-2.39,1.4-2.51,5.46-1.38,7.69C183,226.1,188.27,219.44,186.7,215.25Z" class="cls-15"/><path d="M146.37,205.07a12.65,12.65,0,0,0-4.72-1,19.93,19.93,0,0,0-5-.08,2.83,2.83,0,0,0-2.74,2.42,2.75,2.75,0,0,0,2,3.06,22.77,22.77,0,0,0,5.41.18,13.34,13.34,0,0,0,5.05-1A2.1,2.1,0,0,0,146.37,205.07Z" class="cls-15"/><path d="M179,205.07a12.65,12.65,0,0,1,4.72-1,19.93,19.93,0,0,1,5-.08,2.83,2.83,0,0,1,2.74,2.42,2.75,2.75,0,0,1-2,3.06,22.77,22.77,0,0,1-5.41.18,13.34,13.34,0,0,1-5.05-1A2.1,2.1,0,0,1,179,205.07Z" class="cls-15"/><path d="M195.72,231.57c-.36,1.81-.77,3.52-1.22,5.15-9.09,33-36,31-36,31-13.84-1.17-22-9.66-26.62-20.58a65.27,65.27,0,0,1-3.8-12.51c-.3-1.46-.56-2.94-.78-4.41,7-1.65,25.4-5.83,34.09-5.83a141.06,141.06,0,0,1,30.74,6C193.33,230.72,194.52,231.13,195.72,231.57Z" class="cls-16"/><path d="M195.72,231.57c-7.59,38.36-37.22,36.11-37.22,36.11-13.84-1.17-22-9.66-26.62-20.58a27.58,27.58,0,0,0,5.59,3.19,50,50,0,0,0,12.66,3.26,47,47,0,0,0,13,.37c10.19-1.37,19.2-8,25.1-16.39a39.67,39.67,0,0,0,2.81-4.59c.38-.74.69-1.74,1.12-2.61C193.33,230.72,194.52,231.13,195.72,231.57Z" class="cls-17"/><path d="M195.72,231.57c-.36,1.81-.77,3.52-1.22,5.15-8.63-3.4-17.36-6.64-26.45-8.43a40.2,40.2,0,0,0-7.86-.89,52,52,0,0,0-11.13,1.7c-5.48,1.25-10.94,2.51-16.37,4-1.21.31-2.94,1.08-4.61,1.53-.3-1.46-.56-2.94-.78-4.41,7-1.65,25.4-5.83,34.09-5.83a141.06,141.06,0,0,1,30.74,6C193.33,230.72,194.52,231.13,195.72,231.57Z" class="cls-18"/><path d="M130.94,231.21c-.92-3-1.9-5.91-2.93-8.83-.43-1.21-.8-2.94-1.71-4a1.12,1.12,0,0,0-2,.63c-.15,1.32.53,2.85.9,4.1.87,3,1.8,5.93,2.79,8.86C128.64,233.84,131.52,233.08,130.94,231.21Z" class="cls-18"/><path d="M192.28,231.21c.92-3,1.9-5.91,2.93-8.83.43-1.21.8-2.94,1.71-4a1.12,1.12,0,0,1,2,.63c.15,1.32-.53,2.85-.9,4.1-.87,3-1.81,5.93-2.8,8.86C194.58,233.84,191.69,233.08,192.28,231.21Z" class="cls-18"/><path d="M185,236.38a120,120,0,0,0-13.67-2.8c-4-.63-8.24-1.56-12.33-1.43-8.22.27-17,4-24.5,7a.29.29,0,0,0,.16.56c8-1.75,16.14-5.65,24.34-5.92,4.18-.13,8.46.86,12.57,1.54,4.37.72,8.68,1.63,13,2.71A.86.86,0,0,0,185,236.38Z" class="cls-19"/><path d="M182.26,242.63a149.62,149.62,0,0,1-23,2.47c-7.35.19-14.61-.48-21.93-.88a.26.26,0,0,0-.07.51c14.67,3.15,30.75,2.06,45.39-.75C183.51,243.81,183.14,242.47,182.26,242.63Z" class="cls-19"/><path d="M179.72,252.11a32.08,32.08,0,0,1-19.65,6c-7.28-.14-13.6-2.74-20.39-4.95-.42-.13-.64.47-.29.7,12,7.62,29.47,8.1,41.11-.38C181.29,252.87,180.52,251.53,179.72,252.11Z" class="cls-19"/><path d="M151.71,195a50.94,50.94,0,0,1-32.88-3c-6-2.7-11.88-7.08-13.79-13.42s2-14.51,8.6-15c-2.07-1.19-2.88-3.93-2.39-6.27a12.56,12.56,0,0,1,3.68-6.05c.51-.52,1-1,1.58-1.5.21,1.58,0,3.53.29,4.83a12.94,12.94,0,0,0,7.78,9.38,24.25,24.25,0,0,0-6,4.29A8.66,8.66,0,0,0,116,175c.56,4.63,5.63,7.12,10.07,8.52a104.43,104.43,0,0,0,47.32,3.79c12.58-2,25.3-7.06,34.11-16a20.54,20.54,0,0,1,.83,3.92C211.22,201.7,167.54,206.43,151.71,195Z" class="cls-13"/><path d="M135.81,173.1a13.65,13.65,0,0,0-2.66-1.3,7.25,7.25,0,0,0-1.46-.36c-1.53-.2.91.12-.57-.08a4.94,4.94,0,0,0-1.58.11,3.22,3.22,0,0,0-1.91,4.71,5.42,5.42,0,0,0,3.81,2.38,6.87,6.87,0,0,0,4.37-.74C137.7,176.9,137.47,174.08,135.81,173.1Z" class="cls-20"/><path d="M141.39,165.67a3,3,0,0,0-2.88-2.55h-.26l-.17,0a6.61,6.61,0,0,0-1-.08,13,13,0,0,1-1.4.06c-1.33-.07-3,.14-3.38,1.7-.43,1.76.89,3,2.33,3.72a5.73,5.73,0,0,0,4.65.4A3,3,0,0,0,141.39,165.67Z" class="cls-20"/><path d="M146.44,156.06a2.67,2.67,0,0,0-3.23-2.24H143a4.33,4.33,0,0,0-1.42-.21,2.47,2.47,0,0,0-2.11,3.67,4.56,4.56,0,0,0,4.32,1.83,3,3,0,0,0,1.89-.78A2.58,2.58,0,0,0,146.44,156.06Z" class="cls-20"/><path d="M230.83,371.78a284.07,284.07,0,0,1-4.15,32.64c-27.19,9.3-56.65,8.74-85.44,6.76A96.12,96.12,0,0,0,169,398a49.94,49.94,0,0,0,12.85-12.12c4.37-6.32,6.45-13.95,7.56-21.55,1.87-12.84,1.18-25.9,1.83-38.85s2.78-26.27,9.64-37.28a5.46,5.46,0,0,1,2.83-2.66c1.28-.36,2.95.65,2.68,1.95.77-3.76,3.1-3.15,5.34-1.53h0a8.58,8.58,0,0,1,1.21,4.78,8,8,0,0,1-.56,1.7c4.61,5.31,4.23,12.45,6.51,19.44A256.44,256.44,0,0,1,230.83,371.78Z" class="cls-21"/><path d="M232.78,408a10.85,10.85,0,0,1-4,4.51c-4.53,3.3-11.16,6.92-17.13,7.51a13.89,13.89,0,0,1-4.89-.31c-7.26-1.93-5.62-14.58-6.06-22-1.45-23.94-2.46-48-1.62-72,.3-8.74.86-17.57,2.9-25.93,1.09-4.47,3.3-9.44,6.94-9.73a5.58,5.58,0,0,1,4.53,2.27,22.62,22.62,0,0,1,3.44,5.77c13.7,30.94,16.51,67.76,16.68,103.31A16.91,16.91,0,0,1,232.78,408Z" class="cls-2"/><path d="M211.69,420a13.89,13.89,0,0,1-4.89-.31c-7.26-1.93-5.62-14.58-6.06-22-1.45-23.94-2.46-48-1.62-72,.3-8.74.86-17.57,2.9-25.93,1.09-4.47,3.3-9.44,6.94-9.73a5.58,5.58,0,0,1,4.53,2.27c-1.2,3.89-3.33,8-3.62,10.12C204.52,341.39,207.67,380.86,211.69,420Z" class="cls-22"/><path d="M110.69,331q-.87,14.19-1.71,28.37-1.44,24.35-2.79,48.72c-6.24-.74-12.46-1.64-18.65-2.74a22.28,22.28,0,0,0,6.65-6.26c2.73-4,3.88-8.8,4.73-13.56,2.46-14,2.59-28.23,3.78-42.36,1.06-12.39,2.33-28.58,9.41-39.16C113.67,312.06,111.19,322.69,110.69,331Z" class="cls-21"/><path d="M282.21,245.17a187.78,187.78,0,0,0-22.57,21.44,2.23,2.23,0,0,0,.26,3.21c2.74,2.19,8.84,4.86,17.15-4.36l4.73-2.47,21,7,5.71-22.61-2.7-5.36Z" class="cls-23"/><path d="M260.91,241.09,248.1,253.76a3.14,3.14,0,0,0,1.45,5.27c4.91,1.23,13.7,1.06,26.37-8,0,0,12.54,5.23,27.36-2.41l-.57-16.74-22.78-4.24-16.12.34Z" class="cls-24"/><path d="M215.71,101.38c0-.13-.27-.13-.26,0,1.06,10.67,4.25,21.41,6.77,31.81,2.65,10.93,5.3,21.89,8.39,32.7a.68.68,0,0,0,1.32-.34c-2.66-10.71-5.54-21.37-8.16-32.09S219.33,111.7,215.71,101.38Z" class="cls-15"/><path d="M232.66,148.28l-6.51,1.29-4.55.91a10.82,10.82,0,0,0,.13-2.77c-.08-4.33-.61-12.16-.61-12.16l5.13-1.34,5,11Z" class="cls-8"/><polygon points="236.56 152.73 220.55 156.92 219.65 148.25 233.11 144.74 236.56 152.73" class="cls-15"/><path d="M226.15,149.57a30,30,0,0,0,2.37,5.26l-8,2.09-.9-8.67,2.08-.54c-.08-4.33-.61-12.16-.61-12.16l2.41-.63a74.57,74.57,0,0,0,1.32,10c.14.63.29,1.24.45,1.86C225.54,147.72,225.83,148.65,226.15,149.57Z" class="cls-25"/><path d="M264.16,233.81c.67,2.84,1.33,5.64,1.95,8.39,0,0-6.88,2.48-28.19,7.36,0,0-.88-3.13-2.31-8.29Z" class="cls-18"/><path d="M262.24,225.87c0,.14.07.28.11.42.61,2.53,1.22,5,1.81,7.52l-28.55,7.46c-.59-2.17-1.29-4.69-2.06-7.49-6.06-22.05-16.63-61-19.73-75.79a2.79,2.79,0,0,1,2-3.27l22.94-6a2.84,2.84,0,0,1,3.47,2C245,160.34,254.52,194.24,262.24,225.87Z" class="cls-26"/><path d="M262.24,225.87h0c.64,2.67,1.29,5.32,1.91,7.94l-28.55,7.46c-.59-2.17-1.29-4.69-2.06-7.49a132.45,132.45,0,0,1,27.46-7.7Z" class="cls-15"/><path d="M262.24,225.87c0,.14.07.28.11.42a8.32,8.32,0,0,1-1.34-.21,18.11,18.11,0,0,1-5.8-2.6c-13.58-8.59-21.37-23.85-26.73-39-3.15-8.91-5.57-18-8-27.14-.31-1.16-.68-2.35-1-3.56l19.43-5.07a2.81,2.81,0,0,1,3.42,1.95C245,160.25,254.51,194.2,262.24,225.87Z" class="cls-27"/><path d="M230,163.5a3,3,0,0,0-1.79,1.36,2.92,2.92,0,0,0-.31,2.22,3,3,0,0,0,3.58,2.1,2.94,2.94,0,0,0,2.1-3.58A3,3,0,0,0,230,163.5Z" class="cls-28"/><path d="M243.27,170.39a3.23,3.23,0,0,0-4.37-1.2,3,3,0,0,0-1.14,1.05,3.26,3.26,0,0,0-.1,3.4,4.33,4.33,0,0,0,1,1.27,3,3,0,0,0,2.78.75,2.94,2.94,0,0,0,2.05-2,4.1,4.1,0,0,0,.23-1.59A3.28,3.28,0,0,0,243.27,170.39Z" class="cls-28"/><path d="M238,181.68a4.3,4.3,0,0,0-.69-1.08,2.63,2.63,0,0,0-4.4,1.15,5.52,5.52,0,0,0-.11.91,2.79,2.79,0,0,0,.83,2,3.5,3.5,0,0,0,1.45.91,2.38,2.38,0,0,0,2.24-.61,3.33,3.33,0,0,0,.79-1.48A2.78,2.78,0,0,0,238,181.68Z" class="cls-28"/><path d="M249,192.82a5.87,5.87,0,0,0-.7-1,3.38,3.38,0,0,0-1.48-.82,2.6,2.6,0,0,0-2.24.45,2.45,2.45,0,0,0-1,2,3.64,3.64,0,0,0,.46,1.67,4,4,0,0,0,.8.88,2.79,2.79,0,0,0,1.85.78,2.69,2.69,0,0,0,1.63-.57A2.62,2.62,0,0,0,249,192.82Z" class="cls-28"/><path d="M251,207.08a1.37,1.37,0,0,0,.69,2.66A1.37,1.37,0,0,0,251,207.08Z" class="cls-28"/><polygon points="268.05 273.17 250.75 277.69 242.79 239.39 255.6 236.04 268.05 273.17" class="cls-8"/><polygon points="262.15 274.71 256.63 276.16 247.17 238.25 251.82 237.03 262.15 274.71" class="cls-29"/><path d="M243.17,274.88,273.28,267l1.17,4.49s-11.2,4.29-30.11,7.87Z" class="cls-8"/><path d="M264.16,233.81c.67,2.84,1.33,5.64,1.95,8.39,0,0-6.88,2.48-28.19,7.36,0,0-.88-3.13-2.31-8.29Z" class="cls-30"/><g class="cls-31"><path d="M221.45,159.58a1.08,1.08,0,0,0-2,.52c-.13,5.79,2.11,11.86,3.51,17.42,1.52,6.07,3.11,12.1,4.9,18.09a1.69,1.69,0,0,0,3.28-.83c-1.31-6.13-2.81-12.18-4.4-18.25C225.29,171,224.34,164.59,221.45,159.58Z" class="cls-18"/><path d="M232.56,202.31a1.05,1.05,0,0,0-1.94.51c-.49,3.75.62,7.47,1.47,11.1q1.38,5.91,3.26,11.68a2,2,0,0,0,3.78-1c-.87-3.94-1.85-7.87-2.88-11.77C235.29,209.24,234.62,205.47,232.56,202.31Z" class="cls-18"/></g><path d="M269.16,243.57l-32.72,8.87a1.93,1.93,0,0,1-2.36-1.36h0a1.93,1.93,0,0,1,1.36-2.36l32.71-8.87a1.93,1.93,0,0,1,2.36,1.36h0A1.92,1.92,0,0,1,269.16,243.57Z" class="cls-8"/><path d="M212.52,117.38c.79,2.72,1.31,5.64.47,8.33a9.15,9.15,0,0,1-3,4.28,9.59,9.59,0,0,1-2.45,1.48,12,12,0,0,1-8,.3,8.71,8.71,0,0,1-3.27-1.72,7.46,7.46,0,0,1-2-3c-1.5-4.06.16-8.62,2.51-12.25.31-.49.64-1,1-1.43a34.68,34.68,0,0,1,3.08-3.66,34,34,0,0,1,9.33-6.79c.43-.22,1.93-1.2,2.37-.76s-.76,1.47-1,1.89a9.84,9.84,0,0,0-1.06,5.11C210.71,112,211.74,114.67,212.52,117.38Z" class="cls-27"/><path d="M210,130a9.59,9.59,0,0,1-2.45,1.48,12,12,0,0,1-8,.3,8.71,8.71,0,0,1-3.27-1.72,7.46,7.46,0,0,1-2-3c-1.5-4.06.16-8.62,2.51-12.25.31-.49.64-1,1-1.43a17.14,17.14,0,0,0-1.54,5.28,10.48,10.48,0,0,0,2.49,8.28,11.3,11.3,0,0,0,7.21,3.13A22.72,22.72,0,0,0,210,130Z" class="cls-26"/><path d="M211.07,118.9c-.58-1.36-1.86-3.31-3.61-2.38-1.2.63-1.22,2-1.4,3.15a34.42,34.42,0,0,0-.38,4.06c-.08,2.76,4.28,3.55,5.29,1A7.34,7.34,0,0,0,211.07,118.9Z" class="cls-32"/><path d="M331.38,261.49l21.09,88.95c-17.05,9-42.07,16.24-53.94,19.43-4.17,1.12-6.72,1.73-6.72,1.73-4-24,4.14-74.32,4.14-74.32-12.27-.59-34.35-8.73-42.2-11.77a3,3,0,0,1-1.55-4.12,19.27,19.27,0,0,1,1.68-2.64c7.46-9.92,20.47-6.28,20.47-6.28,17.44,1.28,25.75-6.76,25.75-6.76a8.59,8.59,0,0,0,1-2.6h0c1.86-8.3-4.19-23.05-4.19-23.05C286,240.22,275,236.2,275,236.2c-17.81,21-33.26,20.26-36.65,16.9a3.42,3.42,0,0,1-.14-4.62C253.66,230.19,275.93,215,275.93,215c10.47-.08,22.72,4.65,29.58,7.73,3.3,1.48,5.35,2.58,5.35,2.58C319.75,234,331.38,261.49,331.38,261.49Z" class="cls-33"/><path d="M331.38,261.49l21.09,88.95c-17.05,9-42.07,16.24-53.94,19.43A129,129,0,0,0,321.67,309c2.63-24.06-1.21-48.54-9.65-71.14-1.19-3.19-4.62-9.26-6.51-15.08,3.3,1.48,5.35,2.58,5.35,2.58C319.75,234,331.38,261.49,331.38,261.49Z" class="cls-34"/><path d="M301.1,263.11c0,.15,0,.31,0,.46a11.08,11.08,0,0,1-1.18,4.32,10.52,10.52,0,0,1-3.05,3.22c-6.5,4.81-15.06,5.74-23.14,5.53-4.41-.11-8.84-.52-13.21.07a20.51,20.51,0,0,0-6.6,2c7.46-9.92,20.47-6.28,20.47-6.28,17.44,1.28,25.75-6.76,25.75-6.76A8.59,8.59,0,0,0,301.1,263.11Z" class="cls-34"/></g><path d="M192.87,279.34c-5.81,11.26-12.29,22.19-21.44,30.85-2.3,2.18-4.86,4.26-7.9,5.18a15.75,15.75,0,0,1-11.67-1.52,35.31,35.31,0,0,1-9.27-7.66c-6.4-7-14.3-17.95-14.82-28.32a120.55,120.55,0,0,1,28.94-4.33c6.66-.29,13.41-.25,19.89,1.33C182.34,276.28,187.68,277.29,192.87,279.34Z" class="cls-2"/><path d="M174.94,301.78c-15.35,3.63-32.88-1.55-32.88-1.55l3.15-34.48,1.28-14,.7-7.66,25.37,2.07.2,4.46.8,19Z" class="cls-2"/><path d="M173.56,269.55a87.38,87.38,0,0,1-8.46,3.11,13.77,13.77,0,0,1-4.53.81,14.91,14.91,0,0,1-5-1.45c-4.05-1.7-7.85-3.77-10.31-6.27l1.28-14c.26-.28.54-.55.84-.82,5-4.75,12.94-5.46,19.52-3.28a21.58,21.58,0,0,1,5.91,3Z" class="cls-12"/><path d="M117.55,215.31c1.59,4.62,4.06,9.49,8.62,11.24a5.32,5.32,0,0,0,3.68.23c1.9-.69,2.87-2.77,3.53-4.69,3.31-9.76,3.49-20.28,3.36-30.6-.12-8.52-4.85-30.32-16.3-17.38C110.65,185.18,113.19,202.59,117.55,215.31Z" class="cls-13"/><path d="M218.17,188.65c.24,10.53-4.55,20.61-10.81,29.07-2.52,3.41-5.78,6.88-10,7.14a5.47,5.47,0,0,1-4.31-1.45,7.86,7.86,0,0,1-1.64-3.47c-3.4-12.45-6.19-35.38,3.72-45.8S217.93,177.92,218.17,188.65Z" class="cls-13"/><path d="M120.94,218.55a8.31,8.31,0,0,0-6.26,4,10.32,10.32,0,0,0-1.05,6.87c.89,5.63,5.16,10.78,11.06,13.32,2.66,1.14,6.11,1.69,8.43.09,4.71-3.25,1.42-11.24.74-15.51C133.11,222.6,126.53,218,120.94,218.55Z" class="cls-12"/><path d="M133.37,233.37a18.25,18.25,0,0,0-7.21-5.72c-2.37-1-5.39-2.21-7.77-.68a.75.75,0,0,0-.15,1.17c1.64,1.59,4,1.85,6,2.89a21.7,21.7,0,0,1,5.94,4.85C131.66,237.59,134.81,235.25,133.37,233.37Z" class="cls-14"/><path d="M202.8,220.05a7.3,7.3,0,0,1,5.48,4.08,12,12,0,0,1,.92,7,18.1,18.1,0,0,1-9.68,13.51c-2.33,1.16-5.35,1.71-7.38.09-4.12-3.3-1.24-11.4-.65-15.72C192.15,224.16,197.9,219.53,202.8,220.05Z" class="cls-12"/><path d="M201.85,229.22c-4,0-7.53,3-9.31,6.43-1.44,2.78,2.77,5.25,4.21,2.46s3.53-4.16,5.95-5.77A1.69,1.69,0,0,0,201.85,229.22Z" class="cls-14"/><path d="M195.72,231.57c-7.59,38.36-37.22,36.11-37.22,36.11C138,266,130,248.16,127.3,230.18a136,136,0,0,1-.85-29.68c.41-5.72,1-9.38,1-9.38,36.84-22.39,68.62,0,68.62,0,.4,3.23.72,6.33.94,9.29C198,213,197.36,223.25,195.72,231.57Z" class="cls-2"/><path d="M164.43,219.57a2.68,2.68,0,0,0-2.54-1.93,2.2,2.2,0,0,0-.5.06l-.19,0a2.67,2.67,0,0,0-1.93,2.53,55,55,0,0,0,.11,7.48c.11,2.27.09,4.47,1.08,6.55.72,1.51,3.4,1.59,4.09,0C166.31,230.25,165.49,223.78,164.43,219.57Z" class="cls-12"/><path d="M197,200.41c-.06.06-.14.11-.2.16a16.17,16.17,0,0,1-3.5,1.76c-10.63,4.1-22.58,3.89-33.6,1-3.25-.84-6.73-2.14-8.4-5.06a61.43,61.43,0,0,1-24.85,2.22c.41-5.72,1-9.38,1-9.38,36.84-22.39,68.62,0,68.62,0C196.46,194.35,196.78,197.45,197,200.41Z" class="cls-12"/><path d="M151.71,195a50.94,50.94,0,0,1-32.88-3c-6-2.7-11.88-7.08-13.79-13.42s2-14.51,8.6-15c-2.07-1.19-2.88-3.93-2.39-6.27a12.56,12.56,0,0,1,3.68-6.05c.51-.52,1-1,1.58-1.5A31.14,31.14,0,0,1,145,143.32c6.53,1.86,12.29,5.86,18.83,7.7,8.31,2.35,17.32,1.06,25.63,3.4s15.52,8.79,18,16.88a20.54,20.54,0,0,1,.83,3.92C211.22,201.7,167.54,206.43,151.71,195Z" class="cls-15"/><path d="M146.25,215.25c-.78-2.09-2.91-3.55-5.09-2.27-2.4,1.4-2.51,5.46-1.38,7.69C142.54,226.1,147.82,219.44,146.25,215.25Z" class="cls-15"/><path d="M186.7,215.25c-.79-2.09-2.91-3.55-5.1-2.27-2.39,1.4-2.51,5.46-1.38,7.69C183,226.1,188.27,219.44,186.7,215.25Z" class="cls-15"/><path d="M146.37,205.07a12.65,12.65,0,0,0-4.72-1,19.93,19.93,0,0,0-5-.08,2.83,2.83,0,0,0-2.74,2.42,2.75,2.75,0,0,0,2,3.06,22.77,22.77,0,0,0,5.41.18,13.34,13.34,0,0,0,5.05-1A2.1,2.1,0,0,0,146.37,205.07Z" class="cls-15"/><path d="M179,205.07a12.65,12.65,0,0,1,4.72-1,19.93,19.93,0,0,1,5-.08,2.83,2.83,0,0,1,2.74,2.42,2.75,2.75,0,0,1-2,3.06,22.77,22.77,0,0,1-5.41.18,13.34,13.34,0,0,1-5.05-1A2.1,2.1,0,0,1,179,205.07Z" class="cls-15"/><path d="M195.72,231.57c-.36,1.81-.77,3.52-1.22,5.15-9.09,33-36,31-36,31-13.84-1.17-22-9.66-26.62-20.58a65.27,65.27,0,0,1-3.8-12.51c-.3-1.46-.56-2.94-.78-4.41,7-1.65,25.4-5.83,34.09-5.83a141.06,141.06,0,0,1,30.74,6C193.33,230.72,194.52,231.13,195.72,231.57Z" class="cls-16"/><path d="M195.72,231.57c-7.59,38.36-37.22,36.11-37.22,36.11-13.84-1.17-22-9.66-26.62-20.58a27.58,27.58,0,0,0,5.59,3.19,50,50,0,0,0,12.66,3.26,47,47,0,0,0,13,.37c10.19-1.37,19.2-8,25.1-16.39a39.67,39.67,0,0,0,2.81-4.59c.38-.74.69-1.74,1.12-2.61C193.33,230.72,194.52,231.13,195.72,231.57Z" class="cls-17"/><path d="M195.72,231.57c-.36,1.81-.77,3.52-1.22,5.15-8.63-3.4-17.36-6.64-26.45-8.43a40.2,40.2,0,0,0-7.86-.89,52,52,0,0,0-11.13,1.7c-5.48,1.25-10.94,2.51-16.37,4-1.21.31-2.94,1.08-4.61,1.53-.3-1.46-.56-2.94-.78-4.41,7-1.65,25.4-5.83,34.09-5.83a141.06,141.06,0,0,1,30.74,6C193.33,230.72,194.52,231.13,195.72,231.57Z" class="cls-18"/><path d="M130.94,231.21c-.92-3-1.9-5.91-2.93-8.83-.43-1.21-.8-2.94-1.71-4a1.12,1.12,0,0,0-2,.63c-.15,1.32.53,2.85.9,4.1.87,3,1.8,5.93,2.79,8.86C128.64,233.84,131.52,233.08,130.94,231.21Z" class="cls-18"/><path d="M192.28,231.21c.92-3,1.9-5.91,2.93-8.83.43-1.21.8-2.94,1.71-4a1.12,1.12,0,0,1,2,.63c.15,1.32-.53,2.85-.9,4.1-.87,3-1.81,5.93-2.8,8.86C194.58,233.84,191.69,233.08,192.28,231.21Z" class="cls-18"/><path d="M185,236.38a120,120,0,0,0-13.67-2.8c-4-.63-8.24-1.56-12.33-1.43-8.22.27-17,4-24.5,7a.29.29,0,0,0,.16.56c8-1.75,16.14-5.65,24.34-5.92,4.18-.13,8.46.86,12.57,1.54,4.37.72,8.68,1.63,13,2.71A.86.86,0,0,0,185,236.38Z" class="cls-19"/><path d="M182.26,242.63a149.62,149.62,0,0,1-23,2.47c-7.35.19-14.61-.48-21.93-.88a.26.26,0,0,0-.07.51c14.67,3.15,30.75,2.06,45.39-.75C183.51,243.81,183.14,242.47,182.26,242.63Z" class="cls-19"/><path d="M179.72,252.11a32.08,32.08,0,0,1-19.65,6c-7.28-.14-13.6-2.74-20.39-4.95-.42-.13-.64.47-.29.7,12,7.62,29.47,8.1,41.11-.38C181.29,252.87,180.52,251.53,179.72,252.11Z" class="cls-19"/><path d="M151.71,195a50.94,50.94,0,0,1-32.88-3c-6-2.7-11.88-7.08-13.79-13.42s2-14.51,8.6-15c-2.07-1.19-2.88-3.93-2.39-6.27a12.56,12.56,0,0,1,3.68-6.05c.51-.52,1-1,1.58-1.5.21,1.58,0,3.53.29,4.83a12.94,12.94,0,0,0,7.78,9.38,24.25,24.25,0,0,0-6,4.29A8.66,8.66,0,0,0,116,175c.56,4.63,5.63,7.12,10.07,8.52a104.43,104.43,0,0,0,47.32,3.79c12.58-2,25.3-7.06,34.11-16a20.54,20.54,0,0,1,.83,3.92C211.22,201.7,167.54,206.43,151.71,195Z" class="cls-13"/><path d="M135.81,173.1a13.65,13.65,0,0,0-2.66-1.3,7.25,7.25,0,0,0-1.46-.36c-1.53-.2.91.12-.57-.08a4.94,4.94,0,0,0-1.58.11,3.22,3.22,0,0,0-1.91,4.71,5.42,5.42,0,0,0,3.81,2.38,6.87,6.87,0,0,0,4.37-.74C137.7,176.9,137.47,174.08,135.81,173.1Z" class="cls-20"/><path d="M141.39,165.67a3,3,0,0,0-2.88-2.55h-.26l-.17,0a6.61,6.61,0,0,0-1-.08,13,13,0,0,1-1.4.06c-1.33-.07-3,.14-3.38,1.7-.43,1.76.89,3,2.33,3.72a5.73,5.73,0,0,0,4.65.4A3,3,0,0,0,141.39,165.67Z" class="cls-20"/><path d="M146.44,156.06a2.67,2.67,0,0,0-3.23-2.24H143a4.33,4.33,0,0,0-1.42-.21,2.47,2.47,0,0,0-2.11,3.67,4.56,4.56,0,0,0,4.32,1.83,3,3,0,0,0,1.89-.78A2.58,2.58,0,0,0,146.44,156.06Z" class="cls-20"/><path d="M229.16,154.67l-.64.17-.87.22c-.41-1.55-.8-3.09-1.19-4.64-.08-.29-.15-.57-.22-.86-.24-.94-.48-1.89-.71-2.84-.44-1.74-.87-3.49-1.3-5.23-.51-2.12-1-4.23-1.54-6.35-.16-.64-.32-1.28-.47-1.92-2.52-10.4-5.71-21.14-6.76-31.81,0-.16.21-.16.26,0,3.61,10.32,5.46,21.49,8.06,32.11l.31,1.28c.95,3.87,1.93,7.71,2.92,11.56l.75,2.92Z" class="cls-15"/><path d="M232.66,148.28l-6.51,1.29-4.55.91a10.82,10.82,0,0,0,.13-2.77c-.08-4.33-.61-12.16-.61-12.16l5.13-1.34,5,11Z" class="cls-8"/><path d="M236,151.47a1.18,1.18,0,0,1-.78,1.61l-6.08,1.59-.64.17-.87.22-5.77,1.51a1.18,1.18,0,0,1-1.47-1l-.76-7.29,2.08-.55,3.57-.93.23-.06,1.48-.39,4.26-1.11,1.84-.48Z" class="cls-15"/><path d="M228.52,154.84l-.87.22-5.59,1.46a1.34,1.34,0,0,1-1.67-1.16l-.62-6a1.33,1.33,0,0,1,1-1.43l1-.26c-.08-4.33-.6-12.16-.6-12.16l1.56-.41.83-.22c.18,2.2.39,4.39.71,6.57.17,1.15.38,2.29.62,3.44.14.62.28,1.23.45,1.85.25.94.53,1.87.85,2.8.1.28.2.56.31.84A29.6,29.6,0,0,0,228.52,154.84Z" class="cls-25"/><path d="M212.52,117.38c.79,2.72,1.31,5.64.47,8.33a9.15,9.15,0,0,1-3,4.28,9.59,9.59,0,0,1-2.45,1.48,12,12,0,0,1-8,.3,8.71,8.71,0,0,1-3.27-1.72,7.46,7.46,0,0,1-2-3c-1.5-4.06.16-8.62,2.51-12.25.31-.49.64-1,1-1.43a34.68,34.68,0,0,1,3.08-3.66,34,34,0,0,1,9.33-6.79c.43-.22,1.93-1.2,2.37-.76s-.76,1.47-1,1.89a9.84,9.84,0,0,0-1.06,5.11C210.71,112,211.74,114.67,212.52,117.38Z" class="cls-27"/><path d="M210,130a9.59,9.59,0,0,1-2.45,1.48,12,12,0,0,1-8,.3,8.71,8.71,0,0,1-3.27-1.72,7.46,7.46,0,0,1-2-3c-1.5-4.06.16-8.62,2.51-12.25.31-.49.64-1,1-1.43a17.14,17.14,0,0,0-1.54,5.28,10.48,10.48,0,0,0,2.49,8.28,11.3,11.3,0,0,0,7.21,3.13A22.72,22.72,0,0,0,210,130Z" class="cls-26"/><path d="M211.07,118.9c-.58-1.36-1.86-3.31-3.61-2.38-1.2.63-1.22,2-1.4,3.15a34.42,34.42,0,0,0-.38,4.06c-.08,2.76,4.28,3.55,5.29,1A7.34,7.34,0,0,0,211.07,118.9Z" class="cls-32"/><path d="M301.1,263.11c0,.15,0,.31,0,.46a11.08,11.08,0,0,1-1.18,4.32,10.52,10.52,0,0,1-3.05,3.22c-6.5,4.81-15.06,5.74-23.14,5.53-4.41-.11-8.84-.52-13.21.07a20.51,20.51,0,0,0-6.6,2c7.46-9.92,20.47-6.28,20.47-6.28,17.44,1.28,25.75-6.76,25.75-6.76A8.59,8.59,0,0,0,301.1,263.11Z" class="cls-34"/><path d="M255.83,330.27c.15-1.9.39-4,.43-6.18a108.07,108.07,0,0,1-15.38-.14c-.27,1.8-.43,3.59-.6,5.2q-.34,3.28-.58,6.59c-2.09,0-4.18,0-6.27.07a54.84,54.84,0,0,0-8.56.65c-.2,4.09-.53,8.16-.92,12.24,4.67,1.65,9.93,2.11,15,2.38,0,.95,0,1.91,0,2.86,0,3.71-.24,7.4.59,10.95,4.7-.13,9.45.09,13.87-.07l1.59-.05c.81-3.57.1-7.86.07-11.4,0-.57,0-1.14,0-1.72,4.48,0,9-.21,13.42-.42V335.18c-4.33.18-8.65.25-13,.31C255.59,333.75,255.7,332,255.83,330.27Z" class="cls-18"/><path d="M282.31,307c.06-.69.14-1.48.16-2.25a38.73,38.73,0,0,1-5.6-.06c-.1.66-.16,1.31-.22,1.9-.08.8-.15,1.59-.21,2.39l-2.28,0a19.88,19.88,0,0,0-3.11.24c-.08,1.49-.2,3-.34,4.45a19.43,19.43,0,0,0,5.47.87c0,.35,0,.69,0,1a16.44,16.44,0,0,0,.22,4c1.71,0,3.44,0,5.05,0l.57,0a18.58,18.58,0,0,0,0-4.15v-.62c1.63,0,3.26-.08,4.88-.16v-5.84c-1.57.07-3.15.1-4.72.12C282.22,308.24,282.27,307.61,282.31,307Z" class="cls-18"/><path d="M335.81,366.93s0,2.86-.08,7.14c0,3.43-.09,7.76-.14,12.28-.07,7.07-.16,14.58-.22,19.74,0,3.93-.07,6.51-.07,6.51.36,17.8-32.43,12.92-45,12.49-6.53-.23-13.1-4.85-13.18-12.49,0-2.15,0-4.3-.07-6.45q-.07-7.15-.16-14.32c0-1.22,0-2.45,0-3.67,0-4.14,0-8.28-.06-12.41v-.5c-.13-6.21-.81-12.53.65-18.65.93-3.92,2.85-5.57,5.95-7.78,5.92-4.21,4.12-12.19,3.81-18.35-.07-1.37,35.33-.13,38,0-.2,3.91-1,8-.19,11.88s2.82,5.25,5.53,7.32l.51.39C336,353.88,335.87,361.39,335.81,366.93Z" class="cls-7"/><path d="M329,407.36c-.35,7.34-8.15,9.76-14.23,10.61a41.84,41.84,0,0,1-25.41-4.13c-5.95-3.12-7.4-7.69-7.69-13-.14-2.46,0-5.09,0-7.83,0-5.31.18-10.62.36-15.93,0-1.24.29-19.67.9-19.74,18.89-1.34,32.35-.07,40,1.14a65.6,65.6,0,0,1,7.42,1.52C331.23,361.72,329,407.36,329,407.36Z" class="cls-35"/><path d="M329,407.36c-.35,7.34-8.15,9.76-14.23,10.61a41.84,41.84,0,0,1-25.41-4.13c-5.95-3.12-7.4-7.69-7.69-13h.07c8.07-.69,16.17-2.84,22.84-7.44,9.77-6.75,15.57-18.33,17.62-29.82.29-1.62.36-3.45.71-5.1a65.6,65.6,0,0,1,7.42,1.52C331.23,361.72,329,407.36,329,407.36Z" class="cls-36"/><path d="M292.2,365.3l0-.18a2.51,2.51,0,0,0-5,0l0,.18C286.88,368.55,292.46,368.56,292.2,365.3Z" class="cls-37"/><path d="M289.5,377.48a1.27,1.27,0,0,0-.17-.63,1.94,1.94,0,0,0-.53-.82l0,0a2.84,2.84,0,0,0-1.76-.73,2.47,2.47,0,0,0-1.76.73l0,0a3.08,3.08,0,0,0-.65,1.12,2.41,2.41,0,0,0,.12,1.65,2.58,2.58,0,0,0,.78,1,2.46,2.46,0,0,0,1.54.55,2.66,2.66,0,0,0,2.19-1.26A2.54,2.54,0,0,0,289.5,377.48Z" class="cls-37"/><path d="M297.67,372.24a2.29,2.29,0,0,0-3.24,0,2.3,2.3,0,0,0,1.62,3.92,2.39,2.39,0,0,0,1.62-.67,2.33,2.33,0,0,0,.67-1.63A2.29,2.29,0,0,0,297.67,372.24Z" class="cls-37"/><path d="M306.42,365.42a1.91,1.91,0,1,0,0,1.76,1.77,1.77,0,0,0,.17-.88A1.79,1.79,0,0,0,306.42,365.42Z" class="cls-37"/><path d="M293.21,335.14v7.16a2.84,2.84,0,0,0,2.61,2.83c4.39.37,13.48.95,20.59.12a2.83,2.83,0,0,0,2.5-2.82v-7.29Z" class="cls-38"/><path d="M315.58,350a39.05,39.05,0,0,0-10.24-.79,56.32,56.32,0,0,0-10.22.84c-1.41.27-.91,2.18.31,2.31a101.87,101.87,0,0,0,10.34.36,53.56,53.56,0,0,0,9.81-.39C316.79,352.15,316.68,350.31,315.58,350Z" class="cls-39"/><path d="M289.67,350a9.17,9.17,0,0,0-6.64,2.4c-1.93,1.6-3.95,3.37-4.6,5.88-.71,2.81,3.63,4,4.34,1.2.41-1.59,1.74-2.91,2.83-4.08A12,12,0,0,1,290,352,1,1,0,0,0,289.67,350Z" class="cls-39"/><path d="M321.45,350.88c-.62,0-.84,1.05-.15,1.15,2,.29,3.94,2.73,5,4.31a32.82,32.82,0,0,1,2.78,5.28c.65,1.48,2.89.65,2.9-.79A10.08,10.08,0,0,0,321.45,350.88Z" class="cls-39"/><path d="M289.91,416.25a21,21,0,0,1-3.8-2.1c-1.14-.82-1.87-2.12-3-2.85a1.6,1.6,0,0,0-2.38,1.37c0,1.73,1.5,3.56,2.64,4.76a10.26,10.26,0,0,0,4.9,2.81C290.52,420.8,292.26,417.27,289.91,416.25Z" class="cls-39"/><path d="M330.25,416.29a.63.63,0,0,0-.63-.62c-1.54,0-2.53.83-3.87,1.48s-3,.94-4.05,2.05a1.38,1.38,0,0,0,.28,2.15c1.81.87,3.85.15,5.44-.91S330.4,418.25,330.25,416.29Z" class="cls-39"/><path d="M335.73,374.07c0,3.43-.09,7.76-.14,12.28-.07,7.07-.16,14.58-.22,19.74-1.73.17-3.86.36-6.32.55a303.85,303.85,0,0,1-46.29.05c-1.9-.15-3.82-.33-5.74-.54,0-.22,0-.45,0-.67l-.15-13.65c0-1.22,0-2.45,0-3.67,0-4.14,0-8.28-.06-12.41l5.29-.38c3.31-.22,7.38-.48,11.83-.73l4.37-.23c6.76-.33,14.1-.61,20.93-.7h.17c3.9,0,7.63,0,11,.08C332.29,373.85,334.08,374,335.73,374.07Z" class="cls-18"/><path d="M335.73,374.07c0,3.43-.09,7.76-.14,12.28h-5.66l-4.44,0q-6.76,0-13.54.16l-1.21,0c-9.68.2-19.35.57-29,1.23-1.61.1-3.21.22-4.81.35h-.09c0-4.14,0-8.28-.06-12.41l5.29-.38c3.31-.22,7.38-.48,11.83-.73l4.37-.23c6.76-.33,14.1-.61,20.93-.7h.17c3.9,0,7.63,0,11,.08C332.29,373.85,334.08,374,335.73,374.07Z" class="cls-40"/><path d="M330.29,330.1c0,1.67-.06,3.26-.14,4.57a4,4,0,0,1-3.24,3.87c-.73.1-1.47.18-2.24.26-12.35,1.27-28.95.3-37-.32l-1.82-.15a3.9,3.9,0,0,1-3.36-3.62c-.31-2.76-1.8-8,.31-10.37a5.14,5.14,0,0,1,.42-.38,2.33,2.33,0,0,1,.4-.27,6.27,6.27,0,0,1,2.51-.65c2.27-.27,4.56-.49,6.84-.66a174.46,174.46,0,0,1,25.56-.12c2.81.19,5.62.45,8.41.78a4,4,0,0,1,3.28,3.93C330.27,328,330.3,329.07,330.29,330.1Z" class="cls-41"/><path d="M330.29,330.1c0,1.67-.06,3.26-.14,4.57a4,4,0,0,1-3.24,3.87c-13.5,1.78-33.58.41-41.05-.21a3.9,3.9,0,0,1-3.36-3.62c-.31-2.76-1.8-8,.31-10.37,1.21,2.15,1.62,4.65,3.92,6.36,3.12,2.31,7.34,2.63,11.07,2.95l8,.68c5.43.46,11,.92,16.27-.32A20.64,20.64,0,0,0,330.29,330.1Z" class="cls-42"/><path d="M318.54,322.26a7.06,7.06,0,0,1-1.08.73c-6.52,3.63-14.66,3.2-21.76.88a8.15,8.15,0,0,1-2.72-1.49A174.46,174.46,0,0,1,318.54,322.26Z" class="cls-43"/><path d="M335.73,374.07c0,3.43-.09,7.76-.14,12.28-.07,7.07-.16,14.58-.22,19.74-1.73.17-3.86.36-6.32.55a303.85,303.85,0,0,1-46.29.05c-1.9-.15-3.82-.33-5.74-.54,0-.22,0-.45,0-.67,10.09-2.5,19.77-6.75,27.81-13.29a53.36,53.36,0,0,0,5.92-5.62,50.34,50.34,0,0,0,8.46-12.86h.17c3.9,0,7.63,0,11,.08C332.29,373.85,334.08,374,335.73,374.07Z" class="cls-44"/><path d="M63.54,297.64c-.08-.82-.16-1.63-.23-2.45a3.92,3.92,0,0,0-.42-1.66,1.31,1.31,0,0,0-1.45-.67c-.76.25-.89,1.25-.89,2,0-.27-2.59-1.2-4-1.58-.09-.42-.18-.84-.3-1.26a20,20,0,0,0-2.13-4.83l1.66-2.31a4.19,4.19,0,0,0,.7,1.3,1.44,1.44,0,0,0,1.31.52,1.46,1.46,0,0,0,1-1.6,4.28,4.28,0,0,0-.85-1.82l-1.38-2A3.93,3.93,0,0,0,55.37,280a1.33,1.33,0,0,0-1.59.12c-.54.59-.18,1.53.2,2.22-.1-.19-1.95.07-3.38.35a30.44,30.44,0,0,0-5.72-4.48c.09-1.1.17-2.19.25-3.28a4.18,4.18,0,0,0,1.27.74,1.41,1.41,0,0,0,1.39-.24,1.45,1.45,0,0,0,0-1.86,4.19,4.19,0,0,0-1.68-1.11l-2.24-1A4,4,0,0,0,42.2,271a1.33,1.33,0,0,0-1.3.93c-.15.79.64,1.4,1.34,1.79-.19-.1-1.48.95-2.53,1.9a34.36,34.36,0,0,0-6.29-1.87l-.6-3.17a4.49,4.49,0,0,0,1.42.39,1.27,1.27,0,0,0,.78-2.38,4.22,4.22,0,0,0-1.91-.65l-2.43-.4a4,4,0,0,0-1.71,0,1.32,1.32,0,0,0-1,1.24c.05.79,1,1.18,1.75,1.38-.24-.06-1.51,1.74-2.29,3-.72,0-1.45,0-2.16.09a20.31,20.31,0,0,0-3.9.71l-2.12-2.58a3.89,3.89,0,0,0,1.43-.34,1.41,1.41,0,0,0,.83-1.14,1.44,1.44,0,0,0-1.3-1.32,4.15,4.15,0,0,0-2,.36l-2.32.82a3.88,3.88,0,0,0-1.51.81,1.33,1.33,0,0,0-.29,1.57c.43.67,1.43.56,2.2.37-.25.06-.51,2.56-.56,4a22.15,22.15,0,0,0-5.8,5.5l-4.21-.28a4.24,4.24,0,0,0,.73-1.27,1.41,1.41,0,0,0-.26-1.39,1.44,1.44,0,0,0-1.85,0,4.1,4.1,0,0,0-1.1,1.69l-1,2.25a3.92,3.92,0,0,0-.45,1.66A1.33,1.33,0,0,0,2.76,286c.78.14,1.38-.66,1.77-1.36-.12.22,1.41,2,2.44,3.06a20.56,20.56,0,0,0-.86,3.52c-.09.57-.15,1.14-.19,1.72l-3.17,2a4.21,4.21,0,0,0-.17-1.46,1.37,1.37,0,0,0-1-1,1.43,1.43,0,0,0-1.47,1.13,4.13,4.13,0,0,0,.12,2c.17.81.35,1.61.53,2.41a4,4,0,0,0,.61,1.6,1.35,1.35,0,0,0,1.53.48c.72-.35.73-1.35.63-2.14a8.42,8.42,0,0,0,2.84.84,23.51,23.51,0,0,0,1.77,5.29A25.61,25.61,0,0,0,10,307.42l-1.73,2.77a4.12,4.12,0,0,0-.78-1.25,1.42,1.42,0,0,0-1.35-.43,1.44,1.44,0,0,0-.83,1.66,4.12,4.12,0,0,0,1,1.76l1.52,1.94A4,4,0,0,0,9,315.05a1.34,1.34,0,0,0,1.59-.23c.5-.62.07-1.53-.36-2.2.13.2,2.18-.24,3.61-.64a27.45,27.45,0,0,0,6.76,4.69c.09,1.43.17,2.85.26,4.28a4.37,4.37,0,0,0-1.36-.57,1.27,1.27,0,0,0-1.07,2.27,4.09,4.09,0,0,0,1.81.88l2.36.7a3.82,3.82,0,0,0,1.7.24,1.34,1.34,0,0,0,1.16-1.1c0-.8-.83-1.29-1.57-1.59.25.1,2-1.9,2.92-3a26.45,26.45,0,0,0,4.88.45L33.16,323a4.06,4.06,0,0,0-1.47-.13,1.43,1.43,0,0,0-1.15.82,1.45,1.45,0,0,0,.82,1.66,4.2,4.2,0,0,0,2,.29l2.46-.05a3.84,3.84,0,0,0,1.69-.28,1.3,1.3,0,0,0,.77-1.4c-.19-.78-1.17-1-2-1.05.34,0,2-3.85,2.09-4.55a27.17,27.17,0,0,0,4-1.32l2.52,2.36a4.22,4.22,0,0,0-1.37.52,1.44,1.44,0,0,0-.68,1.24,1.46,1.46,0,0,0,1.47,1.14,4.13,4.13,0,0,0,1.91-.61l2.2-1.12a4,4,0,0,0,1.39-1,1.33,1.33,0,0,0,.08-1.6c-.51-.61-1.48-.37-2.23-.08.24-.09.18-2.39.05-3.87a23,23,0,0,0,4.8-4.7l4.18.69a4.4,4.4,0,0,0-.86,1.2,1.27,1.27,0,0,0,2,1.54,4.24,4.24,0,0,0,1.26-1.57l1.2-2.14a4,4,0,0,0,.61-1.6,1.32,1.32,0,0,0-.82-1.38c-.76-.22-1.44.52-1.9,1.17.17-.23-1.58-2.65-2.47-3.69a20.16,20.16,0,0,0,1-3.48l4.26-2a4.27,4.27,0,0,0,0,1.47,1.43,1.43,0,0,0,.91,1.09,1.45,1.45,0,0,0,1.6-.94A4.26,4.26,0,0,0,63.54,297.64Z" class="cls-45"/><path d="M283.87,108.83l-.15-1.58a2.6,2.6,0,0,0-.27-1.07.84.84,0,0,0-.93-.43c-.49.16-.58.8-.58,1.32a8.71,8.71,0,0,0-2.55-1c-.05-.27-.12-.55-.19-.81a12.86,12.86,0,0,0-1.37-3.11l1.07-1.48a2.65,2.65,0,0,0,.44.83.82.82,0,0,0,1.46-.7,2.68,2.68,0,0,0-.55-1.17c-.29-.44-.59-.87-.89-1.31a2.64,2.64,0,0,0-.75-.81.85.85,0,0,0-1,.08c-.35.38-.12,1,.13,1.43a6.58,6.58,0,0,0-2.18.22,20,20,0,0,0-3.67-2.88c.05-.71.1-1.41.16-2.11a2.89,2.89,0,0,0,.81.48.82.82,0,0,0,.88-1.36,2.75,2.75,0,0,0-1.08-.71L271.2,92a2.39,2.39,0,0,0-1.06-.3.86.86,0,0,0-.84.6c-.1.5.42.89.86,1.15-.12-.07-1,.61-1.62,1.22a22.66,22.66,0,0,0-4.05-1.21c-.13-.68-.26-1.36-.38-2a2.63,2.63,0,0,0,.91.25.91.91,0,0,0,.82-.39.94.94,0,0,0-.32-1.15,2.76,2.76,0,0,0-1.23-.41l-1.56-.26a2.41,2.41,0,0,0-1.1,0,.85.85,0,0,0-.66.79c0,.52.63.76,1.13.89a7.84,7.84,0,0,0-1.47,1.94c-.47,0-.93,0-1.39.06a12.35,12.35,0,0,0-2.51.46c-.45-.56-.91-1.11-1.36-1.66a2.88,2.88,0,0,0,.92-.22.82.82,0,0,0-.31-1.59,2.81,2.81,0,0,0-1.27.23l-1.49.53a2.6,2.6,0,0,0-1,.52.85.85,0,0,0-.19,1c.28.43.92.36,1.42.24a8.22,8.22,0,0,0-.36,2.6,14,14,0,0,0-3.74,3.54l-2.71-.19a2.6,2.6,0,0,0,.48-.82.82.82,0,0,0-1.37-.86,2.66,2.66,0,0,0-.7,1.09c-.21.48-.43,1-.64,1.45a2.47,2.47,0,0,0-.29,1.06.87.87,0,0,0,.61.83c.51.09.89-.42,1.14-.87a8.2,8.2,0,0,0,1.57,2,13.19,13.19,0,0,0-.55,2.27,10.56,10.56,0,0,0-.12,1.1l-2,1.3a2.7,2.7,0,0,0-.11-.94.92.92,0,0,0-.66-.62.94.94,0,0,0-1,.73,2.7,2.7,0,0,0,.07,1.29l.35,1.55a2.44,2.44,0,0,0,.39,1,.85.85,0,0,0,1,.31c.47-.22.47-.87.41-1.37a5.77,5.77,0,0,0,1.83.54,14.48,14.48,0,0,0,1.14,3.4,15.52,15.52,0,0,0,1.19,2.1l-1.11,1.78a2.85,2.85,0,0,0-.5-.8.91.91,0,0,0-.87-.28.93.93,0,0,0-.54,1.07A2.79,2.79,0,0,0,247,118l1,1.25a2.63,2.63,0,0,0,.8.76.86.86,0,0,0,1-.15c.32-.4,0-1-.23-1.42a7.2,7.2,0,0,0,2.32-.41,17.39,17.39,0,0,0,4.35,3c.06.92.11,1.84.17,2.76a2.62,2.62,0,0,0-.88-.37.91.91,0,0,0-.86.28.93.93,0,0,0,.17,1.18,2.65,2.65,0,0,0,1.17.56l1.52.46a2.53,2.53,0,0,0,1.09.15.87.87,0,0,0,.75-.71c0-.51-.53-.83-1-1,.16.06,1.31-1.23,1.88-2a16.42,16.42,0,0,0,3.13.28c.32.83.64,1.65.95,2.47a2.73,2.73,0,0,0-.94-.08.91.91,0,0,0-.74.53.93.93,0,0,0,.53,1.07,2.74,2.74,0,0,0,1.28.19l1.58,0a2.51,2.51,0,0,0,1.09-.19.85.85,0,0,0,.49-.9c-.12-.5-.75-.63-1.27-.67a10.41,10.41,0,0,0,1.35-2.93,17.33,17.33,0,0,0,2.55-.85l1.63,1.52a2.51,2.51,0,0,0-.89.33.82.82,0,0,0,.51,1.53,2.65,2.65,0,0,0,1.23-.39l1.41-.72a2.51,2.51,0,0,0,.9-.64.86.86,0,0,0,.05-1c-.33-.39-.95-.23-1.43,0a8,8,0,0,0,0-2.49,14.74,14.74,0,0,0,3.09-3l2.68.44a2.83,2.83,0,0,0-.55.78.82.82,0,0,0,1.28,1,2.74,2.74,0,0,0,.8-1l.78-1.38a2.5,2.5,0,0,0,.39-1,.86.86,0,0,0-.53-.89c-.49-.14-.92.34-1.22.76a9.21,9.21,0,0,0-1.59-2.38,12.76,12.76,0,0,0,.63-2.24l2.74-1.29a2.76,2.76,0,0,0,0,1,.91.91,0,0,0,.58.69.93.93,0,0,0,1-.6A2.8,2.8,0,0,0,283.87,108.83Z" class="cls-45"/><path d="M166.57,436.12l-.09-1a1.47,1.47,0,0,0-.17-.66.52.52,0,0,0-.58-.27c-.3.1-.36.5-.36.82a5.86,5.86,0,0,0-1.59-.64l-.12-.5a8.2,8.2,0,0,0-.86-1.94l.67-.93a1.55,1.55,0,0,0,.28.52.56.56,0,0,0,.52.21.58.58,0,0,0,.39-.64,1.68,1.68,0,0,0-.35-.74l-.55-.81a1.54,1.54,0,0,0-.47-.51.54.54,0,0,0-.64,0c-.22.23-.07.61.08.89a4.26,4.26,0,0,0-1.36.14,12.29,12.29,0,0,0-2.29-1.8c0-.44.06-.88.1-1.32a1.76,1.76,0,0,0,.51.3.57.57,0,0,0,.56-.1.59.59,0,0,0,0-.74,1.66,1.66,0,0,0-.68-.45l-.9-.41a1.55,1.55,0,0,0-.66-.18.51.51,0,0,0-.52.37c-.07.31.25.56.53.72a3.86,3.86,0,0,0-1,.76,14.12,14.12,0,0,0-2.53-.75l-.24-1.27a1.6,1.6,0,0,0,.57.15.55.55,0,0,0,.51-.24.58.58,0,0,0-.2-.72,1.71,1.71,0,0,0-.76-.25l-1-.16a1.47,1.47,0,0,0-.69,0,.51.51,0,0,0-.4.49c0,.32.39.48.7.56-.1,0-.6.7-.92,1.21l-.87,0a9,9,0,0,0-1.56.29l-.86-1a1.89,1.89,0,0,0,.58-.14.55.55,0,0,0,.33-.46.58.58,0,0,0-.52-.53,1.72,1.72,0,0,0-.8.14l-.93.33a1.47,1.47,0,0,0-.6.33.51.51,0,0,0-.12.63c.17.27.57.22.88.15a5.38,5.38,0,0,0-.22,1.62,8.75,8.75,0,0,0-2.33,2.21l-1.69-.12a1.83,1.83,0,0,0,.29-.51.55.55,0,0,0-.11-.55.56.56,0,0,0-.74,0,1.74,1.74,0,0,0-.44.68c-.13.3-.27.6-.4.91a1.55,1.55,0,0,0-.18.66.54.54,0,0,0,.38.52c.32.06.56-.27.71-.55a5.36,5.36,0,0,0,1,1.23,7.56,7.56,0,0,0-.35,1.42c0,.23-.06.46-.08.69l-1.27.81a1.65,1.65,0,0,0-.07-.59.51.51,0,0,0-1,.07,1.56,1.56,0,0,0,0,.8l.22,1a1.6,1.6,0,0,0,.24.64.54.54,0,0,0,.62.19c.29-.14.29-.54.25-.86a3.22,3.22,0,0,0,1.14.34,9.36,9.36,0,0,0,.71,2.13,11.35,11.35,0,0,0,.75,1.31c-.23.37-.46.74-.7,1.11a1.61,1.61,0,0,0-.31-.5.56.56,0,0,0-.54-.17.57.57,0,0,0-.34.66,1.66,1.66,0,0,0,.39.71l.61.78a1.5,1.5,0,0,0,.5.47.54.54,0,0,0,.64-.09c.2-.25,0-.61-.14-.88a4.59,4.59,0,0,0,1.44-.26,11,11,0,0,0,2.72,1.88c0,.58.07,1.15.1,1.72a1.81,1.81,0,0,0-.54-.22.54.54,0,0,0-.54.17.57.57,0,0,0,.11.74,1.66,1.66,0,0,0,.73.35l.94.28a1.63,1.63,0,0,0,.68.1.53.53,0,0,0,.47-.44c0-.32-.33-.52-.63-.64.1,0,.82-.77,1.17-1.23a10.75,10.75,0,0,0,2,.18l.6,1.54a1.71,1.71,0,0,0-.59-.05.56.56,0,0,0-.46.33.57.57,0,0,0,.32.67,1.82,1.82,0,0,0,.8.12l1,0a1.58,1.58,0,0,0,.68-.12.52.52,0,0,0,.31-.56c-.08-.31-.47-.39-.79-.42a7,7,0,0,0,.84-1.83,11,11,0,0,0,1.59-.53l1,1a1.8,1.8,0,0,0-.56.21.51.51,0,0,0,.32.95,1.65,1.65,0,0,0,.77-.24l.88-.45a1.63,1.63,0,0,0,.56-.4.54.54,0,0,0,0-.64c-.21-.25-.6-.15-.9,0a5.15,5.15,0,0,0,0-1.56,9.34,9.34,0,0,0,1.93-1.89l1.68.28a1.79,1.79,0,0,0-.35.48.6.6,0,0,0,.05.57.59.59,0,0,0,.75.05,1.56,1.56,0,0,0,.5-.63l.49-.86a1.66,1.66,0,0,0,.24-.64.55.55,0,0,0-.33-.56c-.31-.09-.58.21-.76.47a6.25,6.25,0,0,0-1-1.48,7.53,7.53,0,0,0,.39-1.4l1.72-.8a1.67,1.67,0,0,0,0,.59.55.55,0,0,0,.36.43.56.56,0,0,0,.64-.38A1.55,1.55,0,0,0,166.57,436.12Z" class="cls-45"/><path d="M413.35,260.12l-.09-1a1.55,1.55,0,0,0-.17-.67.52.52,0,0,0-.58-.26c-.3.1-.36.5-.36.82a5.55,5.55,0,0,0-1.59-.64l-.12-.51a8,8,0,0,0-.86-1.94l.67-.92a1.75,1.75,0,0,0,.28.52.54.54,0,0,0,.53.2.58.58,0,0,0,.38-.64,1.74,1.74,0,0,0-.34-.73l-.56-.82a1.5,1.5,0,0,0-.47-.5.52.52,0,0,0-.64.05c-.21.23-.07.61.08.89a4,4,0,0,0-1.36.14,11.89,11.89,0,0,0-2.29-1.8L406,251a1.76,1.76,0,0,0,.51.3.57.57,0,0,0,.56-.1.6.6,0,0,0,0-.75,1.74,1.74,0,0,0-.68-.44l-.9-.41a1.57,1.57,0,0,0-.66-.19.53.53,0,0,0-.52.38c-.06.31.26.56.53.72-.07,0-.59.38-1,.76a13.35,13.35,0,0,0-2.53-.75l-.24-1.28a1.68,1.68,0,0,0,.57.16.51.51,0,0,0,.31-1,1.76,1.76,0,0,0-.76-.26l-1-.16a1.61,1.61,0,0,0-.69,0,.51.51,0,0,0-.4.49c0,.32.39.48.7.56a5,5,0,0,0-.92,1.21q-.43,0-.87,0a7.53,7.53,0,0,0-1.56.29l-.85-1a1.63,1.63,0,0,0,.57-.13.55.55,0,0,0,.33-.46.58.58,0,0,0-.52-.53,1.66,1.66,0,0,0-.79.14l-.94.33a1.66,1.66,0,0,0-.6.32.54.54,0,0,0-.12.64c.17.27.57.22.88.14a5.46,5.46,0,0,0-.22,1.63,8.74,8.74,0,0,0-2.33,2.21l-1.69-.12a1.53,1.53,0,0,0,.29-.51.56.56,0,0,0-.1-.56.59.59,0,0,0-.75,0,1.74,1.74,0,0,0-.44.68c-.13.3-.26.6-.4.9a1.81,1.81,0,0,0-.18.67.55.55,0,0,0,.38.52c.32.05.56-.27.72-.55a5,5,0,0,0,1,1.23,7.65,7.65,0,0,0-.35,1.41c0,.23-.06.46-.08.69l-1.27.81a1.62,1.62,0,0,0-.07-.58.54.54,0,0,0-.41-.39.58.58,0,0,0-.59.45,1.85,1.85,0,0,0,0,.81c.08.32.15.64.22,1a1.48,1.48,0,0,0,.25.64.53.53,0,0,0,.61.19c.29-.14.29-.54.25-.86a3.56,3.56,0,0,0,1.14.34,9.14,9.14,0,0,0,.72,2.12,8.84,8.84,0,0,0,.74,1.31l-.69,1.12a1.91,1.91,0,0,0-.32-.51.61.61,0,0,0-.54-.17.6.6,0,0,0-.34.67,1.84,1.84,0,0,0,.39.71l.61.78a1.71,1.71,0,0,0,.5.47.54.54,0,0,0,.64-.09c.2-.25,0-.62-.14-.89a4.55,4.55,0,0,0,1.45-.25,10.78,10.78,0,0,0,2.71,1.88c0,.57.07,1.15.1,1.72a1.83,1.83,0,0,0-.54-.23.56.56,0,0,0-.54.18.59.59,0,0,0,.11.74,1.71,1.71,0,0,0,.73.35l1,.28a1.59,1.59,0,0,0,.68.1.54.54,0,0,0,.46-.45c0-.32-.33-.52-.63-.64.11,0,.82-.76,1.18-1.22a10.67,10.67,0,0,0,2,.18c.19.51.39,1,.59,1.54a1.71,1.71,0,0,0-.59-.05.56.56,0,0,0-.46.33.57.57,0,0,0,.33.67,1.64,1.64,0,0,0,.8.11h1a1.68,1.68,0,0,0,.68-.12.52.52,0,0,0,.31-.56c-.08-.31-.47-.4-.79-.42a6.38,6.38,0,0,0,.84-1.83,12.49,12.49,0,0,0,1.6-.53l1,.94a1.55,1.55,0,0,0-.55.22.55.55,0,0,0-.27.49.57.57,0,0,0,.58.46,1.62,1.62,0,0,0,.77-.24l.88-.45a1.63,1.63,0,0,0,.56-.4.53.53,0,0,0,0-.64c-.21-.25-.6-.15-.9,0a5.08,5.08,0,0,0,0-1.55,9.6,9.6,0,0,0,1.93-1.89l1.68.28a1.79,1.79,0,0,0-.35.48.58.58,0,0,0,.06.57.57.57,0,0,0,.74.05,1.63,1.63,0,0,0,.5-.63l.49-.86a1.61,1.61,0,0,0,.24-.65.53.53,0,0,0-.33-.55c-.3-.09-.58.21-.76.47a6.12,6.12,0,0,0-1-1.48,9.48,9.48,0,0,0,.39-1.4l1.71-.81a1.68,1.68,0,0,0,0,.59.56.56,0,0,0,.36.44.59.59,0,0,0,.65-.38A1.66,1.66,0,0,0,413.35,260.12Z" class="cls-45"/><path d="M416.4,44.27c-.09-1-.19-2-.28-3a4.74,4.74,0,0,0-.51-2,1.64,1.64,0,0,0-1.79-.83c-.94.31-1.1,1.54-1.11,2.53,0-.34-3.19-1.49-4.89-2-.11-.52-.23-1-.37-1.55a24.43,24.43,0,0,0-2.64-6c.69-.94,1.38-1.89,2.06-2.84a5.05,5.05,0,0,0,.86,1.6,1.73,1.73,0,0,0,1.62.63,1.79,1.79,0,0,0,1.17-2,5.17,5.17,0,0,0-1-2.25l-1.71-2.51a4.84,4.84,0,0,0-1.43-1.55,1.63,1.63,0,0,0-2,.15c-.67.72-.22,1.88.25,2.74-.13-.24-2.41.08-4.18.43a37.32,37.32,0,0,0-7.05-5.54c.1-1.35.21-2.7.31-4a5.4,5.4,0,0,0,1.57.92,1.78,1.78,0,0,0,1.71-.31,1.78,1.78,0,0,0,0-2.29,5.15,5.15,0,0,0-2.07-1.37L392.1,12a4.61,4.61,0,0,0-2-.58,1.64,1.64,0,0,0-1.6,1.15c-.19,1,.79,1.72,1.64,2.21-.22-.13-1.82,1.17-3.12,2.35a42.69,42.69,0,0,0-7.76-2.32c-.25-1.3-.49-2.6-.73-3.91a5.14,5.14,0,0,0,1.75.49,1.74,1.74,0,0,0,1.57-.74,1.78,1.78,0,0,0-.62-2.21,5.3,5.3,0,0,0-2.35-.79l-3-.49a4.7,4.7,0,0,0-2.11,0,1.63,1.63,0,0,0-1.25,1.53c.06,1,1.21,1.45,2.16,1.7-.29-.07-1.85,2.15-2.82,3.72-.89,0-1.79,0-2.67.1a25,25,0,0,0-4.81.89l-2.62-3.19a5,5,0,0,0,1.77-.42,1.77,1.77,0,0,0,1-1.4,1.79,1.79,0,0,0-1.61-1.64,5.17,5.17,0,0,0-2.44.45l-2.87,1a4.73,4.73,0,0,0-1.86,1,1.63,1.63,0,0,0-.36,1.94c.53.82,1.76.69,2.72.45-.32.08-.63,3.16-.69,5A27.06,27.06,0,0,0,350.26,25l-5.2-.35a5.25,5.25,0,0,0,.9-1.57,1.74,1.74,0,0,0-.32-1.71,1.77,1.77,0,0,0-2.29.05A5.11,5.11,0,0,0,342,23.51l-1.22,2.78a4.84,4.84,0,0,0-.56,2,1.64,1.64,0,0,0,1.17,1.59c1,.19,1.71-.81,2.19-1.66-.15.27,1.73,2.45,3,3.76a24.68,24.68,0,0,0-1.07,4.35c-.11.71-.19,1.41-.24,2.12L341.38,41a5.48,5.48,0,0,0-.2-1.81,1.57,1.57,0,0,0-3.09.21,5.23,5.23,0,0,0,.14,2.48l.66,3a4.73,4.73,0,0,0,.76,2,1.63,1.63,0,0,0,1.88.59c.89-.43.9-1.67.78-2.64,0,.24,1.85.71,3.51,1A28.41,28.41,0,0,0,348,52.32a32,32,0,0,0,2.29,4c-.71,1.14-1.42,2.28-2.14,3.42a4.86,4.86,0,0,0-1-1.55,1.57,1.57,0,0,0-2.69,1.52,5.14,5.14,0,0,0,1.19,2.18l1.87,2.39a4.73,4.73,0,0,0,1.54,1.45,1.62,1.62,0,0,0,1.95-.27c.62-.77.1-1.89-.43-2.72.16.24,2.68-.3,4.45-.79a33.42,33.42,0,0,0,8.35,5.78c.1,1.77.2,3.53.31,5.29a5.26,5.26,0,0,0-1.68-.7,1.57,1.57,0,0,0-1.32,2.8A5.09,5.09,0,0,0,363,76.22l2.91.87a4.7,4.7,0,0,0,2.09.29A1.62,1.62,0,0,0,369.4,76c.06-1-1-1.6-1.93-2,.31.13,2.52-2.35,3.6-3.76a32,32,0,0,0,6,.55l1.82,4.74a5.3,5.3,0,0,0-1.81-.16,1.77,1.77,0,0,0-1.42,1,1.79,1.79,0,0,0,1,2.06,5.11,5.11,0,0,0,2.46.35l3,0a4.86,4.86,0,0,0,2.08-.36,1.62,1.62,0,0,0,1-1.72c-.24-1-1.45-1.22-2.43-1.29.42,0,2.44-4.75,2.58-5.62a34,34,0,0,0,4.9-1.64l3.11,2.91a5.4,5.4,0,0,0-1.7.65,1.57,1.57,0,0,0,1,2.94,5.21,5.21,0,0,0,2.36-.76l2.71-1.38a4.82,4.82,0,0,0,1.72-1.22,1.63,1.63,0,0,0,.1-2c-.63-.76-1.83-.46-2.75-.1.29-.11.22-2.95.06-4.78a28.55,28.55,0,0,0,5.92-5.8l5.16.86A5.15,5.15,0,0,0,406.88,61a1.57,1.57,0,0,0,2.44,1.9A5.1,5.1,0,0,0,410.87,61l1.49-2.65a4.85,4.85,0,0,0,.75-2,1.65,1.65,0,0,0-1-1.7c-.94-.28-1.78.64-2.34,1.45.2-.29-1.95-3.27-3.05-4.56a24.62,24.62,0,0,0,1.19-4.29l5.27-2.49a5.31,5.31,0,0,0,0,1.82,1.57,1.57,0,0,0,3.09.18A5.18,5.18,0,0,0,416.4,44.27Zm-58,6.34a4.07,4.07,0,0,1-1.52.88A3.48,3.48,0,0,1,353,49.91a7.44,7.44,0,0,1-1.21-4.41,3.75,3.75,0,0,1,.72-2,3.23,3.23,0,0,1,1.34-1,3.33,3.33,0,0,1,3.66.69,5.54,5.54,0,0,1,1.07,1.57c.15.36.3.72.44,1.08a8,8,0,0,1,.4,2.39A3.41,3.41,0,0,1,358.43,50.61ZM360,33.1a2.43,2.43,0,0,1,.14-2.28,4,4,0,0,1,1.47-1.37,1.66,1.66,0,0,1,2.46,1.42,3.7,3.7,0,0,1-.23,1.71,2.52,2.52,0,0,1-1.94,1.6A1.58,1.58,0,0,1,360,33.1Zm4.34,27.23a2.38,2.38,0,0,1-1.79.24A2.43,2.43,0,0,1,360.92,59a4.37,4.37,0,0,1-.38-1.48c-.12-1.64,1.81-2.43,3.08-1.77a4.89,4.89,0,0,1,1.18,1A2.36,2.36,0,0,1,364.33,60.33Zm3.07-39.39a8.69,8.69,0,0,1,1.83-.67,2.16,2.16,0,1,1,1.14,4.16,3.88,3.88,0,0,1-3-.32,1.92,1.92,0,0,1-.91-1.58A1.89,1.89,0,0,1,367.4,20.94Zm3.82,25.7a2.26,2.26,0,0,1-3.85,0c-.15-.3-.31-.59-.46-.9a4.64,4.64,0,0,1-.4-1.7,5.74,5.74,0,0,1,.17-2.47,2.64,2.64,0,0,1,4.77-.62,5.2,5.2,0,0,1,.68,2.94A5,5,0,0,1,371.22,46.64Zm9.92,14.66a3.39,3.39,0,0,1-2.44,2.82,5.18,5.18,0,0,1-1.48.28,6,6,0,0,1-1.46-.17,4.22,4.22,0,0,1-2.5-1.27,3.44,3.44,0,0,1,.68-5.33,4.32,4.32,0,0,1,2.79-.58,5,5,0,0,1,2.79.86A3.43,3.43,0,0,1,381.14,61.3ZM384.53,49A2.65,2.65,0,0,1,382,50.21a2.59,2.59,0,0,1-2.15-1.85,5.89,5.89,0,0,1,.36-4.49,2.7,2.7,0,0,1,4.62,0A4.66,4.66,0,0,1,384.53,49ZM387,32a3.63,3.63,0,0,1-4,1.62,5.86,5.86,0,0,1-2.08-.79,7.85,7.85,0,0,1-1.75-1.31,3.62,3.62,0,0,1-.73-3.87,3.44,3.44,0,0,1,3.23-2.18,5,5,0,0,1,1.55.31l.68.27a5.53,5.53,0,0,1,1.95,1.1l.59.56A3.63,3.63,0,0,1,387,32Zm10,19.16c-.9,1.23-2.5,2.33-4.08,1.66s-2-2.69-1.64-4.22a5.1,5.1,0,0,1,2.4-3.3,2.8,2.8,0,0,1,4.07,1.65A5.08,5.08,0,0,1,397,51.14Zm3.45-13.28a2.55,2.55,0,0,1-1.79,1.78,2.61,2.61,0,0,1-2.48-.66,3.16,3.16,0,0,1-.28-4.56,2.67,2.67,0,0,1,3.79.16A3.44,3.44,0,0,1,400.44,37.86Z" class="cls-45"/><path d="M415.79,332.6l-3-1.73a6.24,6.24,0,0,0-2.21-.91,1.57,1.57,0,0,0-1.79.94c-.24,1,.81,1.91,1.73,2.55-.32-.22-3.21,1.66-4.62,2.75-.55-.25-1.1-.49-1.66-.7a29.6,29.6,0,0,0-7.08-1.7l-1.5-3.54a6,6,0,0,0,2,.34,1.65,1.65,0,0,0,1.51-.93,2,2,0,0,0-1.17-2.23,6.2,6.2,0,0,0-2.71-.6l-3.32-.22a5,5,0,0,0-2.27.17,1.48,1.48,0,0,0-1,1.71c.29,1,1.63,1.4,2.71,1.57-.31-.05-1.31,2-2,3.72a39,39,0,0,0-9.2,2.2l-3.61-2.87a5.09,5.09,0,0,0,1.75-.69,1.59,1.59,0,0,0,.69-1.61,2.25,2.25,0,0,0-2.16-1.46,5.06,5.06,0,0,0-2.46.81l-2.75,1.46a4.41,4.41,0,0,0-1.69,1.3,1.68,1.68,0,0,0,.16,2.07c.8.78,2.06.46,3,.08-.25.1.05,2.26.42,4.08A38.65,38.65,0,0,0,367,344l-4.08-1.93a4.74,4.74,0,0,0,1.45-1.12,1.68,1.68,0,0,0,.21-1.78,2.2,2.2,0,0,0-2.42-.92,4.76,4.76,0,0,0-2.08,1.42l-2.17,2.15a4.18,4.18,0,0,0-1.23,1.72,1.81,1.81,0,0,0,.72,2c.95.59,2.05,0,2.83-.67-.24.19.95,2.92,1.87,4.73-.51.74-1,1.49-1.42,2.27a21.9,21.9,0,0,0-1.91,4.52l-4.47.09a4.59,4.59,0,0,0,.61-1.73,2,2,0,0,0-.74-1.75,1.92,1.92,0,0,0-2.44.26,4.72,4.72,0,0,0-1,2.3c-.22,1-.45,2-.68,3a4.71,4.71,0,0,0-.12,2.18,2,2,0,0,0,1.61,1.55c1.08.1,1.65-1,2-1.94-.11.31,2.6,2.57,4.27,3.8a29.31,29.31,0,0,0,2.28,10.28l-3.28,4.05a6.17,6.17,0,0,0-1-1.76,2.19,2.19,0,0,0-1.79-.84,1.6,1.6,0,0,0-1.25,1.91,5.9,5.9,0,0,0,1.18,2.46c.63.94,1.27,1.88,1.91,2.81a5.89,5.89,0,0,0,1.59,1.78,1.84,1.84,0,0,0,2.15.07c.72-.68.22-1.93-.31-2.88.17.3,3.28.17,5.24,0a31.73,31.73,0,0,0,3.46,3.7q.9.83,1.86,1.56c0,1.61.06,3.22.1,4.83a6.83,6.83,0,0,0-1.81-1,1.86,1.86,0,0,0-1.84.28,1.83,1.83,0,0,0,.28,2.39,6.64,6.64,0,0,0,2.4,1.5l3.15,1.38a6,6,0,0,0,2.28.65,1.52,1.52,0,0,0,1.62-1.16c.11-1-1-1.82-2-2.36.24.14,1.72-1.05,3-2.2a35.59,35.59,0,0,0,7.35,2.43,38.22,38.22,0,0,0,5.07.73l2,4a6.23,6.23,0,0,0-2-.21,1.62,1.62,0,0,0-1.44,1,2.09,2.09,0,0,0,1.32,2.17,6.2,6.2,0,0,0,2.72.43h3.31a5.15,5.15,0,0,0,2.23-.32,1.47,1.47,0,0,0,.85-1.78c-.36-1-1.71-1.31-2.79-1.41.32,0,1.25-2.4,1.8-4.17a33.91,33.91,0,0,0,10.16-3.11l5.13,3.17a4.83,4.83,0,0,0-1.61.92,1.63,1.63,0,0,0-.44,1.71,2.23,2.23,0,0,0,2.31,1.19,5,5,0,0,0,2.29-1.13l2.47-1.84a4.12,4.12,0,0,0,1.46-1.53,1.73,1.73,0,0,0-.45-2.05c-.89-.69-2.08-.2-2.94.31.29-.17-.77-3.59-1.47-5.4a28.33,28.33,0,0,0,3.94-4.59l5.47,1.58a4.57,4.57,0,0,0-1.18,1.38,1.78,1.78,0,0,0,.14,1.82,2.12,2.12,0,0,0,2.5.51,4.58,4.58,0,0,0,1.73-1.79l1.68-2.54a4.24,4.24,0,0,0,.85-1.94,1.92,1.92,0,0,0-1.07-1.9c-1-.42-2,.41-2.59,1.16.26-.32-3.06-5.09-3.8-5.76a31.29,31.29,0,0,0,1.26-5.09l4.5-.67a4.69,4.69,0,0,0-.36,1.82,2.1,2.1,0,0,0,1,1.67,1.83,1.83,0,0,0,2.34-.57,4.77,4.77,0,0,0,.64-2.43c.09-1,.17-2.08.25-3.12a4.75,4.75,0,0,0-.17-2.21,2.06,2.06,0,0,0-1.78-1.37c-1.07,0-1.48,1.22-1.66,2.2.06-.3-2.64-2.09-4.45-3.14a30.74,30.74,0,0,0-2.05-8.63l3.74-3.69a5.92,5.92,0,0,0,.78,1.83,2.27,2.27,0,0,0,1.71,1,1.62,1.62,0,0,0,1.46-1.77,5.78,5.78,0,0,0-.93-2.53c-.55-1-1.09-2-1.63-2.94a6.06,6.06,0,0,0-1.43-1.9,1.89,1.89,0,0,0-2.16-.27c-.8.6-.42,1.88,0,2.86-.15-.35-4.17-.51-6-.44a32.29,32.29,0,0,0-3.34-3.77c.22-2,.45-4,.67-5.94a6.42,6.42,0,0,0,1.69,1.2,1.92,1.92,0,0,0,1.88,0,1.75,1.75,0,0,0,0-2.37A6.72,6.72,0,0,0,415.79,332.6Zm-27.07,51.77a3.86,3.86,0,0,1,0,1.82,3.31,3.31,0,0,1-3.69,2.17,9.19,9.19,0,0,1-4.82-1.86,4.7,4.7,0,0,1-1.49-1.9,3.32,3.32,0,0,1-.2-1.78,3.05,3.05,0,0,1,2.73-2.56,6.66,6.66,0,0,1,2.08.14l1.26.34A10.26,10.26,0,0,1,387,382,4.18,4.18,0,0,1,388.72,384.37Zm-15.51-12.63a3.12,3.12,0,0,1-2-1.6,4.29,4.29,0,0,1-.45-2.09c.06-1.38,1.52-1.79,2.73-1.11a4.86,4.86,0,0,1,1.48,1.3,2.65,2.65,0,0,1,.39,2.63A1.57,1.57,0,0,1,373.21,371.74Zm28,14.09a2.17,2.17,0,0,1-.79,1.62,2.58,2.58,0,0,1-2.44.28,5.24,5.24,0,0,1-1.6-.65,2.08,2.08,0,0,1,.1-3.68,5,5,0,0,1,1.59-.32A2.9,2.9,0,0,1,401.18,385.83Zm-35.13-28.06a8.06,8.06,0,0,1,.41-1.95c.22-1.21,1.79-1.59,2.92-1.2s2.1,1.92,1.63,3-.92,2-2,2.24a2.26,2.26,0,0,1-2-.28A2.22,2.22,0,0,1,366.05,357.77Zm26.23,13.51a2.11,2.11,0,0,1-2.19,3.16c-.37-.06-.73-.12-1.1-.2a6,6,0,0,1-1.82-.77,7.35,7.35,0,0,1-2.21-1.74c-1.55-2-.43-4.61,2.13-4.32a6.56,6.56,0,0,1,3.14,1.34A6.33,6.33,0,0,1,392.28,371.28Zm19.38,1.35a3.78,3.78,0,0,1,1.26,3.84,5.5,5.5,0,0,1-.59,1.4,6.38,6.38,0,0,1-1,1.09,4.14,4.14,0,0,1-2.61,1.23,4.29,4.29,0,0,1-3.21-1.08,4.07,4.07,0,0,1-1.4-2.94,3.92,3.92,0,0,1,1.05-2.67,5.69,5.69,0,0,1,1-1.05,5.77,5.77,0,0,1,1.36-.68A4.1,4.1,0,0,1,411.66,372.63Zm-9.61-10.77a2.54,2.54,0,0,1-.31,2.91,2.72,2.72,0,0,1-2.95.57,7.58,7.58,0,0,1-4-3.21,2.54,2.54,0,0,1,2.63-3.8A5.92,5.92,0,0,1,402.05,361.86Zm-14.5-13.07a3.46,3.46,0,0,1-.75,4.34,5.52,5.52,0,0,1-1.92,1.2,8.26,8.26,0,0,1-2.23.59,4.6,4.6,0,0,1-4-1.91,3.86,3.86,0,0,1-.76-2.29,3.06,3.06,0,0,1,.56-1.78,4.53,4.53,0,0,1,1.16-1.07l.65-.39a5.35,5.35,0,0,1,2.14-.89l.86-.13A4.57,4.57,0,0,1,387.55,348.79ZM411.17,353c.65,1.54.76,3.57-.77,4.44s-3.66-.1-4.88-1.39a5.86,5.86,0,0,1-1.73-4.12,2.71,2.71,0,0,1,3.87-2.27A6.46,6.46,0,0,1,411.17,353ZM400.7,341.57a2.73,2.73,0,0,1,.65,2.62,2.41,2.41,0,0,1-2,1.62,4,4,0,0,1-4.43-2.73,2.45,2.45,0,0,1,2.31-3A4.36,4.36,0,0,1,400.7,341.57Z" class="cls-45"/><path d="M76.55,8.83,74.89,7.15a4.13,4.13,0,0,0-1.3-1,1.14,1.14,0,0,0-1.4.34c-.36.61.16,1.42.64,2-.16-.2-2.5.59-3.67,1.09-.32-.26-.65-.52-1-.76a20,20,0,0,0-4.43-2.35c-.09-.88-.18-1.76-.28-2.64a4.48,4.48,0,0,0,1.27.56A1.25,1.25,0,0,0,66,4a1.38,1.38,0,0,0-.34-1.71,4.11,4.11,0,0,0-1.7-.87L61.73.75A3.61,3.61,0,0,0,60.16.49a1.09,1.09,0,0,0-1,1c0,.74.81,1.22,1.5,1.52-.19-.08-1.3,1.16-2.1,2.18a27.38,27.38,0,0,0-6.65,0c-.61-.86-1.23-1.71-1.84-2.56a3.87,3.87,0,0,0,1.32-.17,1.21,1.21,0,0,0,.8-1A1.48,1.48,0,0,0,51,.07,3.8,3.8,0,0,0,49.19.2L47,.73a3.18,3.18,0,0,0-1.41.6,1.18,1.18,0,0,0-.31,1.42c.37.67,1.29.66,2,.56a8.3,8.3,0,0,0-.56,2.84,28.77,28.77,0,0,0-5.45,2.2c-.78-.67-1.56-1.34-2.35-2a3.37,3.37,0,0,0,1.21-.52,1.24,1.24,0,0,0,.51-1.17,1.47,1.47,0,0,0-1.45-1,3.57,3.57,0,0,0-1.69.61l-1.9,1.09a3,3,0,0,0-1.18,1,1.25,1.25,0,0,0,.06,1.48c.53.56,1.4.32,2,0-.2.09,0,2.14.29,3.52-.49.41-1,.84-1.42,1.29a16.54,16.54,0,0,0-2.22,2.74l-3-.69A3.37,3.37,0,0,0,31,13.59a1.34,1.34,0,0,0-.13-1.31,1.34,1.34,0,0,0-1.7-.23A3.37,3.37,0,0,0,28,13.44l-1.08,1.92a3.45,3.45,0,0,0-.54,1.45,1.35,1.35,0,0,0,.77,1.33c.71.25,1.32-.4,1.73-1-.14.19,1.23,2.18,2.1,3.29a20.32,20.32,0,0,0-.58,7.35l-3,2.19a4,4,0,0,0-.28-1.36,1.47,1.47,0,0,0-1-.87,1.22,1.22,0,0,0-1.24,1.09,4.1,4.1,0,0,0,.29,1.87c.24.74.47,1.48.71,2.22a3.79,3.79,0,0,0,.71,1.47,1.24,1.24,0,0,0,1.43.41c.63-.33.55-1.27.39-2,.05.23,2.17.67,3.54.86a20.41,20.41,0,0,0,1.57,3.09c.29.47.6.93.93,1.37l-.93,3.29a4.08,4.08,0,0,0-1-1A1.11,1.11,0,0,0,30.83,42a4.33,4.33,0,0,0,1.31,1.42L34,44.88a3.91,3.91,0,0,0,1.4.82,1.12,1.12,0,0,0,1.33-.51c.28-.66-.33-1.41-.88-1.94a6.9,6.9,0,0,0,2.46-1A24.17,24.17,0,0,0,46,46.5l.51,3a3.86,3.86,0,0,0-1.29-.47,1.19,1.19,0,0,0-1.18.45,1.4,1.4,0,0,0,.44,1.69,4,4,0,0,0,1.74.75l2.23.57a3.54,3.54,0,0,0,1.57.16A1.11,1.11,0,0,0,51,51.6c0-.74-.88-1.17-1.59-1.42.21.08,1.34-1.42,2.07-2.52A24.38,24.38,0,0,0,59,47.27l2.81,3a3.64,3.64,0,0,0-1.28.36,1.2,1.2,0,0,0-.65,1.08,1.48,1.48,0,0,0,1.32,1.2,3.64,3.64,0,0,0,1.77-.39l2-.82a3.25,3.25,0,0,0,1.3-.79,1.21,1.21,0,0,0,.12-1.47c-.46-.62-1.36-.49-2-.29.23-.06.22-2.55.11-3.9a22,22,0,0,0,3.61-2.44l3.36,2a3.35,3.35,0,0,0-1.08.74,1.25,1.25,0,0,0-.28,1.25,1.42,1.42,0,0,0,1.58.77,3.59,3.59,0,0,0,1.54-.92l1.65-1.44a3.23,3.23,0,0,0,1-1.17,1.29,1.29,0,0,0-.33-1.47c-.61-.46-1.41-.06-2,.35.25-.17-1-4-1.37-4.54A23.88,23.88,0,0,0,74,35.14l3.17.31a3.47,3.47,0,0,0-.62,1.17,1.38,1.38,0,0,0,.3,1.29,1.3,1.3,0,0,0,1.7,0,3.51,3.51,0,0,0,.93-1.54l.81-2.07a3.49,3.49,0,0,0,.34-1.53,1.34,1.34,0,0,0-.92-1.22c-.73-.16-1.24.57-1.57,1.21.1-.2-1.35-1.86-2.35-2.88a21.35,21.35,0,0,0,.39-6.19l3.27-1.87a4,4,0,0,0,.16,1.37,1.46,1.46,0,0,0,.95,1,1.23,1.23,0,0,0,1.35-1,4.13,4.13,0,0,0-.11-1.87l-.5-2.27a3.89,3.89,0,0,0-.57-1.52,1.28,1.28,0,0,0-1.4-.55c-.66.27-.67,1.2-.58,1.94,0-.26-2.7-1.05-4-1.31a20.41,20.41,0,0,0-1.48-3.12c.56-1.3,1.12-2.6,1.67-3.9a4.51,4.51,0,0,0,.9,1.09,1.32,1.32,0,0,0,1.28.29,1.27,1.27,0,0,0,.51-1.6A4.34,4.34,0,0,0,76.55,8.83ZM47.66,39.32a2.75,2.75,0,0,1-.4,1.23,2.44,2.44,0,0,1-2.94.85,6.1,6.1,0,0,1-2.86-2.07,3.06,3.06,0,0,1-.61-1.55,2.33,2.33,0,0,1,.22-1.23,2.27,2.27,0,0,1,2.37-1.27,4,4,0,0,1,1.38.44l.77.44A7,7,0,0,1,47,37.4,2.79,2.79,0,0,1,47.66,39.32ZM39.8,28.15a2,2,0,0,1-1-1.43,3,3,0,0,1,.13-1.49A1.2,1.2,0,0,1,41,24.94a3.07,3.07,0,0,1,.72,1.13,1.85,1.85,0,0,1-.28,1.85A1.13,1.13,0,0,1,39.8,28.15Zm16,14.27a1.62,1.62,0,0,1-.87,1,1.8,1.8,0,0,1-1.7-.22,3.38,3.38,0,0,1-.94-.71A1.48,1.48,0,0,1,53.07,40a3.64,3.64,0,0,1,1.14,0A1.92,1.92,0,0,1,55.76,42.42ZM37.85,17.48a5.81,5.81,0,0,1,.68-1.25,1.54,1.54,0,0,1,2.21-.32,1.69,1.69,0,0,1,.49,2.27,2.62,2.62,0,0,1-1.8,1.19,1.54,1.54,0,0,1-1.29-.53A1.51,1.51,0,0,1,37.85,17.48Zm14.9,13.58a1.55,1.55,0,0,1-2.12,1.77c-.24-.1-.47-.2-.7-.32a3.8,3.8,0,0,1-1.07-.83,4.66,4.66,0,0,1-1.13-1.55,1.85,1.85,0,0,1,2.32-2.57A4.18,4.18,0,0,1,51.89,29,4.09,4.09,0,0,1,52.75,31.06Zm12.79,4.19a2.6,2.6,0,0,1,.06,2.81,4.22,4.22,0,0,1-.69.85,4.51,4.51,0,0,1-.89.57,3,3,0,0,1-2,.39,2.86,2.86,0,0,1-1.94-1.27,2.72,2.72,0,0,1-.34-2.23A2.92,2.92,0,0,1,61,34.74a4.2,4.2,0,0,1,.91-.54A4.47,4.47,0,0,1,63,34,2.73,2.73,0,0,1,65.54,35.25Zm-4.26-8.92a1.87,1.87,0,0,1-.81,1.92,1.9,1.9,0,0,1-2.1-.12,4.87,4.87,0,0,1-2-2.85,1.87,1.87,0,0,1,2.55-2.12A3.88,3.88,0,0,1,61.28,26.33ZM54.19,15a2.54,2.54,0,0,1-1.4,2.81,4.08,4.08,0,0,1-1.54.48,5.94,5.94,0,0,1-1.63,0,3,3,0,0,1-2.33-2,2.76,2.76,0,0,1,0-1.68A2.37,2.37,0,0,1,48,13.58a3.56,3.56,0,0,1,1-.53l.52-.15a3.85,3.85,0,0,1,1.62-.24l.61.06A3,3,0,0,1,54.19,15Zm15,6.84c.12,1.15-.22,2.55-1.43,2.88s-2.45-.69-3-1.77a4,4,0,0,1-.31-3.08A2,2,0,0,1,67.56,19,4.17,4.17,0,0,1,69.24,21.87Zm-4.7-9.52a1.92,1.92,0,0,1-.1,1.89,1.8,1.8,0,0,1-1.7.75,2.59,2.59,0,0,1-2.43-2.59,1.83,1.83,0,0,1,2.18-1.66A2.88,2.88,0,0,1,64.54,12.35Z" class="cls-45"/><path d="M78,416.58c.91.4,2,1.06,1.9,2.05A1.63,1.63,0,0,1,78.39,420a4.86,4.86,0,0,1-2.12-.35l-2.94-1a5.24,5.24,0,0,1-2.24-1.17,1.6,1.6,0,0,1,1.42-2.81,5.31,5.31,0,0,1,1.68.76L74,409.1l5.59,2c.93.32,1.88.58,2.8.88C82.26,412.45,78.38,416.76,78,416.58Z" class="cls-2"/><path d="M98.62,416.59c1-.21,2.24-.3,2.75.56a1.68,1.68,0,0,1-.44,2,5,5,0,0,1-1.94.94L96,421a5.4,5.4,0,0,1-2.5.35A1.82,1.82,0,0,1,92,419.6a1.76,1.76,0,0,1,1.1-1.39,5.26,5.26,0,0,1,1.81-.36L91,412.8l5.7-1.64c.94-.27,1.86-.61,2.79-.9C99.72,410.74,99.06,416.49,98.62,416.59Z" class="cls-2"/><path d="M112.34,409.06c.87-.49,2-1,2.79-.29a1.68,1.68,0,0,1,.17,2,4.91,4.91,0,0,1-1.56,1.48L111.2,414a5.15,5.15,0,0,1-2.27,1.09,1.6,1.6,0,0,1-1.4-2.82,5.23,5.23,0,0,1,1.62-.89L104,407.75l4.93-3.29c.81-.54,1.59-1.15,2.39-1.7C111.62,403.16,112.73,408.84,112.34,409.06Z" class="cls-2"/><path d="M120.67,395.9c.57-.83,1.42-1.76,2.38-1.48a1.65,1.65,0,0,1,1,1.72,4.83,4.83,0,0,1-.75,2c-.51.9-1,1.8-1.51,2.7a5.3,5.3,0,0,1-1.57,2,1.82,1.82,0,0,1-2.33-.17,1.78,1.78,0,0,1-.16-1.76,5.26,5.26,0,0,1,1.07-1.51l-6.26-1,3-5.11c.49-.84.93-1.73,1.4-2.57C117.44,390.9,120.93,395.53,120.67,395.9Z" class="cls-2"/><path d="M124.17,377.44c0-1,.21-2.25,1.16-2.55a1.65,1.65,0,0,1,1.81.86,4.87,4.87,0,0,1,.49,2.1l.24,3.08a5.22,5.22,0,0,1-.21,2.52,1.6,1.6,0,0,1-3.14-.23,5.49,5.49,0,0,1,.06-1.85L118.8,384l-.34-5.92c0-1-.18-1.95-.26-2.92C118.71,375.08,124.18,377,124.17,377.44Z" class="cls-2"/><path d="M118.06,362.93c-.55-.83-1.11-2-.5-2.76a1.68,1.68,0,0,1,2-.32,5,5,0,0,1,1.59,1.45l2,2.39a5.32,5.32,0,0,1,1.26,2.19,1.8,1.8,0,0,1-1,2.1,1.77,1.77,0,0,1-1.7-.5,5.14,5.14,0,0,1-1-1.54l-3.26,5.44-3.64-4.67c-.6-.78-1.27-1.51-1.88-2.26C112.23,364.09,117.81,362.56,118.06,362.93Z" class="cls-2"/><path d="M95.12,412.88a33.85,33.85,0,0,1-25.27-3.64,27.87,27.87,0,0,1-11.13-12.07c-5.12-10.9-2.06-24.66,7.39-32.16,10.57-8.4,27.4-11.15,39.39-5.86a25.13,25.13,0,0,1,6.12,3.8c4.59,3.9,7.67,9.65,8.12,17.5C120.6,395.16,109.17,409.31,95.12,412.88Z" class="cls-2"/><path d="M95.12,412.88a33.85,33.85,0,0,1-25.27-3.64,35.36,35.36,0,0,0,4.74,1.3,32.42,32.42,0,0,0,26.73-7.08A33.75,33.75,0,0,0,113,378.31a28.1,28.1,0,0,0-4.91-16.51c-.43-.59-1.53-1.6-2.57-2.65a25.13,25.13,0,0,1,6.12,3.8c4.59,3.9,7.67,9.65,8.12,17.5C120.6,395.16,109.17,409.31,95.12,412.88Z" class="cls-3"/><path d="M66,383.81a7,7,0,0,0-.81-3.43,2.66,2.66,0,0,0-3.55-.91,4.36,4.36,0,0,0-1.79,2.71,6,6,0,0,0,1.68,5.92,2.72,2.72,0,0,0,4-.84A6.86,6.86,0,0,0,66,383.81Z" class="cls-4"/><path d="M72.92,369a2.42,2.42,0,0,0-3.53-1.43c-2,1.14-3.34,4.26-1.76,6.3a2.34,2.34,0,0,0,.56.53l.14.11a2.53,2.53,0,0,0,3.25-.19,4.7,4.7,0,0,0,1.34-2.47A6.84,6.84,0,0,0,72.92,369Z" class="cls-4"/><path d="M74.81,379.64a2.64,2.64,0,0,0-2.56-.68,3.86,3.86,0,0,0-2,1.52,3.27,3.27,0,0,0-.54,2,3.5,3.5,0,0,0,.88,2.17,2.89,2.89,0,0,0,.83,1,2.57,2.57,0,0,0,2,.54,2,2,0,0,0,1-.32,2.74,2.74,0,0,0,1-1A4,4,0,0,0,74.81,379.64Z" class="cls-4"/><path d="M89.28,375.67a2.78,2.78,0,0,0-3.77-1A5.46,5.46,0,0,0,83,379.47c0,1.87.59,4.54,2.61,5.19a3.26,3.26,0,0,0,3.8-1.6C90.77,381,90.37,377.84,89.28,375.67Z" class="cls-4"/><path d="M84.32,362.77a3.18,3.18,0,0,0-3.86,3.33,2.91,2.91,0,0,0,1.44,2.45,2.05,2.05,0,0,0,.38.16,1.86,1.86,0,0,0,.49.29,2.34,2.34,0,0,0,2.54-.48,3.43,3.43,0,0,0,1.15-2.7A3.2,3.2,0,0,0,84.32,362.77Z" class="cls-4"/><path d="M104,370.84a3.59,3.59,0,0,0-5.25.13,6.07,6.07,0,0,0-1.64,4.82c.16,1.75.67,4,2.22,5a3.84,3.84,0,0,0,4.71-.47,6.38,6.38,0,0,0,1.58-4.61A6.86,6.86,0,0,0,104,370.84Z" class="cls-4"/><path d="M98.2,394.31A3.71,3.71,0,0,0,96.26,392a4,4,0,0,0-3.9-.82c-3.76,1.15-4.2,7.33-.24,8.53C95.08,400.59,99.14,397.54,98.2,394.31Z" class="cls-4"/><path d="M82,400.1a4.52,4.52,0,0,0-5.06-4.79,5.62,5.62,0,0,0-4.33,2.53,4,4,0,0,0,1.07,4.93c2.28,2,6.08,2.37,7.88-.51A3.11,3.11,0,0,0,82,400.1Z" class="cls-4"/><path d="M68.7,395.3a2.4,2.4,0,0,0-.32-1.2,3.15,3.15,0,0,0-.95-.94,2.67,2.67,0,0,0-1.32-.36,2.83,2.83,0,0,0-2,.78l-.08.08a3.51,3.51,0,0,0-.4.53,3.33,3.33,0,0,0-.27.61l0,.11a2.76,2.76,0,0,0,.68,2.53,3.29,3.29,0,0,0,.59.47,3.8,3.8,0,0,0,.63.26l.12,0a2.76,2.76,0,0,0,1.34,0,4.66,4.66,0,0,0,.61-.26l.1-.06a2.81,2.81,0,0,0,.87-.88,2.34,2.34,0,0,0,.32-.94,2.45,2.45,0,0,0,0-.27Z" class="cls-4"/><path d="M107.14,386.39a2.32,2.32,0,0,0-1.11-1.47,2.47,2.47,0,0,0-1.9-.23,2.56,2.56,0,0,0-1.47,1.11,2.34,2.34,0,0,0,0,2.33,2.36,2.36,0,0,0,1.56,1.08,2.2,2.2,0,0,0,.68.11,2.39,2.39,0,0,0,1.64-.68,2.18,2.18,0,0,0,.59-1A2.33,2.33,0,0,0,107.14,386.39Z" class="cls-4"/><path d="M85.66,391.08a2.52,2.52,0,0,0-1.74-1.74,3,3,0,0,0-1.67,0,2.71,2.71,0,0,0-1.13.64l-.35.45-.12.28a2.19,2.19,0,0,0-.12.33,2.28,2.28,0,0,0,.2,1.57,4.23,4.23,0,0,0,.33.41h0c.14.12.11.15.23.25a2.5,2.5,0,0,0,.22.24,2.41,2.41,0,0,0,1.1.64,2.49,2.49,0,0,0,3.06-3.06Z" class="cls-4"/><path d="M104,364.85a2.34,2.34,0,0,0-.9-1.78,2.13,2.13,0,0,0-1.39-.46,5.57,5.57,0,0,0-1.42-.26,2.59,2.59,0,0,0-2.4,1.61,2.64,2.64,0,0,0,.54,2.87,3.26,3.26,0,0,0,1.49.89,2.12,2.12,0,0,0,.36.21,3.79,3.79,0,0,1,.34.2,2.33,2.33,0,0,0,2.39,0,2.41,2.41,0,0,0,1.17-2A3.45,3.45,0,0,0,104,364.85Z" class="cls-4"/><path d="M84.15,353.64c-1,.07-2.25,0-2.64-.93a1.65,1.65,0,0,1,.7-1.88,4.82,4.82,0,0,1,2.05-.67l3-.51a5.24,5.24,0,0,1,2.52,0,1.6,1.6,0,0,1,0,3.15,5.41,5.41,0,0,1-1.84.11q1.54,2.76,3.11,5.52l-5.86.85c-1,.15-1.93.36-2.89.52C82.28,359.29,83.71,353.67,84.15,353.64Z" class="cls-2"/><path d="M68.58,358.67c-.94.33-2.18.57-2.79-.22a1.67,1.67,0,0,1,.19-2,5,5,0,0,1,1.8-1.17L70.6,354a5.16,5.16,0,0,1,2.43-.67,1.83,1.83,0,0,1,1.78,1.51,1.79,1.79,0,0,1-.92,1.52,5.25,5.25,0,0,1-1.75.59l4.44,4.52-5.44,2.35c-.9.38-1.78.84-2.66,1.24C68.23,364.61,68.16,358.81,68.58,358.67Z" class="cls-2"/><path d="M56.25,370.5c-.67.74-1.63,1.55-2.55,1.15a1.66,1.66,0,0,1-.8-1.84,4.93,4.93,0,0,1,1-1.9c.62-.82,1.23-1.65,1.85-2.48a5.22,5.22,0,0,1,1.81-1.75,1.8,1.8,0,0,1,2.28.46,1.78,1.78,0,0,1-.06,1.77,5.27,5.27,0,0,1-1.26,1.36l6.07,1.83L61,373.77c-.6.78-1.15,1.6-1.73,2.37C58.8,375.87,56,370.83,56.25,370.5Z" class="cls-2"/><path d="M52.48,391.41c.08,1,0,2.26-.9,2.66a1.66,1.66,0,0,1-1.89-.69,4.9,4.9,0,0,1-.69-2l-.54-3.05a5.25,5.25,0,0,1,0-2.52,1.81,1.81,0,0,1,1.91-1.34,1.79,1.79,0,0,1,1.24,1.26,5.16,5.16,0,0,1,.13,1.84l5.49-3.17c.3,1.95.61,3.9.91,5.85.15,1,.38,1.93.55,2.88C58.15,393.23,52.52,391.86,52.48,391.41Z" class="cls-2"/><path d="M60.75,406.07c.66.76,1.35,1.81.84,2.68a1.67,1.67,0,0,1-1.93.56,5,5,0,0,1-1.76-1.23l-2.23-2.14a5.19,5.19,0,0,1-1.52-2,1.81,1.81,0,0,1,.74-2.21,1.78,1.78,0,0,1,1.75.28,5.22,5.22,0,0,1,1.19,1.41l2.55-5.8,4.2,4.18c.69.69,1.44,1.33,2.14,2C66.4,404.19,61,406.41,60.75,406.07Z" class="cls-2"/><path d="M102.45,354.44c-.89-.46-1.92-1.18-1.77-2.17a1.66,1.66,0,0,1,1.58-1.24,4.83,4.83,0,0,1,2.09.5l2.87,1.15a5.31,5.31,0,0,1,2.16,1.31,1.82,1.82,0,0,1,.13,2.33,1.77,1.77,0,0,1-1.73.38,5,5,0,0,1-1.63-.87c-.08,2.11-.15,4.23-.23,6.34l-5.44-2.33c-.9-.38-1.84-.7-2.73-1.07C97.9,358.28,102.05,354.24,102.45,354.44Z" class="cls-2"/><g class="cls-5"><path d="M81.84,366.39c-1.55-3-4.38-2.9-7-1.43a28.74,28.74,0,0,0-13.3,15.69c-1.2,3.67-1.19,8.41,2.78,10.36,3.75,1.84,7.64-1.05,10.06-3.74a39.87,39.87,0,0,0,5.87-9.06C81.88,374.78,83.74,370.09,81.84,366.39Z" class="cls-6"/><path d="M109.58,366.44c-1.1-1.55-3.67-2-4.68,0a11,11,0,0,0-1,4.61,28.09,28.09,0,0,0-.2,4.3,3.29,3.29,0,0,0,2.34,3.07,3.2,3.2,0,0,0,3.6-1.46C110.92,374,111.56,369.22,109.58,366.44Z" class="cls-6"/><path d="M104.93,389.25a2.43,2.43,0,0,0-3.61-2.08c-1.85,1.2-3,2.83-4.64,4.28S93.59,394,92,395.57A3.27,3.27,0,0,0,95.2,401a12,12,0,0,0,6.76-4.6C103.61,394.28,105.11,392.05,104.93,389.25Z" class="cls-6"/></g><path d="M140.8,376.12c-2.94-23-21.5-41.82-45.75-42.74-22.62-.85-46.74,12.28-55.88,33.45a44.93,44.93,0,0,0-3.55,14.1c-1.14,13.72,4.1,27.69,13.21,37.88,9.35,10.46,23.13,16.33,37.06,16.81,26.89.92,52.08-20.78,55-47.56A51.19,51.19,0,0,0,140.8,376.12Zm-78,42.76c-9.51-6.4-15.74-17-17.64-28.18a39.63,39.63,0,0,1,7.75-30.2c.37-.5.76-1,1.16-1.45.83.89,1.67,1.78,2.53,2.65q4.13,4.16,8.2,8.33,8.34,8.52,16.65,17.07c10.24,10.54,20.25,21.29,30.37,31.95a46,46,0,0,1-16.24,6.31A44.41,44.41,0,0,1,62.81,418.88ZM121.3,411a41.7,41.7,0,0,1-3.86,3.89c-10-11.25-20.35-22.11-30.84-32.88q-8.16-8.37-16.52-16.53-4.36-4.24-8.76-8.44c-.89-.85-1.81-1.68-2.73-2.5A43.62,43.62,0,0,1,82,344.72c11.8-1.4,24.17.65,34.39,6.87C136.89,364.1,136.15,393.86,121.3,411Z" class="cls-7"/><path d="M352.18,204.23c.89.38,1.93,1,1.85,2a1.6,1.6,0,0,1-1.45,1.3,4.55,4.55,0,0,1-2.05-.34l-2.85-.93a5.13,5.13,0,0,1-2.17-1.13,1.55,1.55,0,0,1,1.37-2.73,5.22,5.22,0,0,1,1.63.74c-.06-2.05-.13-4.1-.19-6.14l5.42,1.9c.89.31,1.82.56,2.71.85C356.33,200.22,352.58,204.4,352.18,204.23Z" class="cls-2"/><path d="M372.19,204.23c.95-.2,2.17-.29,2.66.55a1.61,1.61,0,0,1-.42,1.9,4.75,4.75,0,0,1-1.88.9l-2.86.89a5.07,5.07,0,0,1-2.42.35,1.78,1.78,0,0,1-1.53-1.67,1.74,1.74,0,0,1,1.07-1.35,5.19,5.19,0,0,1,1.75-.35l-3.71-4.89,5.52-1.59c.91-.27,1.81-.6,2.7-.88C373.26,198.56,372.62,204.14,372.19,204.23Z" class="cls-2"/><path d="M385.49,196.93c.85-.47,2-.93,2.7-.28a1.62,1.62,0,0,1,.17,1.94,5,5,0,0,1-1.51,1.44l-2.46,1.71a5.15,5.15,0,0,1-2.21,1.06,1.55,1.55,0,0,1-1.35-2.74,5.33,5.33,0,0,1,1.57-.86l-5-3.54,4.78-3.19c.79-.52,1.54-1.11,2.31-1.65C384.79,191.21,385.87,196.72,385.49,196.93Z" class="cls-2"/><path d="M393.57,184.17c.55-.79,1.37-1.7,2.31-1.43a1.61,1.61,0,0,1,1,1.67,4.68,4.68,0,0,1-.73,2L394.68,189a5.13,5.13,0,0,1-1.52,1.92,1.77,1.77,0,0,1-2.26-.17,1.71,1.71,0,0,1-.15-1.71,5.24,5.24,0,0,1,1-1.46l-6.07-1,2.91-4.95c.48-.82.9-1.68,1.36-2.5C390.44,179.33,393.81,183.82,393.57,184.17Z" class="cls-2"/><path d="M397,166.28c0-1,.2-2.17,1.12-2.47a1.61,1.61,0,0,1,1.76.84,4.66,4.66,0,0,1,.47,2l.24,3a5.26,5.26,0,0,1-.2,2.44,1.55,1.55,0,0,1-3.05-.22,5.14,5.14,0,0,1,.05-1.79l-5.59,2.55-.33-5.74c-.06-.94-.18-1.89-.26-2.83C391.67,164,397,165.85,397,166.28Z" class="cls-2"/><path d="M391,152.22c-.54-.81-1.08-1.91-.48-2.67a1.61,1.61,0,0,1,1.92-.32,4.71,4.71,0,0,1,1.54,1.41l1.89,2.32a5.1,5.1,0,0,1,1.22,2.12,1.75,1.75,0,0,1-1,2,1.72,1.72,0,0,1-1.65-.48,5,5,0,0,1-1-1.5l-3.16,5.27-3.53-4.52c-.59-.75-1.23-1.46-1.82-2.19C385.38,153.34,390.8,151.86,391,152.22Z" class="cls-2"/><path d="M368.8,200.63a32.82,32.82,0,0,1-24.5-3.52,27,27,0,0,1-10.78-11.71,26.22,26.22,0,0,1,7.16-31.17c10.24-8.14,26.55-10.8,38.18-5.67a23.83,23.83,0,0,1,5.94,3.68c4.44,3.78,7.43,9.35,7.87,17C393.5,183.46,382.41,197.18,368.8,200.63Z" class="cls-2"/><path d="M368.8,200.63a32.82,32.82,0,0,1-24.5-3.52,32.88,32.88,0,0,0,4.6,1.25,31.4,31.4,0,0,0,25.91-6.85,32.72,32.72,0,0,0,11.3-24.38,27.21,27.21,0,0,0-4.76-16,33.68,33.68,0,0,0-2.49-2.56,23.83,23.83,0,0,1,5.94,3.68c4.44,3.78,7.43,9.35,7.87,17C393.5,183.46,382.41,197.18,368.8,200.63Z" class="cls-3"/><path d="M340.53,172.46a6.85,6.85,0,0,0-.8-3.33,2.57,2.57,0,0,0-3.43-.88,4.25,4.25,0,0,0-1.74,2.62,5.84,5.84,0,0,0,1.63,5.75,2.66,2.66,0,0,0,3.86-.82A6.77,6.77,0,0,0,340.53,172.46Z" class="cls-4"/><path d="M347.28,158.1a2.36,2.36,0,0,0-3.43-1.39c-2,1.11-3.23,4.13-1.7,6.11a2,2,0,0,0,.55.51.69.69,0,0,0,.13.11,2.44,2.44,0,0,0,3.15-.19,4.44,4.44,0,0,0,1.3-2.39A6.42,6.42,0,0,0,347.28,158.1Z" class="cls-4"/><path d="M349.12,168.41a2.59,2.59,0,0,0-2.49-.65,3.85,3.85,0,0,0-1.95,1.46,3.27,3.27,0,0,0-.53,1.92,3.42,3.42,0,0,0,.86,2.1,2.71,2.71,0,0,0,.8,1,2.52,2.52,0,0,0,2,.52,2,2,0,0,0,1-.31,2.79,2.79,0,0,0,.95-1A4,4,0,0,0,349.12,168.41Z" class="cls-4"/><path d="M363.14,164.57a2.69,2.69,0,0,0-3.65-1,5.32,5.32,0,0,0-2.47,4.64c0,1.81.58,4.4,2.53,5a3.15,3.15,0,0,0,3.68-1.55C364.58,169.7,364.19,166.67,363.14,164.57Z" class="cls-4"/><path d="M358.33,152.06a3.08,3.08,0,0,0-3.74,3.23,2.78,2.78,0,0,0,1.4,2.37,1.89,1.89,0,0,0,.36.16,2.53,2.53,0,0,0,.47.28,2.26,2.26,0,0,0,2.47-.47A3.31,3.31,0,0,0,360.4,155,3.09,3.09,0,0,0,358.33,152.06Z" class="cls-4"/><path d="M377.39,159.88a3.49,3.49,0,0,0-5.09.13,5.86,5.86,0,0,0-1.59,4.67c.15,1.7.64,3.9,2.15,4.9a3.73,3.73,0,0,0,4.57-.46,6.12,6.12,0,0,0,1.52-4.47A6.66,6.66,0,0,0,377.39,159.88Z" class="cls-4"/><path d="M371.78,182.64a3.65,3.65,0,0,0-1.88-2.27,3.91,3.91,0,0,0-3.78-.79c-3.64,1.12-4.06,7.11-.23,8.27C368.76,188.72,372.69,185.76,371.78,182.64Z" class="cls-4"/><path d="M356.06,188.25a4.5,4.5,0,0,0-.65-2.61,4.43,4.43,0,0,0-4.25-2,5.47,5.47,0,0,0-4.2,2.45,3.87,3.87,0,0,0,1,4.79c2.21,1.93,5.89,2.29,7.63-.5A3,3,0,0,0,356.06,188.25Z" class="cls-4"/><path d="M343.19,183.6a2.28,2.28,0,0,0-.31-1.17,3.19,3.19,0,0,0-.92-.91,2.65,2.65,0,0,0-1.28-.35,2.72,2.72,0,0,0-1.91.76l-.08.08a3.27,3.27,0,0,0-.39.51,3.91,3.91,0,0,0-.26.59.44.44,0,0,0,0,.1,2.65,2.65,0,0,0,.66,2.46,3.14,3.14,0,0,0,.57.45,3.2,3.2,0,0,0,.6.26l.12,0a2.6,2.6,0,0,0,1.3,0,3.07,3.07,0,0,0,.59-.25.21.21,0,0,0,.1-.06,2.69,2.69,0,0,0,.84-.84,2.23,2.23,0,0,0,.31-.92,2.28,2.28,0,0,0,0-.26Z" class="cls-4"/><path d="M380.45,175a2.18,2.18,0,0,0-1.08-1.42,2.35,2.35,0,0,0-1.83-.23,2.43,2.43,0,0,0-1.43,1.08,2.25,2.25,0,0,0,0,2.26,2.35,2.35,0,0,0,1.51,1,2.39,2.39,0,0,0,.66.1,2.31,2.31,0,0,0,1.59-.66,2.15,2.15,0,0,0,.57-1A2.19,2.19,0,0,0,380.45,175Z" class="cls-4"/><path d="M359.63,179.5a2.45,2.45,0,0,0-1.68-1.68,2.92,2.92,0,0,0-1.63,0,2.69,2.69,0,0,0-1.09.62l-.34.43c0,.1-.08.19-.11.28a1.79,1.79,0,0,0-.13.32,1.48,1.48,0,0,0,0,.78,1.5,1.5,0,0,0,.23.74,3.74,3.74,0,0,0,.32.4h0c.13.11.11.14.23.23a1.59,1.59,0,0,0,.2.24,2.42,2.42,0,0,0,4-2.35Z" class="cls-4"/><path d="M377.4,154.08a2.27,2.27,0,0,0-.88-1.73,2,2,0,0,0-1.34-.45,5.79,5.79,0,0,0-1.38-.25,2.54,2.54,0,0,0-2.33,1.57A2.56,2.56,0,0,0,372,156a3.27,3.27,0,0,0,1.44.86,1.75,1.75,0,0,0,.35.2c.11.07.22.12.33.2a2.28,2.28,0,0,0,2.31,0,2.33,2.33,0,0,0,1.14-2A3.23,3.23,0,0,0,377.4,154.08Z" class="cls-4"/><path d="M358.17,143.21c-1,.07-2.19,0-2.56-.9a1.6,1.6,0,0,1,.68-1.82,4.68,4.68,0,0,1,2-.65l3-.5a5.2,5.2,0,0,1,2.45,0,1.75,1.75,0,0,1,1.28,1.86,1.7,1.7,0,0,1-1.23,1.19,4.9,4.9,0,0,1-1.79.11l3,5.35-5.68.83c-.94.14-1.87.35-2.8.5C356.35,148.69,357.74,143.24,358.17,143.21Z" class="cls-2"/><path d="M343.08,148.09c-.92.31-2.12.55-2.71-.22a1.61,1.61,0,0,1,.18-1.93,4.7,4.7,0,0,1,1.75-1.14l2.73-1.24a5.23,5.23,0,0,1,2.36-.65,1.77,1.77,0,0,1,1.72,1.47,1.74,1.74,0,0,1-.89,1.47,5.25,5.25,0,0,1-1.7.57l4.31,4.38-5.28,2.27c-.87.38-1.72.82-2.57,1.21C342.73,153.84,342.67,148.23,343.08,148.09Z" class="cls-2"/><path d="M331.12,159.55c-.65.72-1.58,1.51-2.47,1.12a1.6,1.6,0,0,1-.78-1.78,4.89,4.89,0,0,1,1-1.84c.6-.8,1.2-1.6,1.79-2.41a5.2,5.2,0,0,1,1.76-1.7,1.76,1.76,0,0,1,2.21.45,1.73,1.73,0,0,1-.06,1.72,4.9,4.9,0,0,1-1.22,1.31l5.89,1.77-3.53,4.54c-.58.75-1.11,1.54-1.67,2.3C333.6,164.76,330.83,159.87,331.12,159.55Z" class="cls-2"/><path d="M327.47,179.83c.08,1,0,2.19-.88,2.57a1.63,1.63,0,0,1-1.83-.66,4.85,4.85,0,0,1-.67-2l-.52-2.95a5,5,0,0,1,0-2.44,1.76,1.76,0,0,1,1.85-1.31,1.72,1.72,0,0,1,1.2,1.23,5.06,5.06,0,0,1,.13,1.78L332,173q.44,2.83.89,5.67c.14.94.36,1.87.53,2.79C333,181.59,327.5,180.26,327.47,179.83Z" class="cls-2"/><path d="M335.48,194c.64.73,1.31,1.75.81,2.59a1.61,1.61,0,0,1-1.86.55,4.83,4.83,0,0,1-1.71-1.2l-2.17-2.07a5.17,5.17,0,0,1-1.47-1.95,1.75,1.75,0,0,1,.72-2.14,1.71,1.71,0,0,1,1.69.27,5,5,0,0,1,1.16,1.37l2.48-5.63,4.06,4c.68.67,1.4,1.3,2.08,1.94C341,192.21,335.77,194.36,335.48,194Z" class="cls-2"/><path d="M375.9,144c-.86-.45-1.86-1.15-1.71-2.11a1.61,1.61,0,0,1,1.53-1.2,4.84,4.84,0,0,1,2,.48l2.78,1.12a5.15,5.15,0,0,1,2.09,1.27,1.76,1.76,0,0,1,.12,2.26,1.73,1.73,0,0,1-1.67.37,5.12,5.12,0,0,1-1.58-.84c-.07,2-.15,4.09-.22,6.14L374,149.22c-.87-.37-1.78-.68-2.65-1C371.49,147.71,375.52,143.79,375.9,144Z" class="cls-2"/><g class="cls-5"><path d="M355.92,155.57c-1.5-2.92-4.24-2.81-6.82-1.38a27.82,27.82,0,0,0-12.9,15.2c-1.17,3.57-1.16,8.15,2.7,10.05,3.63,1.78,7.4-1,9.74-3.63a38.2,38.2,0,0,0,5.69-8.78C356,163.71,357.77,159.16,355.92,155.57Z" class="cls-6"/><path d="M382.81,155.61c-1.07-1.49-3.55-1.89-4.53,0a10.74,10.74,0,0,0-.94,4.47,26.54,26.54,0,0,0-.19,4.18,3.19,3.19,0,0,0,2.26,3,3.1,3.1,0,0,0,3.49-1.41C384.11,163,384.74,158.32,382.81,155.61Z" class="cls-6"/><path d="M378.31,177.73a2.35,2.35,0,0,0-3.5-2c-1.79,1.15-2.93,2.74-4.5,4.14s-3,2.5-4.5,4a3.17,3.17,0,0,0,3.07,5.26,11.56,11.56,0,0,0,6.55-4.46C377,182.6,378.48,180.44,378.31,177.73Z" class="cls-6"/></g><path d="M413.08,165c-2.85-22.3-20.84-40.53-44.35-41.42-21.93-.84-45.31,11.89-54.17,32.42a43.57,43.57,0,0,0-3.44,13.66c-1.1,13.3,4,26.84,12.81,36.72,9.06,10.14,22.42,15.83,35.92,16.29,26.07.9,50.48-20.13,53.32-46.09A49.76,49.76,0,0,0,413.08,165Zm-75.6,41.45c-9.22-6.2-15.26-16.45-17.1-27.31a38.42,38.42,0,0,1,7.51-29.28c.36-.49.74-1,1.12-1.41.81.87,1.62,1.73,2.46,2.58q4,4,7.95,8.07,8.08,8.27,16.14,16.55c9.92,10.22,19.63,20.63,29.43,31a44.38,44.38,0,0,1-15.74,6.12A43,43,0,0,1,337.48,206.45Zm56.7-7.69a40.56,40.56,0,0,1-3.75,3.78c-9.65-10.91-19.72-21.44-29.89-31.88q-7.91-8.11-16-16-4.23-4.11-8.48-8.18c-.87-.83-1.76-1.63-2.65-2.42a42.3,42.3,0,0,1,22.66-9.48c11.44-1.36,23.43.63,33.34,6.67C409.29,153.35,408.57,182.19,394.18,198.76Z" class="cls-7"/></g></g></svg>