<svg xmlns="http://www.w3.org/2000/svg" viewBox="0 0 362.7 393.59"><defs><style>.cls-1{fill:#a8cfe5;}.cls-2{fill:#fff;}.cls-3{fill:#fed2bd;}.cls-19,.cls-24,.cls-4{fill:#00318b;}.cls-5{fill:#cae5e8;}.cls-6{fill:#5790d3;}.cls-7{fill:#cae5f0;}.cls-8{fill:#4577bd;}.cls-9{fill:#f4bba4;}.cls-10{fill:#cae5f5;}.cls-11{fill:#b2cfea;}.cls-12{fill:#9ec0e6;}.cls-13{fill:#86a4d6;}.cls-14{fill:#a8cfea;}.cls-15{fill:#457cc2;}.cls-16{fill:#6b9dd8;}.cls-17{fill:#e6f3f8;}.cls-18{fill:#1c4898;}.cls-19{font-size:14.8px;}.cls-19,.cls-24{font-family:OpenSans-Bold, Open Sans;font-weight:700;}.cls-20{letter-spacing:0.07em;}.cls-21{letter-spacing:0.07em;}.cls-22{letter-spacing:0.07em;}.cls-23{letter-spacing:0.08em;}.cls-24{font-size:10.97px;}</style></defs><g id="Layer_2" data-name="Layer 2"><g id="OBJECTS"><ellipse class="cls-1" cx="184.28" cy="382.71" rx="140.5" ry="10.88"/><path class="cls-2" d="M310.46,158.06c-.27-3.72-.36-7.43-.76-11.14a124.82,124.82,0,0,0-4.24-21.65q-1.4-4.72-3.16-9.32a.36.36,0,0,1,0-.11,31.66,31.66,0,0,0-5.45-12.16s-1.67-.86-4.21-2c-1.06-.69-2.14-1.35-3.25-1.94a52.57,52.57,0,0,0-10.62-4.38.34.34,0,0,0-.43.29l-.79-.49a38.33,38.33,0,0,0,8.12-12.23,29.47,29.47,0,0,0,2.65-14.2c-.45-5.49-2.3-10.94-4-16.14q-1.38-4.14-3-8.18a17.69,17.69,0,0,0-3.36-5.65A10.8,10.8,0,0,0,272,35.35a5.21,5.21,0,0,0-5.23,1.72A7.91,7.91,0,0,0,262,34a17.15,17.15,0,0,0-4.39-.72c-.43-.05-.87-.09-1.34-.11a6,6,0,0,0-4,1.33c-3.47,1.91-5.51,5.73-7,9.29a165.39,165.39,0,0,0-6.52,17.08c-1.68,5.61-3,11.86-1.43,17.65s6.25,9.77,8.62,15.09a50.66,50.66,0,0,1-4.9,2.07,60.26,60.26,0,0,0-8,3.28,21.83,21.83,0,0,0-5.72,4.55c-1.84-6.22-5.85-11.53-10.55-15.93a88.08,88.08,0,0,0-8.89-7.1c-1.45-1-2.88-2.16-4.42-3.06-.87-.51-2.18-1.31-3.27-1.16-.11-.16-.23-.31-.34-.46-.25-.32-.76.09-.56.42l0,.06-.11-.07c-.48-.28-.94-.58-1.39-.89a4.18,4.18,0,0,1-1.85-2.4,12.23,12.23,0,0,1,0-3.82c.09-1.35.2-2.7.17-4.06a13,13,0,0,0,4.22-4.74,20.79,20.79,0,0,0,1.64-5h.28a2.28,2.28,0,0,0,.44,0A5.65,5.65,0,0,0,205.41,54a6,6,0,0,0,.8-.79,6.4,6.4,0,0,0,1.79-3.1,5.16,5.16,0,0,0-3.25-5.86,53.08,53.08,0,0,0,2.52-13c.2-3.87-1.4-8.47-5.67-9.3,0,0,0,0,0,0h0a8.9,8.9,0,0,0-3.41-4.87c-3.46-2.5-8.3-2.93-12.44-2.56a20.3,20.3,0,0,0-11.07,4.26,20.29,20.29,0,0,0-3.87,4.69,3.39,3.39,0,0,0-.63.9c-1.17,1.63-2.36,3-2.78,5.09a21.47,21.47,0,0,0,1.88,13.2,4.94,4.94,0,0,0-3.56,5,5.27,5.27,0,0,0,1.78,3.48,6.15,6.15,0,0,0,1.65,1.07,5.18,5.18,0,0,0,1.33.43,21,21,0,0,0,4.72,10.56c-.08.59-.08,1.19-.15,1.77a22.37,22.37,0,0,1-.43,2.31,14,14,0,0,1-1.46,4.08c-1.14,1.79-3.37,1.67-5.23,2.28a.49.49,0,0,0,0-.12c0-.43-.6-.41-.66,0,0,0,0,.08,0,.13a.38.38,0,0,0-.32,0c-.67.17-1.34.34-2,.53a33.86,33.86,0,0,0-12.81,4.71A20,20,0,0,0,143,88l-.19.39-.15.23c-7.72,13-16.95,42-17.82,44.78a9.16,9.16,0,0,0-1.72.64c-.83.33-1.66.64-2.49,1-1.73.65-3.46,1.26-5.21,1.85q-4.09,1.4-8.22,2.63c0-1.07,0-2.14,0-3.21a44.61,44.61,0,0,0-.56-8.49.42.42,0,0,0-.14-.24.37.37,0,0,0-.26-.47,33.19,33.19,0,0,0-6.38-.85c.06-2.76.11-5.52.17-8.27a.93.93,0,0,0-1.56-.65h0A5.24,5.24,0,0,0,96,117H93.09c-1.54,0-3.08,0-4.62.05.29-5.46.06-11,.06-16.45q0-8.79,0-17.59c0-5.77,0-11.54-.14-17.31s-.14-11.77-.63-17.59a.16.16,0,0,0-.31,0c-.47,5.73-.51,11.55-.63,17.31S86.68,77.14,86.64,83s-.06,11.54-.06,17.31c0,5.56-.23,11.19.06,16.75a55,55,0,0,0-8.71.43.93.93,0,0,0-1.74.42l.18,8.59-1.38.06a9.91,9.91,0,0,0-3.71.62.25.25,0,0,0-.13.25.47.47,0,0,0-.25.31c-1,4.81-.58,10-.62,14.85,0,1,0,1.92,0,2.88l-.12,0A14.58,14.58,0,0,0,68,146a4.79,4.79,0,0,0-1.05.42H66.9a2,2,0,0,0-1.46,2,3.29,3.29,0,0,0,.91,2.36,2.85,2.85,0,0,0,.58.47,2.39,2.39,0,0,0-1.78,1,3,3,0,0,0-.41,2.85,4,4,0,0,0,3.51,2.44,3.58,3.58,0,0,0-1.61,1.51s0,0,0,0A1,1,0,0,0,66,160a2.1,2.1,0,0,0,.67,1.79,2.54,2.54,0,0,0-.28,1.56c.23,1.41,1.47,2.45,2.56,3.25a10.84,10.84,0,0,0,1.35.83q0,10.13,0,20.24,0,29.6.05,59.2c0,11.44-.32,22.95.17,34.38-1.13,0-2.25,0-3.38,0-1.92,0-4.07-.17-5.94.4l0-.07a.26.26,0,0,0-.45,0l-.07.15-.13.12a.2.2,0,0,0,0,.08l-.13,0a.23.23,0,0,0,0,.39,3.41,3.41,0,0,0-.05.46c0,.42,0,.84-.07,1.25s0,.81-.07,1.22a4.66,4.66,0,0,0,.2,1.33l0,.09h0a.24.24,0,0,0,0,.41c2,1,4.57.68,6.79.73,2,0,3.92,0,5.89,0q.87,25.64,1.76,51.29c.43,12.62.52,25.3,1.42,37.9l0,.08c-1.11,0-2.22,0-3.33,0a11.9,11.9,0,0,0-3.9.37.26.26,0,0,0-.43,0l0,.1a.76.76,0,0,0-.24.3l0,.05a2.08,2.08,0,0,0-.13.71c0,.34-.05.68-.07,1s0,.68-.07,1a3,3,0,0,0,.21,1.11.45.45,0,0,0,.06.14.24.24,0,0,0,.1.3c1.2.85,2.86.67,4.28.71,1.75.06,3.51.07,5.27.07H88.47c3.42,0,6.84.06,10.26,0a88.13,88.13,0,0,0,9.61-.52.79.79,0,0,0,.65.34.83.83,0,0,0,.83-.83,18.39,18.39,0,0,0-.11-2c0-.14,0-.28-.06-.41a1.87,1.87,0,0,0-.2-.51c0-.11-.1-.21-.13-.32a3.54,3.54,0,0,1-.07-.47.42.42,0,0,0-.15-.73,62.45,62.45,0,0,0-7.88-.55.45.45,0,0,0,0-.11c.81-11.25.91-22.57,1.29-33.83l1.14-33.17q.38-11.08.76-22.18c4.58,0,9.23-.1,13.8-.53a.75.75,0,0,0,.66.36.83.83,0,0,0,.83-.83c0-.72,0-1.46-.09-2.17l-.06-.51a2.85,2.85,0,0,0-.19-.63,3.16,3.16,0,0,1-.16-.46c0-.19,0-.38-.08-.57,0,0,0,0,0-.07a.41.41,0,0,0-.21-.75c-3.94-.4-8-.51-12-.56.43-10.08.15-20.22.16-30.3l0-30q0-22.32,0-44.62c.22-4.72.23-9.46.1-14.21,6.31-.5,12.61-1.11,18.92-1.72,4.34-.43,8.83-.76,12.68-2.79-.21,3.67-.67,11.64-1.18,21.7-.09,1.35-.18,2.69-.26,4-.89,15-1.55,30-1.79,45-.27,9.89-.41,18.95-.27,25.73.56,28.8,2.51,40,2.51,40l.43,0s0,.05,0,.07a.57.57,0,0,0,.48.53l2.44.35,0,1.15c-.69,22.73-.37,45.49-.36,68.22a.9.9,0,0,0,.89.89h1c-1.44,4-5,6.43-8.34,8.94a12.51,12.51,0,0,0-3.84,4c-.66,1.27-1.35,3.63,0,4.74.78.67,1.92.49,2.87.47l4.42-.11,8.56-.22,8.56-.21c1.74,0,4.86.55,5.77-1.41.51-1.1.16-2.53,0-3.68-.17-1.43-.36-2.87-.6-4.29a73.72,73.72,0,0,0-1.92-8.82l1-.08a.91.91,0,0,0,.87-.66c3.08-21.44,5.55-43.09,6-64.77l.16-1.57,1.16.08c1.29.07,2.78.39,4,0a.6.6,0,0,0,.32-.25.94.94,0,0,0,.6-1.07c-.5-2.43-.91-4.88-1.29-7.33-.32-3.73-.75-8.78-1.24-14.66a.75.75,0,0,0,.08-.18c.73-3.54,1.08-7.17,1.56-10.75s.95-7,1.38-10.46q.93-7.47,1.85-14.95,5.34,42.75,9.8,85.59.66,6.36,1.31,12.73c.25,2.53.48,5.09.76,7.63.13,9.45.33,18.9.66,28.33a1.42,1.42,0,0,0,.7,1.23,5.78,5.78,0,0,0,0,.93.28.28,0,0,0-.38.26c-.16,2.67-.29,5.32-.34,8a.75.75,0,0,0,.73.72,25.14,25.14,0,0,0,8.69-.37.78.78,0,0,0,.55-.57,20.46,20.46,0,0,0,2.28.46c11.4,1.52,23.6.59,35.1.71s23.36.92,34.68-.51a13.1,13.1,0,0,0,4.92-1.66,7.55,7.55,0,0,0,2.25.24q1.62.07,3.24.12,3.53.1,7,0t7-.36a51,51,0,0,0,6.77-.64,2.58,2.58,0,0,0,2.24-3c-.24-1.69-1.69-3.14-2.84-4.28a42.74,42.74,0,0,0-4.54-3.74,33.42,33.42,0,0,0-4.87-3.48.91.91,0,0,0,.12-.45q.48-32.73.84-65.47c0-3.06,0-6.12,0-9.19a62.3,62.3,0,0,0-.07-7c1.07-.14,2.14-.3,3.21-.5a.79.79,0,0,0,.58-.76c.46-23.81.44-47.63.58-71.43,0-6.47.42-13.07-.11-19.52l.36-.48c1.07-1.44,2.09-2.9,3.08-4.39.14-.08,7.62-12.6,10.08-19.28a21.71,21.71,0,0,0,1.35-4.67A25.72,25.72,0,0,0,310.46,158.06Z"/><path class="cls-2" d="M200.24,76.7v86.11l15.65-1.68s-8-5.45-7.55-14.67,18.45-41.94,18.45-41.94-1.25-8.81-10.9-17.19S200.24,76.7,200.24,76.7Z"/><path class="cls-3" d="M176.19,63c.28,4.47.56,10.9-8.38,11.18,7.82,14.82,18.17,24.6,19,24.32S200.24,76.7,200.24,76.7s-6.43,1.68-5.6-5.87S196,64.4,196,64.4s-4.47,3.36-9.78,2.8S176.19,63,176.19,63Z"/><path class="cls-3" d="M174.74,30.27A66.54,66.54,0,0,0,170.81,44c-.65,4.74-.22,9.75,2.1,13.93a16.4,16.4,0,0,0,15,8.32,15.12,15.12,0,0,0,13.26-10.6c.72-2.56.71-5.27,1.45-7.82a15.6,15.6,0,0,0,.73-2.76,10,10,0,0,0-.28-2.88q-1.51-7.86-3-15.74A22.45,22.45,0,0,0,191.44,28c-1.56.61-3.06,1.39-4.66,1.87-3.11.93-6.43.65-9.67.37Z"/><path class="cls-3" d="M171.21,43.21a6.78,6.78,0,0,0-3.5.46,4,4,0,0,0-1.46,5.1A5.44,5.44,0,0,0,171,51.6Z"/><path class="cls-3" d="M203.31,44.75a5.56,5.56,0,0,1,2.92.59,4.15,4.15,0,0,1,1.56,3.84A6.79,6.79,0,0,1,205.41,54a5.39,5.39,0,0,1-5.21.94Z"/><path class="cls-4" d="M170.48,44.17a87.72,87.72,0,0,0,3.63-15.91c2.54,2.1,6.08,2.67,9.35,2.28a39,39,0,0,0,9.45-2.86,7.63,7.63,0,0,1,4.42-.78c2.27.52,3.57,2.93,4.13,5.19a36.26,36.26,0,0,1,.75,5.19l.75,8a22.94,22.94,0,0,0,1.58-3.13c.23-.65.32-1.34.58-2A20.14,20.14,0,0,0,206.27,37a18.72,18.72,0,0,0,.42-3.17,15.37,15.37,0,0,0-1.23-7.46,15.32,15.32,0,0,0-1.71-2.67A3.65,3.65,0,0,0,203,23c-.23-.16-.48-.28-.71-.43-1.18-.74-1.71-2-2.51-3.08-2.37-3.26-6.9-4-10.93-4.06-3.77-.06-7.65.24-11,1.89a15.76,15.76,0,0,0-5.47,4.56,10.37,10.37,0,0,1-.94,1.05,5,5,0,0,0-1.24,1.55,5.4,5.4,0,0,0-.36,1.38c-.07.4-.06.45-.34.68s-.38.24-.54.41a4.74,4.74,0,0,0-1.12,2.6,23.72,23.72,0,0,0-.36,4.12,4.49,4.49,0,0,0,.17,1.67c.19.45.44.84.6,1.32a29.91,29.91,0,0,0,3.39,7Z"/><path class="cls-5" d="M172.57,56.49c1.41-2.66.49-5,.63-8A46.24,46.24,0,0,0,200,50c.2,1.32.4,2.63.61,4a9.58,9.58,0,0,1,0,4.55,7.41,7.41,0,0,1-1.52,2.4,16.63,16.63,0,0,1-25.27-.34Z"/><path class="cls-6" d="M167.81,74.19c-2.8,20.69-5.88,102.6-3.08,125.52a244.5,244.5,0,0,0,33.55,3.08l.28-12.86s-4.75-1.68-4.75-10.34,1.11-14,6.43-16.78c-1.09-18.41,0-86.11,0-86.11L186.82,98.51S171.72,86.49,167.81,74.19Z"/><path class="cls-2" d="M105.46,161.55c.34,0,15.66-1.39,22.37-2.23A27.42,27.42,0,0,0,139,155.4s-4.19,69.89-3.63,98.69,2.51,40,2.51,40l32.43,1.68s-4.19-44.74-5.87-67.38-3.56-102.72,2-154.32c0,0-15.66.84-23.77,14.54s-17.89,45-17.89,45l-20.41,7.27Z"/><path class="cls-7" d="M140.41,155.54l3.35-41.37s-8.1,29.63-10.62,33.26-26.84,7-26.84,7l.56,7.27S135.94,158.62,140.41,155.54Z"/><path class="cls-7" d="M163.47,188c-.29-8-4.19,108.61-4.19,108.61l12.44-.69S164.31,211,163.47,188Z"/><path class="cls-7" d="M213.38,133.46C214.82,131,200,161.13,200,161.13l13.83-.84S203.31,150.23,213.38,133.46Z"/><path class="cls-7" d="M198.56,189.93l.56,17.33a8.27,8.27,0,0,0,7.13-8.38l.27-7.67Z"/><polygon class="cls-6" points="142.92 364.94 159.7 363.68 166.41 296.58 141.25 294.49 142.92 364.94"/><path class="cls-6" d="M168.92,275.2c.09-1.18,5.46-42.36,5.46-42.36l13,105.68s-.42-99.81.41-111.13,2.52-14.68,11.33-20.13c-.84-4.47-1.26-5.87-1.26-5.87s-27.68.42-33.13-1.68C163.47,250,168.92,275.2,168.92,275.2Z"/><path class="cls-7" d="M142.92,364.94s4.2,3.77,8,6.71-2.51,9.64-1.26,9.22,10.07.42,10.07.42-.76-17.55-2.1-17.19S142.92,364.94,142.92,364.94Z"/><path class="cls-7" d="M189.05,374.16c0-1-1.26,8.39-1.26,8.39s9.23-.42,8-.84S189.05,375.84,189.05,374.16Z"/><path class="cls-8" d="M196.6,81c-.84,1.26-10.48,121.19-10.48,121.19l12.16.56.28-12.86a26.91,26.91,0,0,1-3.22-15.38c.84-8.8,4.9-11.74,4.9-11.74V76.7Z"/><path class="cls-8" d="M164.31,204.75c10.07,2.51,9.65,3.35,9.65,3.35l.84,23.07S187.38,344.39,187,342.71s-.42-106.51,1.67-119.93,10.49-15.52,10.49-15.52l-1.26-5.87-33.13-1.68Z"/><path class="cls-8" d="M143.34,294.49c1.68.42,14.26,8.8,14.26,8.8l-6.29,61.65,8.39-1.26,6.71-67.1Z"/><path class="cls-2" d="M248.6,93.2l1.26,52.42,22.64,3.77s1.33,11.72-1.25,11.74-36.49,1.26-47.81.84-15.94-8-14.26-20.13,13.84-32.29,17.61-37.32S248.6,93.2,248.6,93.2Z"/><path class="cls-2" d="M275.86,95.71l.42,53.68s11.74,6.71,12.16,18.45c-.88,10.12-.51,12.84-5,11.33-5.45,8-12.58,20.12-12.58,20.12s6.29,5.88,10.48,8.39c21.81-25.58,25.58-36.06,28.52-44s-5.87-40.26-7.55-47.81a31.66,31.66,0,0,0-5.45-12.16S284.67,97.39,275.86,95.71Z"/><path class="cls-7" d="M288,169c4.12-11.47,3.35-19,2.52-31.31-5.6,15.66-8.67,15.94-8.67,15.94S287.18,163.09,288,169Z"/><path class="cls-7" d="M295,202s-9.79,17.89-10.62,26.84.55,55.63.55,55.63l-4.19-.84s-1.88-52.21-1.4-58.43-1.67-8.66-1.67-8.66,3.35.56,4.75-8.39c4.47-7,12.58-16.21,12.58-16.21Z"/><path class="cls-7" d="M275.16,163.65c4.19,7.83,4.47,13.14,4.47,13.14l2-1.4,1.82,3.78-8.53,12.72Z"/><path class="cls-7" d="M271.53,154.7c-.84-.56-41.66-1.95-48.37-3.91s-14.26-1.12-12.58-10.9c-6.43,9.5-1.68,18.17,5.31,21.24h55.36Z"/><polygon class="cls-7" points="284.39 99.35 286.62 115 277.12 94.88 284.39 99.35"/><path class="cls-7" d="M278,205.17s23.48-32.29,26.62-38.58a45.52,45.52,0,0,0,4-13s2.51,6.91-2.31,18.66-23.83,35.85-23.83,35.85Z"/><path class="cls-9" d="M177.31,64.68s5.31,6.15,8.11,8.67,1.4,25.16,1.4,25.16l10.62-18.73s-2-6.43-2.8-9,0-6.43,0-6.43S186.26,70.55,177.31,64.68Z"/><path class="cls-3" d="M249.44,94a58.5,58.5,0,0,0,15.93,25.37c8.81-17.4,11.33-23.49,11.33-23.49s-5-1.78-5.24-5.66,0-9.22,0-9.22-1.47,3.56-8.39,2.72-8-2.3-8-2.3a52.77,52.77,0,0,1,0,6.29C254.89,91.1,254.26,92.36,249.44,94Z"/><path class="cls-3" d="M250.7,72.86l-2.52-4.4a3.85,3.85,0,0,1-5-3.78c-.42-5,4.4-4,4.4-4s-.84-2.73,3.78-6.08,9.85-6.92,13.42-11.11c2.72,4.4,3.77,7.33,7.12,9s4.2,6.92,4.2,6.92,5.45.21,5,5.24-3.77,4.83-3.77,4.83l-1.68,3.35-2.94-5.45s-10.27,2.72-17.61-.63Z"/><path class="cls-5" d="M249.86,73.7s1.47,10.69,13.21,10.06,13.42-10.27,13.42-10.27l-3.78-6.08s-6.29,1.26-9,1a76.36,76.36,0,0,1-8.6-1.68Z"/><path class="cls-4" d="M255,82.19s1,6.29-.42,8.18-5.25,3.35-5.25,3.35V92.05l-2.41,2S239.06,81.77,238,76.53s1.05-16.56,3.78-22.44,6.92-21.38,14.46-21,10.28,4.19,10.28,4.19,3.35-4.82,9,0,9.57,20.94,11.12,26,.63,14.89-3.78,21.81-6.29,10.48-6.29,10.48-3.56-.84-4.19-3.56-2-11.61-1-11.33,2.52-1.88,4.19-6.71l1.68-4.82S281,67.93,281,64.37s-1.05-4.61-5-5.24c-.42-7.34-2.72-4.83-7.54-10.91-.65-.81-1.17-1.77-1.84-2.55a23.19,23.19,0,0,1-2.2-2.13,30.88,30.88,0,0,1-2.79,3.36,15.09,15.09,0,0,1-3.14,2.78,4.9,4.9,0,0,1-1.18.43,12.12,12.12,0,0,0-2.8,1.37,18.23,18.23,0,0,0-7,8.9S243,60,243,64.37s5.77,4.4,5.77,4.4S251.22,79.26,255,82.19Z"/><path class="cls-6" d="M249.44,94.88c2.52,8,15.93,24.53,15.93,24.53l11.5-22.6-1.64,53-2.73-.42-2.09-.63-20.13-4.19Z"/><path class="cls-8" d="M274.18,182.52l.21,8.6-3.56,8.17-9,1.05s-1.05-7.75-.42-9.22C268.26,191.67,273.76,184.2,274.18,182.52Z"/><path class="cls-6" d="M269.36,162.39c-4.05-1.45,4.61,12.37,4.82,11.32s.63-12.16.63-12.16l-2.1-1.67S272.29,163.44,269.36,162.39Z"/><path class="cls-8" d="M283.92,283.45l-3.17.13-2.38,82.83,5.63-.29C283.59,338.43,282.29,311.3,283.92,283.45Z"/><path class="cls-6" d="M290.75,283.16l-6.83.29c-1.63,27.85-.33,55,.08,82.67,2.53-.14,5-.28,5.28-.34C289.82,365.65,290.75,283.16,290.75,283.16Z"/><path class="cls-3" d="M271,200.47c-4-2.5-9.7,1.15-13.88-1.07a1.8,1.8,0,0,0-.87-.31c-.69,0-1,1-.73,1.58a3,3,0,0,0,1.62,1.22,28,28,0,0,0,8.31,2.07l-4.1,4.1a4,4,0,0,0-1,1.41,2,2,0,0,0,3.55,1.66,4.57,4.57,0,0,0-1.28,2.17,1.56,1.56,0,0,0,1.27,1.87,2,2,0,0,0,.86-.22,18.29,18.29,0,0,0,6.33-4.42,14.53,14.53,0,0,0-1.38,8.65,9.9,9.9,0,0,0,5.25-6.19l0,5.77c.89.21,1.69-.56,2.26-1.27a36.28,36.28,0,0,0,5.5-9.46,3.44,3.44,0,0,1-2.73-1.62Z"/><path class="cls-3" d="M272.57,158.86a56.9,56.9,0,0,1,7.62,18.29,2.27,2.27,0,0,0,1.85-2.47,5,5,0,0,0,1.72,4.31,6.16,6.16,0,0,0,1.38-2.47,4.17,4.17,0,0,0,1,3.19c1.28-1.69,1.37-4,1.32-6.09-.14-5.32-.83-10.76-3.33-15.46s-7.13-8.52-12.43-8.89Z"/><path class="cls-9" d="M271.56,82.78l.78,5.73a13.32,13.32,0,0,0,1.51,4.68c.71,1.33,2.16,1.64,3.45,2.15a30,30,0,0,1-2.66,6c-.37.73-.72,1.48-1.15,2.18a15.69,15.69,0,0,0-1,1.41c-.77,1.57-1.49,3.16-2.24,4.74q-2.24,4.72-4.48,9.47.42-4.94.49-9.89c0-1.64,0-3.27,0-4.9,0-.84,0-1.67-.07-2.5-.06-1.56.44-3.19.06-4.71a8.92,8.92,0,0,0-1.5-2.82q-3.74-5.3-7.45-10.6c-.27-.38-1.67-1.69-.54-1.62a11.57,11.57,0,0,1,1.62.39c.79.17,1.6.31,2.4.41a25.64,25.64,0,0,0,9.67-.63l1-.29C271.49,82.27,271.53,82.52,271.56,82.78Z"/><path class="cls-9" d="M176.19,30.36c2.17,2.32,5.7,2.65,8.87,2.5A45.23,45.23,0,0,0,195.77,31a69.17,69.17,0,0,1,.1,20,5.47,5.47,0,0,1,3.28-1.17l1.29,5.81a29.38,29.38,0,0,0,4.49-2.76,5.77,5.77,0,0,0,2.28-4.54c-.12-1.76-1.76-3.43-3.49-3.11l-.88,2.45-2-16.28c-.26-2.06-.79-4.51-2.74-5.26-1.77-.69-3.67.46-5.33,1.38a26.57,26.57,0,0,1-11,3.28Z"/><path class="cls-9" d="M272.29,155c2.37-.25,4.41,1.61,5.9,3.47a16.74,16.74,0,0,1,2.77,4.6c1.61,4.45.11,9.35-1.39,13.83a13.68,13.68,0,0,0-1.36-6.61,84,84,0,0,0-5.68-11.44Z"/><path class="cls-9" d="M269.46,200.81c.68,1.84,2.34,3.16,3.11,5,1,2.29.34,4.94-.65,7.22s-2.34,4.45-2.84,6.88a17.81,17.81,0,0,0,6.81-8c-.51,2.6-1,5.2-1.52,7.8a10.35,10.35,0,0,0,5.49-4.38,30.43,30.43,0,0,0,3-6.51c.24-.64.24-1.67-.45-1.7Z"/><path class="cls-9" d="M251.54,54.66a26.75,26.75,0,0,0,12.66-6.4c.72,2.17,2.7,3.66,3.82,5.65,2.25,4.05.54,9.14,1.46,13.68a12.92,12.92,0,0,1,2.93-.77l2.34,2.57a14.25,14.25,0,0,0,4-2.78A4.79,4.79,0,0,0,280,62.09a3.67,3.67,0,0,0-4.95-2,5.27,5.27,0,0,0-1.22-4.87c-1.09-1.36-2.53-2.41-3.7-3.71-2.32-2.55-3.53-5.94-5.76-8.57a7.57,7.57,0,0,1-3.21,4.33Z"/><path class="cls-8" d="M267.33,115.23a171,171,0,0,1-1.27,32.14,40.43,40.43,0,0,0,9.78,2.57,178.84,178.84,0,0,1,1.53-53.76Z"/><path class="cls-8" d="M269.43,162.48c.94.57,2.16-.19,2.8-1.08s1.11-2,2.09-2.51a83,83,0,0,1-1,16.67,19.36,19.36,0,0,0-1.07-6.95Z"/><path class="cls-10" d="M205.83,190.21c-7.27-.28-5.31-9.23-5.31-14.54a52.79,52.79,0,0,1,.55-8.39l-5.87,1.4S188.21,190.49,205.83,190.21Z"/><path class="cls-10" d="M221.2,167.56a127,127,0,0,0,0,15.66c.56,7.55,1.12,6.71,9.23,6.71l6.16.32c.14-7.53.15-15.05,1-22.58C228.91,167.64,221.2,167.56,221.2,167.56Z"/><path class="cls-11" d="M259.5,167.56c-4,.14-13.42.14-21.91.11-.85,7.53-.86,15.05-1,22.58,7.94.41,21.14,1,24.61,1,5.05-.12,3.9-3.8,3.9-10.79S267.61,167.28,259.5,167.56Z"/><path class="cls-12" d="M206.75,191.06l-.51,8.9c2.9-.05,5.79-.07,8.69-.11a43.69,43.69,0,0,1,1.36-8.9Z"/><path class="cls-13" d="M216.29,191a43.69,43.69,0,0,0-1.36,8.9q18.38-.27,36.75-.31v-9Z"/><path class="cls-12" d="M261.67,190.44l-10,.12v9c3,0,5.95,0,8.92,0A13.23,13.23,0,0,1,261.67,190.44Z"/><path class="cls-7" d="M226.28,199.24l-19.81.28c-1.09,4.08-5.6,6-9.12,8.32a24.5,24.5,0,0,0-5.63,5.17c-1.38,1.74-2.57,3.86-2.3,6.07a6.91,6.91,0,0,0,4.44,5.18,20.29,20.29,0,0,0,7,1.14,5.72,5.72,0,0,1-4.46-8.79c.4-.63.95-1.13,1.36-1.75a27.65,27.65,0,0,1,6.58-6.46,14.17,14.17,0,0,1,4.81-2.64,17.6,17.6,0,0,1,6.67-.07c3.14.37,6.54-.15,9.35,1.68a5.51,5.51,0,0,1,2.59,5.57,19.94,19.94,0,0,1-3.56,7.06,3.55,3.55,0,0,0-1,2.48c.22,1.44,2.06,1.88,3.52,2a136,136,0,0,0,14.7.05C242,213.35,233.05,207.17,226.28,199.24Z"/><path class="cls-14" d="M278.29,217.18a11.51,11.51,0,0,1-3.71,1.84c.2-2.23.4-4.47.59-6.7a11.78,11.78,0,0,1-4.89,5.7,11.2,11.2,0,0,1,1.21-6.6l-5.66,3.07a2.25,2.25,0,0,1-1.3.39,1.52,1.52,0,0,1-1-1.88,4.35,4.35,0,0,1,1.34-2c-1.14,1.18-3.06,2.16-4.31,1.11-1.43-1.19-.32-3.61,1.26-4.6s3.57-1.4,4.72-2.86l-7.91-2a5.34,5.34,0,0,1-2.67-1.25,1.82,1.82,0,0,1,0-2.64l-29.67.42c6.77,7.93,15.67,14.11,15.14,25.25l2.44-.13c2.09-.15,4.33.39,6.44.56q3.42.26,6.85.32a114,114,0,0,0,13.7-.62c2.11-.23,4.32-.56,6-1.84S279.47,218.94,278.29,217.18Z"/><path class="cls-2" d="M244.29,217.33a16.46,16.46,0,0,0,11.4-.7,4.83,4.83,0,0,0,2.46-2,4.43,4.43,0,0,0-.58-4.19,9.76,9.76,0,0,0-6.22-4.38,14.6,14.6,0,0,0-4.33-.13,17.68,17.68,0,0,0-5.23,1.24,7.33,7.33,0,0,0-2.89,2.07,4.28,4.28,0,0,0-.87,2.07c-.12,1,.43,1.39.76,2.22a3.55,3.55,0,0,0,1.52,2A15.76,15.76,0,0,0,244.29,217.33Z"/><path class="cls-7" d="M195.28,247.24q-.45-4.43-.66-8.87a10.91,10.91,0,0,1,.19-3.28,11.28,11.28,0,0,1,2.75-4.27,5.65,5.65,0,0,0-2.31-1.55,11.53,11.53,0,0,1-5.93-7.38s-.54,1.06-.52,1a8.18,8.18,0,0,0-.26,1.27,4.9,4.9,0,0,1-.13.55c-.1.3-.27.57-.38.87a10.11,10.11,0,0,0-.33,3.2q-.15,9.21-.29,18.42a9.14,9.14,0,0,0,4.14.32A24.36,24.36,0,0,1,195.28,247.24Z"/><path class="cls-14" d="M237.82,231c3.63,2.83.45,10.6.09,16.43l18,.62a36.87,36.87,0,0,0-.26-3.95,20.94,20.94,0,0,1-.16-3.54c.1-2.2.72-4.5,2.56-5.9,1.23-.94,3-1.5,3.41-3Q249.64,231.24,237.82,231Z"/><path class="cls-7" d="M237.82,231q-8.58-.18-17.15-.27a3.23,3.23,0,0,0,1.22,2.75c1.46,1.51,1.65,3.72,1.61,5.73l-.12,7.72,14.53.5C238.27,241.61,241.45,233.84,237.82,231Z"/><path class="cls-14" d="M269.6,246.12a81.58,81.58,0,0,1-.28-10.83c.08-2,.16-4.28-1.18-5.8a21.05,21.05,0,0,0,10.28-2.77,118.46,118.46,0,0,1-.91,20.27l-.11-.31Z"/><path class="cls-14" d="M218,372.25c10.58-.68,21.19.82,31.78.46a89.65,89.65,0,0,0,16.72-2.17c1.44-.32,3.7.09,3.32,1.51a1.92,1.92,0,0,1-.73.94c-2.56,2-6,2.39-9.28,2.64a357.7,357.7,0,0,1-49.65.21c-1.45-.09-2.88-.28-4.32-.3a4.07,4.07,0,0,1-1.68-.49Q202,374.11,200,373c-1.11-.62-2.35-1.57-2.21-2.84l4.84,1.31a23.43,23.43,0,0,0,7.95,1.19c1-.08,2,.05,3,0C215,372.5,216.51,372.35,218,372.25Z"/><path class="cls-7" d="M196.85,356.82a10.22,10.22,0,0,0,0,6.71,3.74,3.74,0,0,1-3.46,0,10.92,10.92,0,0,1-2.85-2.18l-.23-.22a4.08,4.08,0,0,1-1.57-2.51c0-1,1.17-2,2-1.41Z"/><path class="cls-7" d="M214.77,357.17a2.22,2.22,0,0,1,2.7.9,6.47,6.47,0,0,1,.84,3,8.71,8.71,0,0,1-.22,4.16,3,3,0,0,1-3.31,1.94c.46,1.15,2,1.26,3.25,1.19l5.72-.36c4.44-.28,8.87-.55,13.31-.69a2.18,2.18,0,0,1-2-1.17,5.68,5.68,0,0,1-.61-2.34,33.45,33.45,0,0,1-.07-5.75c0-.62,0-1.42-.6-1.61Z"/><path class="cls-14" d="M231,355.81c1.43.39,1.84,2.19,2,3.66l.78,7.52,17.26-.35a3,3,0,0,1-1.43-2.72,9,9,0,0,1,.77-3.11l2-5.26a3.76,3.76,0,0,0-3.51,0Z"/><path class="cls-14" d="M264.29,366.13a7.18,7.18,0,0,0,3.95-10.05l10.15-.88c.23,1.68.46,3.37.68,5.06.09.66-.15,1.66-.8,1.49Z"/><path class="cls-6" d="M188.35,248.41v26.51l5.18,0c0-8.87.26-17.74,1.75-26.6Z"/><path class="cls-6" d="M222.6,247.76v26.85l16.24-.15c-.5-9.07-.57-17.82-.58-27Z"/><path class="cls-15" d="M279.63,246.68l-41.37.79c0,9.17.08,17.92.58,27l41.35-.38Z"/><path class="cls-16" d="M195.28,248.28c-1.49,8.86-1.72,17.73-1.75,26.6l29.07-.27V247.76Z"/><path class="cls-17" d="M223.17,276c-.37,1.11-2.25,79.95-2.25,79.95l57.16-.79s2.41-80,.53-80S223.17,276,223.17,276Z"/><path class="cls-7" d="M238,276c-.28,1.11-1.66,79.95-1.66,79.95l42.11-.79s1.77-80,.39-80S238,276,238,276Z"/><rect class="cls-17" x="189.61" y="274.92" width="3.91" height="80.8"/><path class="cls-14" d="M84.21,196.36l4.81-.05q1-25.32,2.12-50.64a25.19,25.19,0,0,0-.65-8.67c-.88-2.78-3-5.36-5.83-6L105,131c2.16,22.63,4.29,45.73-.77,67.89Z"/><path class="cls-10" d="M74.57,131.36H71.22l1.14,67.12,17.81-.37s3.27-59.2,1.59-62.56-7.1-4.52-7.1-4.52,2.91-2.19,2.49,10.39-1.26,52-1.26,52l-8.8-.42Z"/><path class="cls-7" d="M89.76,207c.33,1.95-2.41,76.29-.62,76.23s16.37,2.59,14.74,0,1.25-77.65,1.25-77.65L89.76,207"/><path class="cls-17" d="M75.41,206.42l-4.51.19-.36,74.67,5.71-.21S75.41,208.94,75.41,206.42Z"/><path class="cls-4" d="M72.36,196.66c-2,2.63-1.46,10-1.46,10h6.59c-.2-3.73-.25-7.46-.26-11.18Z"/><path class="cls-18" d="M85.36,193.36l-8.13,2.07c0,3.72.06,7.45.26,11.18h6.82C84.74,202.23,85.36,197.7,85.36,193.36Z"/><path class="cls-4" d="M105.13,197c-.87,1.84-16.72-4.43-16.72-4.43l-3,.77c0,4.34-.62,8.87-1,13.25h22.27S106,195.17,105.13,197Z"/><path class="cls-7" d="M89.58,286.2s-3.15,91.54-1.11,91,12.78-.06,12.78-.06L103.88,288l-14.3-1.78"/><polyline class="cls-7" points="88.43 117.91 88.47 126.29 96.8 126.33 98.39 118.57 88.43 117.91"/><polyline class="cls-7" points="80.44 118.36 79.66 126.4 79.66 126.4 77.04 118.16 80.44 118.36"/><path class="cls-3" d="M70.79,150.35a6,6,0,0,1-2.79.25,2.06,2.06,0,0,1-1.72-1.94,1.16,1.16,0,0,1,.18-.55,1.6,1.6,0,0,1,.43-.39,12,12,0,0,1,8.13-2,3.67,3.67,0,0,1,2.47,1.05,1.13,1.13,0,0,1,.27,1.07,1.25,1.25,0,0,1-.6.6,5.71,5.71,0,0,1-3,.8Z"/><path class="cls-3" d="M70.38,156.94a4.74,4.74,0,0,1-3.72-1.12,2.22,2.22,0,0,1-.59-.74,2.18,2.18,0,0,1,.9-2.34,6.2,6.2,0,0,1,3.79-1.27,14.81,14.81,0,0,1,4,.59,4.2,4.2,0,0,1,1.78.78A1.51,1.51,0,0,1,77,154.6a2.26,2.26,0,0,1-1.45.88l-2.37.68Z"/><path class="cls-3" d="M71.2,162.2a6.89,6.89,0,0,1-2.22,0,2,2,0,0,1-.76-3.79,5.92,5.92,0,0,1,2.63-.92c2.29-.37,4.85-.45,6.69,1,.61.47,1.12,1.34.67,2a1.73,1.73,0,0,1-.46.39,8.43,8.43,0,0,1-3.17,1.2Z"/><path class="cls-3" d="M70.8,167.14A5.62,5.62,0,0,1,67,164.36a1.74,1.74,0,0,1-.17-1.64,1.67,1.67,0,0,1,1.35-.68,6.78,6.78,0,0,1,4.64,1.4,14.49,14.49,0,0,1,3.32,3.66c.18.27.34.66.11.87a.74.74,0,0,1-.51.12c-1.06-.05-2.11-.14-3.16-.28Z"/><path class="cls-7" d="M289.43,366.19a3.29,3.29,0,0,0-2.55,2.21,8.24,8.24,0,0,0-.3,3.5,7.78,7.78,0,0,0,.57,2.67c1.15,2.48,4.43,3.58,5.2,6.2l-17.21-.49a24.08,24.08,0,0,0,2.71-13.38Z"/><path class="cls-4" d="M181,43.72a1.54,1.54,0,1,1-1.54-1.54A1.54,1.54,0,0,1,181,43.72Z"/><path class="cls-4" d="M196.32,43.72a1.54,1.54,0,1,1-1.54-1.54A1.54,1.54,0,0,1,196.32,43.72Z"/><path class="cls-4" d="M257.08,61.61a1.38,1.38,0,0,1-2.75,0,1.38,1.38,0,1,1,2.75,0Z"/><path class="cls-4" d="M270.83,61.61a1.38,1.38,0,1,1-1.38-1.38A1.37,1.37,0,0,1,270.83,61.61Z"/><path class="cls-4" d="M176.71,39.58a1.15,1.15,0,0,0,.72-.37s.08-.06,0,0l.1-.07.23-.16.49-.29.26-.12.11,0,0,0a10,10,0,0,1,1.06-.33c.4-.09.9-.09,1.12-.51a.42.42,0,0,0,0-.42c-.31-.48-.91-.38-1.4-.3a4.83,4.83,0,0,0-1.28.38,5.56,5.56,0,0,0-1,.57c-.19.13-.38.27-.56.42a1.08,1.08,0,0,0-.44.74.55.55,0,0,0,.55.55Z"/><path class="cls-4" d="M193.21,37.63a.88.88,0,0,0,.8.18,3.54,3.54,0,0,1,.47-.07,3.75,3.75,0,0,1,.58,0h.13c.11,0,0,0,.05,0l.39,0s.1,0,0,0l.13,0,.28.06a5.05,5.05,0,0,1,.55.18,8.76,8.76,0,0,0,1,.47.32.32,0,0,0,.4-.39,2.15,2.15,0,0,0-.94-1,5.2,5.2,0,0,0-1.25-.56,4.1,4.1,0,0,0-1.35-.11c-.5,0-1.28.09-1.41.69a.45.45,0,0,0,.11.44Z"/><path class="cls-4" d="M253.08,57.44a10.14,10.14,0,0,1,2-.41,10.32,10.32,0,0,1,2.08,0,.55.55,0,0,0,.54-.54.56.56,0,0,0-.54-.55,5.57,5.57,0,0,0-2.26.28c-.18.07-.36.14-.54.23a4.48,4.48,0,0,0-.47.28,5.33,5.33,0,0,0-.82.67Z"/><path class="cls-4" d="M271.78,57.44a10.8,10.8,0,0,0-4-.44.55.55,0,0,1-.54-.54.56.56,0,0,1,.54-.55,5.59,5.59,0,0,1,2.26.28c.18.07.36.14.54.23a4.48,4.48,0,0,1,.47.28,5.33,5.33,0,0,1,.82.67Z"/><path class="cls-2" d="M194.59,17.82a15.13,15.13,0,0,0-14.54.73,7.15,7.15,0,0,1,4.95.21,10.9,10.9,0,0,0-4.72,1.62,6.16,6.16,0,0,1,4.56.28,4.85,4.85,0,0,0-3.32,1.28,19.16,19.16,0,0,1,9.43,1,5,5,0,0,0-2.73-1.8,13,13,0,0,1,5.3.2,8,8,0,0,0-3.74-1.92,10.19,10.19,0,0,1,6.72-.09Z"/><path class="cls-2" d="M257.12,34.93A6.37,6.37,0,0,0,251.64,37a18.91,18.91,0,0,0-3.2,5.16,9.68,9.68,0,0,1,3.84-2.72,7.41,7.41,0,0,0-2,4,11.57,11.57,0,0,1,3.33-2.25,6.92,6.92,0,0,0-2.33,4.34,25.08,25.08,0,0,1,3.28-2.81,4.93,4.93,0,0,0-1.26,3.07,29.53,29.53,0,0,1,6.2-4.81,15.22,15.22,0,0,0-3.18.91,6.8,6.8,0,0,1,3-2.37,8.59,8.59,0,0,0-3.44.57,8.89,8.89,0,0,1,3.37-2.44c-1.73-.39-3.32,1.08-5.08,1.3a10.57,10.57,0,0,1,5.47-3.6Z"/><path class="cls-2" d="M268.92,38.79a5,5,0,0,1,1-1.34,3.59,3.59,0,0,1,2.35-.61A4.41,4.41,0,0,0,270,39.1l2.27-.09a6.76,6.76,0,0,0-2.28,2.9,3.7,3.7,0,0,1,2-.25,6.63,6.63,0,0,0-3,3.21,7,7,0,0,0-.3-.76,3,3,0,0,1-.07-.94c0-.13.06-.25.06-.37a5.12,5.12,0,0,0-.19-.93A4.78,4.78,0,0,1,268.5,40,4.89,4.89,0,0,1,268.92,38.79Z"/><path class="cls-4" d="M194.54,183.92c1.61-6.93-.88-18.66,8.15-20.66,4.22-.94,9.31-.17,13.63-.16,5.35,0,10.69,0,16,0,9.94,0,19.88-.12,29.82.05,4.29.07,8.25,1.33,8.59,6.29.18,2.46.21,4.94.28,7.4a51.25,51.25,0,0,1,0,6.9c-.51,4.54-2.41,5.7-7.05,6.09-1.18.1-1.64,2-.3,2.22,13.39,2.65,10.28-15.61,9.63-23.37-.37-4.33-2.05-7.12-6.48-7.88-7.09-1.22-15.13-.25-22.31-.28-8.09,0-16.18,0-24.27-.09-6.08,0-13.71-1.45-19.55.53-9.05,3.07-8.48,15.33-6.6,23A.22.22,0,0,0,194.54,183.92Z"/><path class="cls-4" d="M194,177.58c-1.17,4-.68,9.32,2.64,12.24,4.54,4,13.43,2.64,18.95,2.79,8.72.22,17.45.21,26.17.11s17.93.51,26.46-1.05c1.38-.26.89-2.17-.31-2.29-6.42-.64-13.16.16-19.61.28q-10.36.18-20.72.12c-6.53,0-13.08-.14-19.61-.26-4.77-.09-9.52.1-12-4.86-1.06-2.12-.92-4.81-1.55-7.08A.22.22,0,0,0,194,177.58Z"/><path class="cls-4" d="M205.46,191.66c.92,5.91-.5,9.78-5.72,13.22-2.59,1.71-5.07,2.85-7.17,5.22-3.81,4.29-5.07,9.76-5.44,15.35-1.12,17.19-.35,34.7-.5,51.93-.26,31.59-.43,63.32.65,94.89.06,2,3.15,2,3.05,0-1.64-32.61-1.31-65.49-1.17-98.14q.06-13,.13-26c.05-9-1-18.93.83-27.74a18.27,18.27,0,0,1,7.64-11.72c2.5-1.68,5.45-2.71,7.45-5.07a10.72,10.72,0,0,0,1.31-12.43A.58.58,0,0,0,205.46,191.66Z"/><path class="cls-4" d="M281.09,277.38c-.14-17,.35-34.08-.46-51a35.23,35.23,0,0,0-1.5-9.14,5,5,0,0,1-.48.63,14.76,14.76,0,0,1-1.19,1l-.21.2c.12.44.25.89.35,1.35,1.87,8.45.78,18.07.83,26.65q.07,13.53.13,27c.15,32.65.47,65.53-1.17,98.14-.1,2,3,2,3.06,0C281.53,340.7,281.36,309,281.09,277.38Z"/><path class="cls-4" d="M260.81,199.92l.27.05h.13a8.3,8.3,0,0,0,1.41,0l.53-.06c-1.16-2.27-1.41-4.94-.89-8.25a.58.58,0,0,0-1.06-.45,10.26,10.26,0,0,0-.86,8.57Z"/><path class="cls-4" d="M188.5,370.82c-1.67,7,4.79,11.26,11,12.1,11.4,1.52,23.6.59,35.1.71s23.36.92,34.68-.51c6.48-.81,11.76-6.33,10.18-13.12-.24-1-1.65-.7-1.74.24-1.13,11.38-11.89,10.24-20.71,10.4-7.47.13-14.94.11-22.41,0-7.06-.08-14.13-.21-21.19-.32-7.43-.11-23.18,1.82-23.24-9.31A.86.86,0,0,0,188.5,370.82Z"/><path class="cls-4" d="M206.43,199.4c7.93,2.63,17.9,1.34,26.16,1.2q14.13-.25,28.24-1.06c1.6-.09,1.61-2.59,0-2.51-9.41.5-18.82.83-28.24.92-8.31.08-18.11-1.38-26.16.86A.31.31,0,0,0,206.43,199.4Z"/><path class="cls-4" d="M188.35,248.41c6.7,1.72,14.4.93,21.27,1q11.69.06,23.36,0,23.36-.21,46.71-.88c1.84,0,1.85-2.93,0-2.87q-23.35.67-46.71.92-11.11.12-22.25.16c-7.22,0-15.32-.92-22.38.75A.52.52,0,0,0,188.35,248.41Z"/><path class="cls-4" d="M188.35,275.93c6.7,1.71,14.4.93,21.27,1q11.69,0,23.36-.05,23.36-.19,46.71-.87c1.84-.05,1.85-2.93,0-2.88q-23.35.69-46.71.93-11.11.11-22.25.15c-7.22,0-15.32-.92-22.38.75A.53.53,0,0,0,188.35,275.93Z"/><path class="cls-4" d="M188.35,356.91c6.7,1.71,14.4.93,21.27,1q11.69.06,23.36,0,23.36-.21,46.71-.88c1.84-.05,1.85-2.93,0-2.87q-23.35.68-46.71.92-11.11.11-22.25.16c-7.22,0-15.32-.92-22.38.75A.52.52,0,0,0,188.35,356.91Z"/><path class="cls-4" d="M188.57,371.14a6.44,6.44,0,0,0,1.13,7.2c1.54,1.8,5,3.59,7.43,3a.56.56,0,0,0,.25-.92c-1.31-1.38-3.57-1.67-5.09-2.83a8.78,8.78,0,0,1-3.2-6.32C189.07,371,188.7,370.87,188.57,371.14Z"/><path class="cls-4" d="M191.76,362c13.69,10.64,33,8,49.21,8.16a105.19,105.19,0,0,0,21.92-1.65c5-1,10.49-2.35,13.51-6.82.43-.64-.42-1.43-1-1-10.73,6.55-24.39,6.52-36.53,6.4-7.71-.07-15.46.07-23.17-.27-8.31-.38-15.81-2.51-23.57-5.34C191.78,361.31,191.49,361.78,191.76,362Z"/><text class="cls-19" transform="translate(195.35 267.54)"><tspan class="cls-20">C</tspan><tspan class="cls-21" x="10.53" y="0">OV</tspan><tspan class="cls-22" x="34.14" y="0">I</tspan><tspan class="cls-23" x="40.14" y="0">D</tspan><tspan class="cls-22" x="52.2" y="0">-1</tspan><tspan x="67.6" y="0">9</tspan></text><text class="cls-24" transform="translate(198.62 308.9)">Coronavirus</text><text class="cls-24" transform="translate(198.62 322.06)">Vaccine</text><path class="cls-4" d="M194,210.54a.16.16,0,0,0,0-.31A.16.16,0,0,0,194,210.54Z"/><path class="cls-4" d="M188.64,220.15c0,5.94,7.36,6,11.71,6.14,11.35.29,22.72.13,34.07,0s22.71-.27,34.05-.83c3.93-.19,11.55-1.11,11.37-6.49,0-1.53-2.44-1.54-2.39,0,.2,6-18.74,4.43-22.16,4.52q-11.53.31-23.07.45t-23.08.1c-5.37,0-16.95,2.14-19.71-4.07C189.26,219.53,188.64,219.76,188.64,220.15Z"/><path class="cls-4" d="M249.45,91.67a46.58,46.58,0,0,1-8.42,4,60.26,60.26,0,0,0-8,3.28c-5.23,2.82-8.77,7.8-11.45,13-3.14,6-5.65,12.44-8.39,18.67-2.65,6.05-6.08,12.62-5.39,19.44a15.23,15.23,0,0,0,3.18,8c1.69,2.12,4.39,4.18,7.24,3.86a.79.79,0,0,0,.21-1.55c-2.44-.94-4.53-1.88-6.11-4.08a13.08,13.08,0,0,1-2.43-7.27c-.18-6.52,3.18-12.69,5.74-18.49s4.87-11.64,7.76-17.22c2.52-4.88,5.73-9.49,10.53-12.34,5.08-3,12-3.93,15.91-8.69C250.07,91.91,249.79,91.46,249.45,91.67Z"/><path class="cls-4" d="M225.61,143c3.72.77,7.52,1.14,11.28,1.68s7.74,1.06,11.61,1.61c7.66,1.11,15.28,2.42,22.88,3.82l-.76-1c.13,3.43.27,6.86.4,10.28,0,.44.25,1.8,0,2-.45.24-1.78-.11-2.33-.14a49.34,49.34,0,0,0-5.57-.15c-.86.05-1.16,1.43-.22,1.59a56.37,56.37,0,0,0,6.35.61c1.49.1,3.45.46,3.85-1.44a11.53,11.53,0,0,0,0-2.69c0-1.08-.07-2.16-.11-3.24l-.24-6.77a1.07,1.07,0,0,0-.77-1c-7.69-1.45-15.43-2.66-23.18-3.73-3.69-.51-7.39-1-11.1-1.36a116.4,116.4,0,0,0-11.94-.81C225.27,142.16,225.14,142.88,225.61,143Z"/><path class="cls-4" d="M283.08,207l-.9-.44c-.19.27-.37.54-.55.82Z"/><path class="cls-4" d="M271.35,200.17c.14-.22.28-.44.41-.67-.19-.21-.39-.41-.57-.63C271.24,199.3,271.3,199.74,271.35,200.17Z"/><path class="cls-4" d="M287.72,167.26s0,.07,0,.11a8.43,8.43,0,0,1,.18,1.12,16.15,16.15,0,0,1,.11,2c0,.49,0,1-.05,1.47a38.77,38.77,0,0,0,4.14-14.44,70.57,70.57,0,0,0-.76-14.66c-.64-5.2-1.34-10.46-1-15.72a.26.26,0,0,0-.51-.07c-2,9,.43,18.24.26,27.35A38.57,38.57,0,0,1,287.72,167.26Z"/><path class="cls-4" d="M310.46,158.06c-.27-3.72-.36-7.43-.76-11.14a124.82,124.82,0,0,0-4.24-21.65q-1.56-5.28-3.57-10.4-.93-2.39-2-4.74a21.61,21.61,0,0,0-2.28-4.53,14.69,14.69,0,0,0-3.26-2.77,47.06,47.06,0,0,0-5-3.12,52.57,52.57,0,0,0-10.62-4.38.35.35,0,0,0-.27.64c5.51,3.37,11.82,5.71,16.73,10a8.7,8.7,0,0,1,2.05,3.2q1.17,2.59,2.21,5.23,1.93,4.89,3.44,9.92a125.43,125.43,0,0,1,4.36,20.46c.45,3.56.73,7.14.87,10.73.12,3.22.74,6.45-.29,9.58a78.42,78.42,0,0,1-3.53,8.85,63.68,63.68,0,0,1-4.63,8.47c-1,1.46-2,2.93-2.95,4.39-4.62,6.76-10,13-14.56,19.78l.9.44-1.45.38c.18-.28.36-.55.55-.82-3.8-1.84-7.57-3.95-10.42-7.1-.13.23-.27.45-.41.67-.05-.43-.11-.87-.16-1.3.18.22.38.42.57.63,4-6.61,8.11-13.2,12-19.92a3.06,3.06,0,0,1-1.38,0,1,1,0,0,1-.71-.59c-1,1.7-2,3.39-3,5.07-3,5-6.09,10-9.13,15a1.12,1.12,0,0,0,.17,1.3c3.23,3.9,7.84,6.35,12.34,8.49a1.09,1.09,0,0,0,1.45-.39c3.84-5.89,8.34-11.28,12.55-16.9,1.07-1.44,2.09-2.9,3.08-4.39.14-.08,7.62-12.6,10.08-19.28a21.71,21.71,0,0,0,1.35-4.67A25.72,25.72,0,0,0,310.46,158.06Z"/><path class="cls-4" d="M249.44,91.85a12.88,12.88,0,0,0-1.11,5c-.33,3.27-.41,6.53-.42,9.82,0,8.7.24,17.4.66,26.1.12,2.3.24,4.61.37,6.91.06,1.12.13,2.24.2,3.36a6.21,6.21,0,0,0,.54,2.87.73.73,0,0,0,1.32-.17c.64-1.53.08-3.75,0-5.37-.12-2-.23-4.07-.33-6.1q-.33-6.54-.56-13.09c-.26-7.59-.46-15.18-.54-22.78,0-1.35,0-2.68.05-4a8.76,8.76,0,0,1,.19-2.4C249.87,91.79,249.55,91.66,249.44,91.85Z"/><path class="cls-4" d="M275.84,150.31q.29-16.4.91-32.78c.28-7.53.72-15,.62-22.57,0-.45-.75-.59-.82-.11-.9,6.62-1.27,13.28-1.6,19.94s-.61,13.25-.8,19.88q-.22,8.06-.35,16.12A3.31,3.31,0,0,0,275.84,150.31Z"/><path class="cls-4" d="M274.3,192a21.14,21.14,0,0,1,1.38-2.06c0-9.28-.06-18.56,0-27.83-.69-.42-1.4-.68-2-1q-.06,6.62-.06,13.22c0,6.21,0,12.43.16,18.64C274,192.65,274.12,192.33,274.3,192Z"/><path class="cls-4" d="M248.19,65.8a28.32,28.32,0,0,0,4,13.68,9.45,9.45,0,0,0,4.39,4,19,19,0,0,0,6.64,1.24,12.6,12.6,0,0,0,11.1-5.34c2.7-3.87,3.61-9.28,3.5-13.9a.53.53,0,0,0-1-.14c-1,4.12-1.07,8.32-3.34,12a11,11,0,0,1-10.23,5.48,16.59,16.59,0,0,1-6.11-1.17,9.51,9.51,0,0,1-4.06-4,36.14,36.14,0,0,1-4.39-12A.24.24,0,0,0,248.19,65.8Z"/><path class="cls-4" d="M272.09,199.84c-2.44-1-5.16-.89-7.74-.54a26.07,26.07,0,0,1-4.14.33,10.07,10.07,0,0,1-2.18-.32,4.92,4.92,0,0,0-1.89-.32,1.77,1.77,0,0,0-1.67,2.12c.31,1.13,1.77,1.8,2.73,2.23a21.11,21.11,0,0,0,8.29,1.45c-.18-.43-.35-.86-.53-1.3l-1.28,1.43c-.65.73.43,1.82,1.08,1.08l1.27-1.43a.77.77,0,0,0-.54-1.3,22.63,22.63,0,0,1-6.7-.86,10.14,10.14,0,0,1-1.59-.68c-.29-.16-1.31-.6-1.33-1-.06-.79,2.59.09,3,.15a21.25,21.25,0,0,0,6.36-.39c2.2-.37,4.39-.72,6.56,0C272.2,200.65,272.48,200,272.09,199.84Z"/><path class="cls-4" d="M266.55,203.42a51.29,51.29,0,0,0-5.7,4.48c-1.19,1.07-2.14,2.77-1.09,4.28s3.21.66,4.54-.09a18.09,18.09,0,0,0,4.89-4.12.86.86,0,0,0-1-1.34,13.6,13.6,0,0,0-4.37,3.93c-.88,1.24-2.39,3.48-.81,4.76,1.35,1.1,3.46.5,4.84-.21a16,16,0,0,0,4.63-4.12l-1.35-1a27.07,27.07,0,0,0-2,5.88c-.27,1.28-1,3.66.75,4.24,1.5.49,2.86-.87,3.72-1.89a20.07,20.07,0,0,0,3.15-5.13l-1.59-.67q-.68,3.65-1.33,7.31a.86.86,0,0,0,1.25,1,14.87,14.87,0,0,0,8.23-13.12.57.57,0,0,0-1.14,0,15.16,15.16,0,0,1-7.95,11.65l1.26,1c.45-2.43.91-4.86,1.36-7.3.16-.89-1.18-1.65-1.6-.67a19.29,19.29,0,0,1-1.83,3.41,15.83,15.83,0,0,1-1.29,1.67c-.28.33-.8,1-1.29,1.09s-.32-.06-.31-.47a6,6,0,0,1,.2-1.19c.11-.59.25-1.17.4-1.76a24.87,24.87,0,0,1,1.51-4.1c.39-.82-.66-1.84-1.34-1-1.51,1.76-4,4.85-6.65,4.4-1.39-.22.7-2.84,1.17-3.4A11.86,11.86,0,0,1,269,208.1l-1-1.34c-.7.83-6.1,6-7,4.21-.59-1.2,1.7-2.77,2.4-3.43a44.66,44.66,0,0,0,3.51-3.64C267.14,203.66,266.86,203.22,266.55,203.42Z"/><path class="cls-4" d="M270.82,150.14c3,.59,6,1.12,8.55,2.89a16.68,16.68,0,0,1,5.51,6.74,22.51,22.51,0,0,1,1.95,9.07,33,33,0,0,1-.39,5.53c-.09.59-.57,4.86-1.25,4.87l.88.88c-.35-3.45-.7-6.9-1.07-10.35-.11-1.06-1.7-1.12-1.7,0v4.71c0,.87,0,1.75,0,2.62a6.61,6.61,0,0,1,0,.89c-.13.9-.19.18-.22-.32l-.6-10.21a.76.76,0,0,0-1.52,0l-.27,5.55c-.07,1.39,0,3.22-1.42,4l1.14.65a33.84,33.84,0,0,0-7.2-19c-.59-.75-1.63.31-1.05,1a32.09,32.09,0,0,1,6.74,18,.76.76,0,0,0,1.13.65,4.46,4.46,0,0,0,2.05-3.62c.3-2.38.28-4.83.4-7.22H281l.48,8.28c.08,1.29-.39,4.11,1.39,4.41,1.52.26,2-1.35,2.06-2.53.12-2.61.08-5.24.12-7.85h-1.7q.48,5.17,1,10.35a.89.89,0,0,0,.88.88c1.68,0,2.07-1.69,2.37-3a44.66,44.66,0,0,0,.94-6A26,26,0,0,0,287,160.07a18,18,0,0,0-6-8c-2.83-2.06-6.66-3.48-10.16-2.67A.4.4,0,0,0,270.82,150.14Z"/><path class="cls-4" d="M247.11,93.16c-3.89,6.1-7.6,12.31-11.33,18.5a.77.77,0,0,0,.27,1c1.69.76,3.38,1.45,5.09,2.09l-.43-.57c0,1.31-1.44,2.14-2.11,3.15a6.15,6.15,0,0,0-1,2.94,14.9,14.9,0,0,0,1.65,7c2.6,6,5.38,11.87,8.07,17.81.35.77,1.48.1,1.13-.66-2.56-5.64-5.1-11.29-7.68-16.92-1.05-2.3-2.26-4.93-1.89-7.52a6.41,6.41,0,0,1,1.93-3.39,3.64,3.64,0,0,0,1-2.38.6.6,0,0,0-.29-.51c-1.58-.82-3.14-1.6-4.78-2.33.1.35.19.7.28,1,3.73-6.2,7.49-12.37,11.07-18.66A.61.61,0,0,0,247.11,93.16Z"/><path class="cls-4" d="M287.49,116.19a2.47,2.47,0,0,0,.12-2.29,41.53,41.53,0,0,0-2-4.08c-2.75-5.34-6.07-10.37-8.92-15.65-.13-.24-.55-.08-.44.18,1.71,4.16,3.75,8.12,5.82,12.1,1.05,2,2.14,4,3.15,6,.41.83,1.55,2.4.65,3.15a8.58,8.58,0,0,1-1.83.88c-1,.49-2.05,1.19-1.5,2.39.66,1.45,2.21,2.22,2.93,3.61.56,1.09,0,2.25-.47,3.28s-.91,2.22-1.36,3.33q-1.38,3.47-2.77,6.93c-1,2.48-2.05,4.94-3.08,7.42-.87,2.09-2,4.26-2.75,6.46h.07l.31,0a2.91,2.91,0,0,1,.48.21l.24.19c.45-1,.82-2,1.24-3q1-2.41,2.05-4.85,2.18-5.16,4.4-10.29c.71-1.6,1.42-3.2,2.1-4.82a10.9,10.9,0,0,0,1.29-3.93c0-2.32-2.28-3.28-3.23-5.1C285.05,117.48,286.69,117.4,287.49,116.19Z"/><path class="cls-4" d="M254.89,81.32a21,21,0,0,0-.51,5.19c-.06,1.52.05,3.26-1,4.49a13.35,13.35,0,0,1-2.79,2.16c-.92.64-2.22,1.37-2,2.63a.33.33,0,0,0,.32.24,2.64,2.64,0,0,0,1.53-.77,17.19,17.19,0,0,1,1.67-1.1,9,9,0,0,0,2.9-2.51c.94-1.4.93-3.11,1-4.72a22.86,22.86,0,0,0-.2-5.61A.44.44,0,0,0,254.89,81.32Z"/><path class="cls-4" d="M271.57,81.32a26.73,26.73,0,0,0-.32,5.06,33.8,33.8,0,0,0,.14,4.72,5.62,5.62,0,0,0,1.44,3.4c.88.83,2.16,1,3.15,1.69a.59.59,0,0,0,.88-.51c0-1.3-1.27-1.66-2.18-2.2a3.89,3.89,0,0,1-1.59-2.83c-.57-3.07-.19-6.25-.68-9.33A.44.44,0,0,0,271.57,81.32Z"/><path class="cls-4" d="M294.64,191.5c-.67,5.88-.47,11.94-.56,17.85l-.24,17.86c-.15,11.91-.22,23.81-.28,35.72,0,6.7,0,13.39,0,20.09l.58-.76a67.26,67.26,0,0,1-14.71,1.49.57.57,0,0,0,0,1.14,69.23,69.23,0,0,0,15.14-1.11.79.79,0,0,0,.58-.76c.46-23.81.44-47.63.58-71.43,0-6.66.45-13.46-.15-20.09A.49.49,0,0,0,294.64,191.5Z"/><path class="cls-4" d="M290.43,282.25c-.82,2.48-.57,5.29-.66,7.88s-.2,5.38-.24,8.08q-.11,8.22-.22,16.43-.22,16.31-.39,32.6l-.18,18.66.95-.95c-3.3.39-6.59.79-9.89,1.2-1.09.14-1.12,1.86,0,1.75,3.3-.34,6.59-.68,9.89-1a1,1,0,0,0,.94-1q.48-32.73.84-65.47c0-3.06,0-6.12,0-9.19,0-2.91.38-6.18-.48-9A.29.29,0,0,0,290.43,282.25Z"/><path class="cls-4" d="M273.6,381.14a4.91,4.91,0,0,0,2.86.56q1.62.07,3.24.12,3.53.1,7,0t7-.36a51,51,0,0,0,6.77-.64,2.58,2.58,0,0,0,2.24-3c-.24-1.69-1.69-3.14-2.84-4.28a42.74,42.74,0,0,0-4.54-3.74c-1.76-1.31-3.56-3-5.62-3.81-.51-.19-1.09.51-.74,1a19,19,0,0,0,4,3.33c1.43,1.06,2.88,2.09,4.23,3.25a14,14,0,0,1,3.43,3.7c.38.72.6,1.4-.45,1.82a5.87,5.87,0,0,1-1.38.18l-3,.27c-3.77.32-7.56.52-11.34.59-2,0-4,.11-5.95.12-1.51,0-3.68-.45-5,.37A.32.32,0,0,0,273.6,381.14Z"/><path class="cls-4" d="M265.26,40.73c-1.38,5-6.32,7.36-10.36,9.89-3.75,2.35-7.63,5.34-8.54,9.92l1.1-.62a4.52,4.52,0,0,0-5.31,4.82c.24,2.42,3.4,5.46,5.94,4.25a.68.68,0,0,0,0-1.17c-1.56-.71-3.21-.59-4-2.48a2.73,2.73,0,0,1,2.89-3.7.9.9,0,0,0,1.1-.62c1-5,5.77-7.69,9.75-10.19,3.7-2.33,7.53-5.32,8.56-9.79A.59.59,0,0,0,265.26,40.73Z"/><path class="cls-4" d="M276.18,60c.52.26,1.1.26,1.61.53a4.42,4.42,0,0,1,1.32,1.11,4.08,4.08,0,0,1,.92,3.09,5.07,5.07,0,0,1-1.8,3,6.76,6.76,0,0,1-1.59,1,3.5,3.5,0,0,0-1.6,1,.58.58,0,0,0,.21.78,2.66,2.66,0,0,0,2.42-.33,8.37,8.37,0,0,0,1.9-1.34,6.66,6.66,0,0,0,2.12-4.23,5.71,5.71,0,0,0-1.51-4.2,4.62,4.62,0,0,0-1.84-1.24,2.48,2.48,0,0,0-2.16-.06A.49.49,0,0,0,276.18,60Z"/><path class="cls-4" d="M253.69,66.67a20.5,20.5,0,0,0,9.38,2.63c3.11.21,6.91-.16,9.52-2,.31-.22.25-.87-.22-.81-1.51.16-3,.54-4.49.8a31.61,31.61,0,0,1-4.66.38A30.94,30.94,0,0,1,254,66,.37.37,0,0,0,253.69,66.67Z"/><path class="cls-4" d="M254,65.91a11.8,11.8,0,0,0-2.75,4c-.38.76-.72,1.52-1.05,2.29l-.45,1.14a2,2,0,0,0-.22,1.34.86.86,0,0,0,1.25.51,1.34,1.34,0,0,0,.52-.63c.07-.19.12-.39.18-.58.13-.39.26-.77.4-1.16.26-.71.55-1.42.86-2.12a32.68,32.68,0,0,0,1.92-4.38A.4.4,0,0,0,254,65.91Z"/><path class="cls-4" d="M272.34,66.92c0,.15.05.29.07.44v-.3a.92.92,0,0,0,0,.57l.19.35.39.76c.25.47.48,1,.75,1.41L275.45,73a.89.89,0,0,0,1.2.32.88.88,0,0,0,.31-1.2c-.62-1-1.23-2-1.86-2.94-.3-.48-.65-.93-1-1.4l-.49-.7a3.14,3.14,0,0,0-.71-.6C272.61,66.25,272.29,66.63,272.34,66.92Z"/><path class="cls-4" d="M248.19,61a4.4,4.4,0,0,0,.63.9c.22.25.44.49.67.73.4.44.8.87,1.21,1.29s.82.81,1.22,1.22a16.68,16.68,0,0,0,1.62,1.53.67.67,0,0,0,.88-.17.7.7,0,0,0-.06-.89,12.29,12.29,0,0,0-1.53-1.44c-.43-.38-.86-.77-1.31-1.13L250.16,62l-.74-.6c-.13-.11-.27-.24-.41-.34s-.37-.19-.55-.29S248.09,60.82,248.19,61Z"/><path class="cls-4" d="M273.13,67.06c.79-1.13,1.66-2.18,2.54-3.23.43-.52.85-1,1.24-1.58l.6-.86a2.14,2.14,0,0,0,.53-1.1.57.57,0,0,0-.85-.49c-.35.17-.54.59-.75.9l-.62.85c-.4.54-.8,1.07-1.19,1.61-.82,1.11-1.62,2.23-2.33,3.42C272,67.12,272.78,67.56,273.13,67.06Z"/><path class="cls-4" d="M255.89,74.28c2.09,1.62,5.17,2,7.74,2.11s5.8,0,8.11-1.56a.29.29,0,0,0-.14-.53c-2.62.06-5.19.66-7.83.64a23.2,23.2,0,0,1-4-.37A28.3,28.3,0,0,0,256,74,.18.18,0,0,0,255.89,74.28Z"/><path class="cls-4" d="M264.67,43a18.07,18.07,0,0,0,5.44,9c1.31,1.17,2.92,2.09,3.93,3.57s.91,3.18,1.29,4.9a.46.46,0,0,0,.84.11c1-1.43.61-3.46-.05-5a10.22,10.22,0,0,0-3.7-4,17,17,0,0,1-4-4.12,49.06,49.06,0,0,0-3.29-4.76C264.94,42.53,264.61,42.78,264.67,43Z"/><path class="cls-4" d="M267.08,37.7c-.92-2.09-3-3.13-5.1-3.74a13.88,13.88,0,0,0-7.92-.27c-4.58,1.43-7.05,5.93-8.8,10.06a165.39,165.39,0,0,0-6.52,17.08c-1.68,5.61-3,11.86-1.43,17.65,1.63,6.07,6.79,10.21,9,16,.33.85,1.68.51,1.39-.39-1.44-4.51-4.84-7.87-7.14-11.92-2.89-5.09-2.68-10.85-1.47-16.41A96.46,96.46,0,0,1,244.38,50c1.73-4.25,3.2-9.26,6.54-12.59a9.28,9.28,0,0,1,7.65-2.57c2.7.24,6.07.86,7.6,3.37C266.53,38.82,267.34,38.31,267.08,37.7Z"/><path class="cls-4" d="M267.48,38c1.68-1.75,3.56-1.88,5.72-.89a11.49,11.49,0,0,1,4.66,4,27.68,27.68,0,0,1,2.81,6.25c.86,2.3,1.69,4.61,2.45,6.94C284.67,59,286.39,64,286.76,69a28,28,0,0,1-2.39,13,42.59,42.59,0,0,1-3.53,6.55c-1.38,2.1-3,4.06-4.34,6.16-.34.51.4,1,.82.63a37.64,37.64,0,0,0,8.33-12.43,29.47,29.47,0,0,0,2.65-14.2c-.45-5.49-2.3-10.94-4-16.14q-1.38-4.14-3-8.18a17.69,17.69,0,0,0-3.36-5.65c-2.93-3.12-7.92-5.22-11.16-1.45C266.31,37.79,267,38.52,267.48,38Z"/><path class="cls-4" d="M249.52,93.54c0,5,2.15,9.65,4.85,13.79a126.12,126.12,0,0,0,10,12.6.83.83,0,0,0,1.28-.16,77.57,77.57,0,0,0,11.23-23c.22-.77-.92-1.06-1.18-.33a89.68,89.68,0,0,1-11.46,22.46l1.29-.16c-6.46-7.71-13.21-15.25-15.57-25.3A.22.22,0,0,0,249.52,93.54Z"/><path class="cls-4" d="M249.75,94.85l.12,0a.61.61,0,0,0,.32-.31c.09-.16.11-.27.18-.41.13-.3.3-.58.46-.87a5.65,5.65,0,0,1,1.08-1.46c.12-.12.24-.24.36-.34l.18-.15s.19-.15.08-.07a6.56,6.56,0,0,1,.83-.54l.41-.21.14-.06h0l.25-.09a6.37,6.37,0,0,1,1-.26.81.81,0,1,0-.43-1.56,7.66,7.66,0,0,0-3.86,2.22,7.36,7.36,0,0,0-1.29,1.84,5.36,5.36,0,0,0-.37,1.11,2.82,2.82,0,0,0-.1.58.82.82,0,0,0,.28.58A.38.38,0,0,0,249.75,94.85Z"/><path class="cls-4" d="M276.91,97.19a4.73,4.73,0,0,0,.2-2.11,7,7,0,0,0-.72-2,5.77,5.77,0,0,0-3.24-2.83.7.7,0,0,0-.54,1.27,6.33,6.33,0,0,1,2.63,2.23,5.49,5.49,0,0,1,.7,1.56,8.46,8.46,0,0,1,.37,1.8A.31.31,0,0,0,276.91,97.19Z"/><path class="cls-4" d="M167.25,73.6c-1.87,14.47-2.51,29.1-3.16,43.67S163,146.42,162.93,161q-.26,43.74,2.61,87.44c1.05,16.12,1.84,32.51,5.05,48.37.24,1.18,2,.68,1.82-.5-2.89-14.26-3.61-29-4.6-43.45s-1.74-28.93-2.22-43.41q-1.44-43.46.09-86.94c.56-16.31,1.82-32.6,2.23-48.92C167.92,73.17,167.31,73.19,167.25,73.6Z"/><path class="cls-4" d="M71.28,127.63a9.1,9.1,0,0,0,3.43.61c1.56.07,3.12.15,4.68.16l9.08.12c5.84.07,12,.65,17.71-.74a.39.39,0,0,0,0-.75c-5.7-1.39-11.87-.81-17.71-.74l-8.81.11c-1.56,0-3.11.09-4.67.16a9.91,9.91,0,0,0-3.71.62A.26.26,0,0,0,71.28,127.63Z"/><path class="cls-4" d="M72.52,167.59a4.66,4.66,0,0,1-2.22-1.06q0,10.56,0,21.14,0,29.6.05,59.2c0,11.45-.32,23,.17,34.41a.87.87,0,0,0,1.74,0c.43-10.09.15-20.24.16-30.33l0-30Q72.5,194.27,72.52,167.59Z"/><path class="cls-4" d="M72.47,136.23a44.61,44.61,0,0,0-.55-8.49.53.53,0,0,0-1,0c-1,4.81-.58,10-.62,14.85,0,1.22,0,2.45,0,3.67a4.28,4.28,0,0,0,2.27-1v-.46C72.55,141.94,72.5,139.08,72.47,136.23Z"/><path class="cls-4" d="M105.57,127.74c-1,4.81-.58,10-.62,14.85s0,10,0,15.07l0,30q0,29.6.05,59.2c0,11.45-.32,23,.16,34.41a.88.88,0,0,0,1.75,0c.43-10.09.15-20.24.16-30.33l0-30,.06-59.21q0-8.48,0-17c0-2.85,0-5.71-.07-8.56a44.61,44.61,0,0,0-.56-8.49A.53.53,0,0,0,105.57,127.74Z"/><path class="cls-4" d="M77.83,127.4c.06-3.16.13-6.33.2-9.49a.92.92,0,0,0-1.84,0c.07,3.16.13,6.33.2,9.49A.72.72,0,0,0,77.83,127.4Z"/><path class="cls-4" d="M99.77,127.4c.07-3.16.14-6.33.2-9.49a.92.92,0,0,0-1.83,0c.06,3.16.13,6.33.19,9.49A.72.72,0,0,0,99.77,127.4Z"/><path class="cls-4" d="M77,118.16c3.49.74,7.16.53,10.72.61,1.78,0,3.55,0,5.33,0l2.87,0a5.54,5.54,0,0,0,2.43-.27.77.77,0,0,0,0-1.32A5.24,5.24,0,0,0,96,117H93.09c-1.78,0-3.55,0-5.33.05-3.56.08-7.23-.13-10.72.61A.27.27,0,0,0,77,118.16Z"/><path class="cls-4" d="M87.4,48.1c-.47,5.73-.51,11.55-.63,17.31S86.68,77.14,86.64,83s-.06,11.54-.06,17.31-.26,11.77.1,17.6a.88.88,0,0,0,1.75,0c.36-5.74.1-11.57.1-17.32s0-11.72,0-17.59,0-11.54-.14-17.31-.14-11.77-.63-17.59A.16.16,0,0,0,87.4,48.1Z"/><path class="cls-4" d="M60.37,282.43c2,1,4.57.68,6.79.73,2.41.06,4.82,0,7.23,0H89.14c4.91,0,9.83,0,14.74,0s10.06-.08,15-.59a.42.42,0,0,0,0-.83c-5-.51-10-.56-15-.59s-9.83,0-14.74,0H74.39c-2.41,0-4.82,0-7.23.05-2.22,0-4.75-.25-6.79.73A.24.24,0,0,0,60.37,282.43Z"/><path class="cls-4" d="M60.37,287.18c2,1,4.57.68,6.79.73,2.41,0,4.82,0,7.23,0H89.14c4.91,0,9.83,0,14.74,0s10.06-.08,15-.59a.42.42,0,0,0,0-.83c-5-.51-10-.56-15-.59s-9.83,0-14.74,0H74.39c-2.41,0-4.82,0-7.23.05-2.22,0-4.75-.25-6.79.73A.24.24,0,0,0,60.37,287.18Z"/><path class="cls-4" d="M60.74,281.62l-.1.22.13-.13c.09,0,.07,0-.08,0l-.15.14a1.11,1.11,0,0,0-.16.35,2.23,2.23,0,0,0-.09.63c0,.42,0,.84-.07,1.25s0,.81-.07,1.22a4.66,4.66,0,0,0,.2,1.33.64.64,0,0,0,1.22,0,4.77,4.77,0,0,0,.21-1.29c0-.42-.05-.84-.07-1.26s-.05-.8-.07-1.21a2.53,2.53,0,0,0-.1-.67l-.11-.3-.2-.19c-.14-.05-.17-.07-.08,0l.13.13-.09-.22A.26.26,0,0,0,60.74,281.62Z"/><path class="cls-4" d="M118.65,282.63c0,.19,0,.38-.08.57a3.16,3.16,0,0,1-.16.46,3.11,3.11,0,0,0-.18.54l-.06.6c-.09.71-.07,1.45-.1,2.17a.83.83,0,0,0,1.66,0c0-.72,0-1.46-.09-2.17l-.06-.51a2.85,2.85,0,0,0-.19-.63,3.16,3.16,0,0,1-.16-.46c0-.19,0-.38-.08-.57A.26.26,0,0,0,118.65,282.63Z"/><path class="cls-4" d="M70.9,206.61c-.8,5.48-.21,11.23-.07,16.75s.38,11.12.57,16.68l1.14,33.17q1.14,33,2.27,66c.43,12.62.52,25.3,1.42,37.9a.88.88,0,0,0,1.75,0c.06-11.27-.6-22.57-1-33.83l-1.08-33.17q-1.08-33-2.15-66-.3-9.29-.61-18.55c-.1-3.22-.25-6.43-.39-9.64a54.65,54.65,0,0,0-.86-9.31C71.81,206.13,71,206.09,70.9,206.61Z"/><path class="cls-4" d="M105.57,206.61c-1.17,5.42-1,11.23-1.18,16.75s-.37,11.12-.55,16.68l-1.08,33.17q-1.07,33-2.15,66c-.41,12.61-1.17,25.28-1.1,37.9a.87.87,0,0,0,1.74,0c.81-11.25.91-22.57,1.29-33.83l1.14-33.17q1.14-33,2.27-66l.63-18.55c.11-3.21.18-6.43.26-9.64a54.59,54.59,0,0,0-.26-9.31C106.51,206.09,105.68,206.13,105.57,206.61Z"/><path class="cls-4" d="M72.36,207c10.81.68,22,1.55,32.77.7a1.08,1.08,0,0,0,0-2.16c-10.83-.88-21.91-.36-32.77-.36A.91.91,0,0,0,72.36,207Z"/><path class="cls-4" d="M72.36,198.48c10.81.68,22,1.56,32.77.7a1.08,1.08,0,0,0,0-2.16c-10.83-.87-21.91-.36-32.77-.36A.91.91,0,0,0,72.36,198.48Z"/><path class="cls-4" d="M68.38,378.41c1.2.86,2.86.67,4.28.72,1.75.05,3.51.06,5.27.06H88.47c3.42,0,6.84.06,10.26,0a81.64,81.64,0,0,0,10.37-.6.42.42,0,0,0,0-.8,79.09,79.09,0,0,0-10.09-.6c-3.51-.08-7,0-10.54,0H78.2c-1.75,0-3.51,0-5.27.06-1.48,0-3.29-.18-4.55.72A.24.24,0,0,0,68.38,378.41Z"/><path class="cls-4" d="M68.38,382.42c1.2.85,2.86.67,4.28.71,1.75.06,3.51.07,5.27.07H88.47c3.42,0,6.84.06,10.26,0a79.84,79.84,0,0,0,10.37-.61.42.42,0,0,0,0-.8,82.93,82.93,0,0,0-10.09-.6c-3.51-.08-7,0-10.54,0H78.2c-1.75,0-3.51,0-5.27,0-1.48.05-3.29-.17-4.55.73A.24.24,0,0,0,68.38,382.42Z"/><path class="cls-4" d="M68.6,377.67l-.06.12.12-.12a1.28,1.28,0,0,0-.51,1.16c0,.34-.05.68-.07,1s0,.68-.07,1a3,3,0,0,0,.21,1.11.64.64,0,0,0,1.22,0,3.25,3.25,0,0,0,.2-1.11c0-.34,0-.68-.07-1s0-.68-.07-1a1.3,1.3,0,0,0-.5-1.16l.12.12-.07-.12A.26.26,0,0,0,68.6,377.67Z"/><path class="cls-4" d="M108.74,378.54c0,.15,0,.32-.08.47a2.15,2.15,0,0,1-.13.32,2.76,2.76,0,0,0-.2.47c0,.15,0,.3-.06.45-.09.65-.08,1.31-.11,2a.83.83,0,1,0,1.66,0,18.39,18.39,0,0,0-.11-2c0-.14,0-.28-.06-.41a1.87,1.87,0,0,0-.2-.51c0-.11-.1-.21-.13-.32s0-.32-.08-.47A.26.26,0,0,0,108.74,378.54Z"/><path class="cls-4" d="M89.76,207a10.51,10.51,0,0,0-.68,3.12c0,1.2-.07,2.41-.11,3.61-.07,2.5,0,5,0,7.5v44.19c0,5.52-.23,11.2.49,16.68a.59.59,0,0,0,1.17,0c.64-4.86.44-9.85.48-14.73s0-9.82,0-14.73V223.17c0-2.69,0-5.37,0-8.06s0-5.49-.83-8.12A.25.25,0,0,0,89.76,207Z"/><path class="cls-4" d="M89.58,286.2a66.48,66.48,0,0,0-.47,8.82c-.1,3-.16,6-.24,8.93-.17,6.05-.35,12.1-.49,18.14-.26,12.1-.51,24.19-.64,36.29q0,5-.1,10.05,0,2.65-.09,5.31a20.84,20.84,0,0,0,.15,4.93.71.71,0,0,0,1.35,0c.71-2.69.34-5.8.41-8.56.07-3.07.18-6.14.26-9.21.18-6,.38-12.1.48-18.15q.33-18,.56-36l.12-10.05a77.39,77.39,0,0,0-.1-10.33C90.71,285.75,89.7,285.45,89.58,286.2Z"/><path class="cls-4" d="M82.57,138c5.07.23,10.13,0,15.2.2,1.75.06,1.76-2.68,0-2.72a98.89,98.89,0,0,0-15.2.42A1.05,1.05,0,0,0,82.57,138Z"/><path class="cls-4" d="M90.17,145.48c2.53.23,5.06.05,7.6.2,1.75.11,1.75-2.64,0-2.72a25.4,25.4,0,0,0-7.88.46A1.05,1.05,0,0,0,90.17,145.48Z"/><path class="cls-4" d="M90.17,153c2.53.23,5.06.05,7.6.2,1.75.11,1.75-2.64,0-2.73a25.4,25.4,0,0,0-7.88.47A1.05,1.05,0,0,0,90.17,153Z"/><path class="cls-4" d="M90.17,160.51c2.53.24,5.06.05,7.6.21,1.75.1,1.75-2.64,0-2.73a25.71,25.71,0,0,0-7.88.46A1.05,1.05,0,0,0,90.17,160.51Z"/><path class="cls-4" d="M90.17,168c2.53.23,5.06.05,7.6.21,1.75.1,1.75-2.64,0-2.73a25.71,25.71,0,0,0-7.88.46A1.05,1.05,0,0,0,90.17,168Z"/><path class="cls-4" d="M82.57,175.55c5.07.23,10.13,0,15.2.2,1.75.06,1.76-2.68,0-2.72a98.89,98.89,0,0,0-15.2.42A1.05,1.05,0,0,0,82.57,175.55Z"/><path class="cls-4" d="M90.17,183.07c2.53.23,5.06.05,7.6.2,1.75.11,1.75-2.64,0-2.72a25.71,25.71,0,0,0-7.88.46A1.05,1.05,0,0,0,90.17,183.07Z"/><path class="cls-4" d="M90.17,190.59c2.53.23,5.06,0,7.6.2,1.75.11,1.75-2.64,0-2.72a25.4,25.4,0,0,0-7.88.46A1.05,1.05,0,0,0,90.17,190.59Z"/><path class="cls-4" d="M90.17,198.11c2.53.23,5.06,0,7.6.2,1.75.11,1.75-2.64,0-2.73a25.4,25.4,0,0,0-7.88.47A1.05,1.05,0,0,0,90.17,198.11Z"/><path class="cls-4" d="M90.17,205.62c2.53.24,5.06,0,7.6.21,1.75.1,1.75-2.64,0-2.73a25.71,25.71,0,0,0-7.88.46A1.05,1.05,0,0,0,90.17,205.62Z"/><path class="cls-4" d="M82.57,213.14c5.07.23,10.13.05,15.2.21,1.75.05,1.76-2.69,0-2.73a98.89,98.89,0,0,0-15.2.43A1,1,0,0,0,82.57,213.14Z"/><path class="cls-4" d="M90.17,220.66c2.53.23,5.06.05,7.6.21,1.75.1,1.75-2.65,0-2.73a25.71,25.71,0,0,0-7.88.46A1.05,1.05,0,0,0,90.17,220.66Z"/><path class="cls-4" d="M90.17,228.18c2.53.23,5.06,0,7.6.2,1.75.11,1.75-2.64,0-2.72a25.71,25.71,0,0,0-7.88.46A1.05,1.05,0,0,0,90.17,228.18Z"/><path class="cls-4" d="M90.17,235.7c2.53.23,5.06.05,7.6.2,1.75.11,1.75-2.64,0-2.72a25.71,25.71,0,0,0-7.88.46A1.05,1.05,0,0,0,90.17,235.7Z"/><path class="cls-4" d="M90.17,243.22c2.53.23,5.06.05,7.6.2,1.75.11,1.75-2.64,0-2.73a25.4,25.4,0,0,0-7.88.47A1.05,1.05,0,0,0,90.17,243.22Z"/><path class="cls-4" d="M82.57,250.73c5.07.23,10.13.05,15.2.21,1.75.05,1.76-2.68,0-2.73a98.89,98.89,0,0,0-15.2.43A1,1,0,0,0,82.57,250.73Z"/><path class="cls-4" d="M166.92,73.69a76.78,76.78,0,0,0-14.42,5A20.06,20.06,0,0,0,143,88a243.83,243.83,0,0,0-12.24,28.79c-1,2.74-2,5.49-2.89,8.25s-2.28,5.69-2.57,8.58c-.08.77,1.08,1,1.43.38,1.15-2.11,1.65-4.69,2.41-7s1.58-4.69,2.42-7q2.53-7.09,5.39-14.06,3-7.2,6.21-14.26c2-4.33,4.09-8.17,8.33-10.65a54.42,54.42,0,0,1,7.4-3.41c2.74-1.1,5.48-2.17,8.28-3.08A.44.44,0,0,0,166.92,73.69Z"/><path class="cls-4" d="M125.4,133.35a5,5,0,0,0-2.3.66c-.83.33-1.66.64-2.49,1-1.73.65-3.46,1.26-5.21,1.85C112,138,108.52,139.1,105,140.09a1.07,1.07,0,0,0,.57,2.07c3.59-1.1,7.17-2.27,10.66-3.65q2.51-1,5-2.06c.82-.35,1.63-.71,2.44-1.08a4.78,4.78,0,0,0,2.15-1.3C126.06,133.74,125.72,133.39,125.4,133.35Z"/><path class="cls-4" d="M66.47,147.32c.76.49,1.71.1,2.55,0,1-.12,2-.32,3-.41a23.52,23.52,0,0,1,2.91-.12,2.79,2.79,0,0,1,1.66.51l.17.23c0,.09-.15.25-.31.35a10.28,10.28,0,0,1-2.38.81c-1,.3-1.95.62-2.94.91a6.42,6.42,0,0,1-2.49.41,1.52,1.52,0,0,1-1.4-1c-.19-.6,0-.84.4-1.24.61-.61,0-1.41-.77-1.31a2,2,0,0,0-1.46,2,3.29,3.29,0,0,0,.91,2.36c1.73,1.8,4.58.75,6.59.14,1.24-.38,2.51-.69,3.72-1.14a2.7,2.7,0,0,0,2-1.94c.39-2.26-2.47-2.93-4.15-2.87a31.37,31.37,0,0,0-4.32.48A14.58,14.58,0,0,0,68,146c-.67.22-1.3.34-1.61,1Z"/><path class="cls-4" d="M66.72,152.91a26,26,0,0,1,5.36-.2,14.85,14.85,0,0,1,2.65.55c.41.13.82.27,1.23.43.2.08.67.18.81.36,0,0,0-.12,0,0l-.29.23a2.68,2.68,0,0,1-.94.35l-2.94.67c-1.6.36-3.63,1.09-5.18.21-.53-.3-1.13-.89-1-1.57a1.63,1.63,0,0,1,1.37-1.12c.61-.11.62-.94.17-1.24a2.08,2.08,0,0,0-2.8.75,3,3,0,0,0-.41,2.85c.94,2.39,3.71,2.76,5.93,2.38,1.37-.24,2.73-.61,4.08-.92a6.77,6.77,0,0,0,3-1.14,1.78,1.78,0,0,0,.22-2.68,6.38,6.38,0,0,0-3.15-1.22c-2.66-.56-5.84-.66-8.35.51A.44.44,0,0,0,66.72,152.91Z"/><path class="cls-4" d="M67,159.57c1-.35,1.87-1.06,2.93-1.39a9.16,9.16,0,0,1,3.21-.38,8.45,8.45,0,0,1,5.7,2.68l.18-1.37a18.2,18.2,0,0,1-6.7,2,10.47,10.47,0,0,1-3.21,0c-.58-.13-1.45-.39-1.35-1.12.06-.47-.45-.87-.88-.87A.88.88,0,0,0,66,160a2.49,2.49,0,0,0,1.66,2.47,8.13,8.13,0,0,0,3.76.47,20.19,20.19,0,0,0,8.47-2.32.89.89,0,0,0,.18-1.38,9.43,9.43,0,0,0-6.86-2.86,10.19,10.19,0,0,0-3.62.63c-1.08.42-2.43,1-3,2.11C66.54,159.34,66.71,159.67,67,159.57Z"/><path class="cls-4" d="M68.59,162.94a12.53,12.53,0,0,1,7.78,5.49l.68-1.19a10.87,10.87,0,0,1-6-1.48,9.24,9.24,0,0,1-2.41-1.9,1.45,1.45,0,0,1-.44-1,.54.54,0,0,1,.59-.45.81.81,0,0,0,.81-.72.83.83,0,0,0-.59-.91c-1.57-.58-2.8,1.21-2.57,2.61s1.47,2.45,2.56,3.25a12.12,12.12,0,0,0,8.1,2.22.8.8,0,0,0,.68-1.19,12.7,12.7,0,0,0-9-5.55C68.21,162,68.11,162.83,68.59,162.94Z"/><path class="cls-4" d="M143.09,112.86c-1,5.7-1.31,11.61-1.76,17.38s-.93,11.82-1.39,17.74c-.91,11.78-1.8,23.57-2.5,35.37-1.4,23.56-2.26,47.18-1.71,70.79.3,13.22.79,26.58,2.51,39.7.14,1.08,1.83,1.15,1.74,0-.83-11.76-1.79-23.49-2.14-35.28s-.34-23.41-.08-35.1c.52-23.54,2.09-47,3.72-70.51q.69-10,1.4-19.93c.23-3.25.42-6.49.6-9.75.19-3.42.5-6.87.43-10.3C143.9,112.52,143.17,112.38,143.09,112.86Z"/><path class="cls-4" d="M138.82,294.69c5.42.82,10.84,1.52,16.3,2q4.11.39,8.23.67c1.37.1,2.74.19,4.12.27s2.78.39,4,0c.48-.15.71-.95.15-1.19A10.22,10.22,0,0,0,168,296l-3.85-.23c-2.83-.19-5.67-.41-8.5-.66-5.56-.5-11.13-1.07-16.67-1.74C138.25,293.27,138.06,294.57,138.82,294.69Z"/><path class="cls-4" d="M106.24,162.21c6.66-.52,13.31-1.16,20-1.81,5.25-.52,10.74-.89,15-4.31,1-.83-.43-2.29-1.45-1.46-4.17,3.4-10.13,3.49-15.23,4-6.11.66-12.21,1.33-18.3,2.11C105.34,160.88,105.3,162.28,106.24,162.21Z"/><path class="cls-4" d="M199.61,76.79a3.11,3.11,0,0,0,1.37.61,10.39,10.39,0,0,1,2.5,1.34c1.43,1,2.8,2.06,4.17,3.11a103,103,0,0,1,8.3,6.88c4.79,4.53,8.8,10,10.36,16.49.21.9,1.6.52,1.39-.38-1.63-6.81-5.87-12.58-10.92-17.3a88.08,88.08,0,0,0-8.89-7.1c-1.45-1-2.88-2.16-4.42-3.06-1-.6-2.64-1.61-3.81-1A.26.26,0,0,0,199.61,76.79Z"/><path class="cls-4" d="M200.17,76.87c-.74,2.52-.43,5.54-.47,8.14q-.06,4.18-.11,8.36c-.08,5.67-.18,11.34-.24,17-.12,11.34-.13,22.68-.2,34,0,3.25,0,6.51-.05,9.76,0,3.07-.34,6.33.1,9.37a.66.66,0,0,0,1.26,0,55.46,55.46,0,0,0,.21-8.26l.06-8.36q0-8.5.11-17,.1-17,.1-34c0-3.25,0-6.5,0-9.75,0-1.58,0-3.17,0-4.74a18.45,18.45,0,0,0-.35-4.52A.2.2,0,0,0,200.17,76.87Z"/><path class="cls-4" d="M198.37,189.48c-.38,5.85-.43,11.71-.4,17.57a.88.88,0,0,0,1.75,0c0-5.86,0-11.72-.39-17.57A.48.48,0,0,0,198.37,189.48Z"/><path class="cls-4" d="M167.76,74.69a71.77,71.77,0,0,0,17.69,24.55.77.77,0,0,0,1.07,0c5.68-6.59,8.82-14.85,14-21.8.41-.55-.53-1.28-1-.74-5.39,6.7-8.44,15-14.08,21.47h1.07a93.39,93.39,0,0,1-18.24-23.79C168.09,74,167.61,74.34,167.76,74.69Z"/><path class="cls-4" d="M165.54,200.49c2.55,1,5.53,1.14,8.23,1.47s5.61.66,8.43.85,5.64.33,8.46.41c1.45,0,2.91.07,4.36.08a11.66,11.66,0,0,0,4-.26.67.67,0,0,0,0-1.27,13,13,0,0,0-4-.27c-1.45,0-2.91,0-4.36-.09q-4.09-.14-8.19-.41c-2.72-.18-5.44-.36-8.16-.6s-5.83-.89-8.67-.68A.39.39,0,0,0,165.54,200.49Z"/><path class="cls-4" d="M141.33,294.45c-.75,23.3-.41,46.65-.4,70a.9.9,0,0,0,.89.89q8.75.06,17.46-.72a.91.91,0,0,0,.87-.66c3.17-22.05,5.71-44.33,6-66.63,0-.63-.91-.61-1,0-1.91,22.1-3.68,44.19-6.82,66.16l.86-.66q-8.7.78-17.46.73l.89.89c0-23.31.28-46.66-.5-70A.44.44,0,0,0,141.33,294.45Z"/><path class="cls-4" d="M170,274.15c.73-3.54,1.08-7.17,1.56-10.75s.95-7,1.38-10.46q1.33-10.81,2.68-21.64h-1.66q5.84,46.08,10.63,92.28.66,6.36,1.31,12.73c.43,4.3.74,8.65,1.51,12.91.14.76,1.34.57,1.33-.18-.13-7.74-1.33-15.55-2.13-23.25s-1.6-15.12-2.43-22.68q-2.53-22.94-5.32-45.86-1.57-13-3.24-25.95a.83.83,0,0,0-1.66,0l-2.61,21.36c-.43,3.51-.82,7-1.21,10.54s-.94,7.21-1.09,10.82A.49.49,0,0,0,170,274.15Z"/><path class="cls-4" d="M143.21,364.09c-1.11,4.78-5,7.39-8.7,10.14a12.51,12.51,0,0,0-3.84,4c-.66,1.27-1.35,3.63,0,4.74.78.67,1.92.49,2.87.47l4.42-.11,8.56-.22,8.56-.21c1.74,0,4.86.55,5.77-1.41.51-1.1.16-2.53,0-3.68-.17-1.43-.36-2.87-.6-4.29a70.5,70.5,0,0,0-2.12-9.53,1,1,0,0,0-1.85.51,114.23,114.23,0,0,1,2.63,13.85,6.16,6.16,0,0,1,.17,1.75c-.1.49.12.37-.37.62a2.23,2.23,0,0,1-.89.12c-1.19.09-2.4.06-3.59.09l-7.18.19-6.9.17c-2.36.06-4.83.34-7.18.19-.62,0-1,0-1-.66a2.86,2.86,0,0,1,.27-1.17,7.26,7.26,0,0,1,1.65-2.35,37,37,0,0,1,4-3.22c3.16-2.44,6-5.55,6.79-9.57C144.74,363.59,143.42,363.21,143.21,364.09Z"/><path class="cls-4" d="M166.9,74.92c2.48-.91,5.53-.41,7.27-2.77a12.17,12.17,0,0,0,1.7-4.32c.2-.83.35-1.66.47-2.51a9.12,9.12,0,0,0,.14-2.55c-.1-.63-1.08-.58-1.22,0a21.47,21.47,0,0,0-.24,2.28,22.37,22.37,0,0,1-.43,2.31,14,14,0,0,1-1.46,4.08c-1.41,2.22-4.52,1.5-6.48,2.89C166.37,74.52,166.53,75.06,166.9,74.92Z"/><path class="cls-4" d="M195.24,64.72c-.36,1.52-.53,3.07-.75,4.62a8.85,8.85,0,0,0,0,4.4,5.82,5.82,0,0,0,2.24,2.64,8.53,8.53,0,0,0,1.61.85,2,2,0,0,0,1.58.21.34.34,0,0,0,.15-.37c-.1-.41-.54-.7-.89-.9s-.94-.58-1.39-.89a4.18,4.18,0,0,1-1.85-2.4,12.23,12.23,0,0,1,0-3.82c.09-1.41.21-2.81.17-4.23A.44.44,0,0,0,195.24,64.72Z"/><path class="cls-4" d="M169.69,44.15c.13,8.21,1.47,18.35,9.81,22.38,6.95,3.35,17.2.87,20.82-6.27a29.51,29.51,0,0,0,2.15-7.51l1.83-9c.15-.71-.94-1-1.09-.3-.6,2.89-1.21,5.78-1.81,8.67-.55,2.68-1,5.46-2.49,7.82-2.56,4.13-7.78,6.36-12.5,6.44a13.44,13.44,0,0,1-12-7c-2.71-4.64-3.4-10.12-4.29-15.33C170,43.88,169.68,43.94,169.69,44.15Z"/><path class="cls-4" d="M170.38,42.63c-2.69-.26-4.87,2.55-4.69,5.11a5.27,5.27,0,0,0,1.78,3.48,6.15,6.15,0,0,0,1.65,1.07,2.87,2.87,0,0,0,2.09.34.52.52,0,0,0,.12-1,9.6,9.6,0,0,0-1.53-.56,4.59,4.59,0,0,1-2.67-3.45,4.08,4.08,0,0,1,3.35-4.31C170.92,43.27,170.77,42.66,170.38,42.63Z"/><path class="cls-4" d="M203.27,44.77a4.17,4.17,0,0,1,3.26,5,5.17,5.17,0,0,1-1.83,2.85,6.1,6.1,0,0,1-1.47.88,4.87,4.87,0,0,1-.84.28,3.54,3.54,0,0,0-.47.07,2.78,2.78,0,0,0-.47.28.4.4,0,0,0-.18.45,1,1,0,0,0,.84.73,3.38,3.38,0,0,0,1.25-.27,7.58,7.58,0,0,0,2.08-1.11A6.59,6.59,0,0,0,208,50.13c.62-2.79-1.55-6.27-4.64-6C203,44.15,202.88,44.7,203.27,44.77Z"/><path class="cls-4" d="M171.4,24.35C170.35,30,178.94,32,183,31.72c6-.34,11.19-5.39,17.31-4.4a.8.8,0,0,0,.88-.36c1.66-3.54,0-7.62-3-9.83-3.46-2.5-8.3-2.93-12.44-2.56a20.3,20.3,0,0,0-11.07,4.26,21.26,21.26,0,0,0-4.05,5c-1.31,1.93-2.76,3.34-3.23,5.72a21.89,21.89,0,0,0,2.89,15.11.78.78,0,0,0,1.41-.18q1.61-7.55,3.22-15.09c.21-1-1.31-1.41-1.52-.42q-1.59,7.56-3.19,15.1l1.41-.18c-2.54-4.27-4.16-10.46-2.32-15.3a13.07,13.07,0,0,1,2.15-3.16c.69-.9,1.23-1.89,1.9-2.81a14.55,14.55,0,0,1,5.19-4.28,22.63,22.63,0,0,1,13.13-1.91,11.52,11.52,0,0,1,6.86,3.08,6.08,6.08,0,0,1,1.34,6.71l.87-.36c-5.07-.93-9.42,1.87-14.07,3.36a15.92,15.92,0,0,1-8.38.53c-2.5-.57-6.24-2.12-6-5.25A.42.42,0,0,0,171.4,24.35Z"/><path class="cls-4" d="M199.64,26.15c1.88,6.66,1.51,13.59,2.71,20.36.16.91,1.42.73,1.67,0a56.29,56.29,0,0,0,3.25-15.21c.2-3.87-1.4-8.47-5.67-9.3-.74-.14-1.06,1-.32,1.14,4.62,1,5.13,6.36,4.55,10.18a56.93,56.93,0,0,1-1.54,6.28q-.89,3.24-1.94,6.44H204c-1.27-6.63-.46-14-4-20A.2.2,0,0,0,199.64,26.15Z"/><path class="cls-4" d="M169.92,44c1.45,2.36,3,4.74,5.66,5.91,3,1.32,6.75,1.38,9.94,1.53a57.84,57.84,0,0,0,10.69,0,9.12,9.12,0,0,0,7-4.37.74.74,0,0,0-1.28-.75c-1.53,2.64-4.58,3.52-7.44,3.74a82.08,82.08,0,0,1-9.28,0c-2.95-.1-6.35-.09-9.12-1.21-2.41-1-4.12-3.28-5.67-5.27C170.23,43.3,169.72,43.71,169.92,44Z"/><path class="cls-4" d="M173,47.37c-.24,1.47-.36,3-.63,4.42-.14.72-.31,1.42-.47,2.12-.08.38-.16.77-.25,1.15a2,2,0,0,0-.1,1.16.63.63,0,0,0,1,.27,2,2,0,0,0,.49-1c.11-.38.22-.75.3-1.13.17-.74.26-1.51.36-2.26a17.94,17.94,0,0,0,.12-4.57C173.79,47.05,173.07,46.83,173,47.37Z"/><path class="cls-4" d="M199.52,49.93a23.13,23.13,0,0,0,.08,4.48c.1.71.22,1.42.37,2.12a4,4,0,0,0,.33,1c.12.25.22.53.56.51.66,0,.44-1.14.36-1.55-.13-.7-.24-1.4-.32-2.11a44.44,44.44,0,0,1-.37-4.46A.51.51,0,0,0,199.52,49.93Z"/><path class="cls-4" d="M178.49,56.82c2.63,1.83,6.32,2.47,9.47,2.59s6.79-.51,9.21-2.62c.2-.18,0-.43-.24-.4-1.54.21-3,.57-4.57.91a28.94,28.94,0,0,1-4.56.52,21.79,21.79,0,0,1-4.63-.27c-1.54-.25-3-.76-4.51-1.13A.22.22,0,0,0,178.49,56.82Z"/><path class="cls-4" d="M187.6,374.69c-.16,2.67-.29,5.32-.34,8a.75.75,0,0,0,.73.72,25.14,25.14,0,0,0,8.69-.37.83.83,0,0,0-.44-1.6A32.2,32.2,0,0,1,188,382l.72.72c-.1-2.67-.29-5.32-.5-8A.31.31,0,0,0,187.6,374.69Z"/><path class="cls-4" d="M165.53,74.44c-2.22,2.9-4.21,5.92-6.14,9-1,1.56-1.92,3.13-2.83,4.72-.46.8-.91,1.6-1.36,2.41a4.85,4.85,0,0,0-.9,2.18.51.51,0,0,0,.77.44,4.92,4.92,0,0,0,1.36-1.9c.45-.81.91-1.61,1.37-2.41.91-1.58,1.82-3.18,2.75-4.76,1.84-3.13,3.76-6.21,5.59-9.35C166.38,74.39,165.8,74.09,165.53,74.44Z"/><path class="cls-4" d="M154.29,93.05a6.89,6.89,0,0,0,1.54,2.65,12.59,12.59,0,0,0,2.08,2.11c0-.26-.07-.52-.1-.79a61.25,61.25,0,0,1-3.89,4.74c-.56.62.35,1.53.9.91,1.46-1.59,2.82-3.26,4.12-5a.65.65,0,0,0-.11-.79A16.19,16.19,0,0,1,156.78,95a24.29,24.29,0,0,0-1.83-2.3A.4.4,0,0,0,154.29,93.05Z"/><path class="cls-4" d="M154,102.47c1.37,6.32,3.55,12.49,5.32,18.71.86,3,1.74,6.09,2.59,9.13s1.42,6.36,2.73,9.24a.45.45,0,0,0,.83-.22c-.26-3.07-1.4-6.14-2.21-9.1-.89-3.23-1.79-6.45-2.75-9.66-1.82-6.13-3.47-12.44-6-18.33C154.36,101.93,153.9,102.16,154,102.47Z"/><path class="cls-4" d="M199.3,76.18c1.84,3.07,3.75,6.09,5.59,9.15.93,1.55,1.84,3.11,2.76,4.67L209,92.35a4.71,4.71,0,0,0,1.36,1.86.52.52,0,0,0,.77-.44,4.72,4.72,0,0,0-.91-2.14c-.44-.79-.9-1.57-1.35-2.36C208,87.66,207,86.08,206,84.51c-1.92-3-3.9-5.94-6.1-8.75C199.61,75.44,199.1,75.85,199.3,76.18Z"/><path class="cls-4" d="M210.49,93.66a6.55,6.55,0,0,0-.91,1.12,12.49,12.49,0,0,1-.91,1.13,16,16,0,0,1-2.06,1.88.65.65,0,0,0-.1.79q1.94,2.55,4.11,4.89c.56.61,1.47-.3.91-.91q-2.06-2.22-3.89-4.64l-.24.9a12.75,12.75,0,0,0,2.16-2.12A6.78,6.78,0,0,0,211.15,94,.4.4,0,0,0,210.49,93.66Z"/><path class="cls-4" d="M211,103c-2.51,5.75-4.16,11.93-6,17.93-.93,3-1.8,6.12-2.67,9.19s-2,6.08-2.29,9.17a.45.45,0,0,0,.83.22c1.28-2.73,1.84-5.87,2.66-8.77.87-3.07,1.78-6.13,2.66-9.2,1.77-6.09,4-12.13,5.33-18.32C211.54,103,211.09,102.72,211,103Z"/><path class="cls-2" d="M137.07,23.49a16.66,16.66,0,0,0-22.22-15l.26,0a18.11,18.11,0,0,0-10.66,6.27,17,17,0,0,0-3.6,13.09A15.94,15.94,0,0,0,108.44,39a19.35,19.35,0,0,0,10.08,2.34,20.44,20.44,0,0,0,12.36-4.19A16.93,16.93,0,0,0,137.07,23.49Z"/><path class="cls-5" d="M131.46,23.79a11.53,11.53,0,0,0-15.37-10.37l.18,0a12.47,12.47,0,0,0-7.37,4.33,11.7,11.7,0,0,0-2.49,9.05,11,11,0,0,0,5.25,7.75,13.35,13.35,0,0,0,7,1.61,14.17,14.17,0,0,0,8.55-2.89A11.76,11.76,0,0,0,131.46,23.79Z"/><path class="cls-6" d="M122.52,8.56c-6.92-2.33-14.22.5-18.61,6.24S98.45,29.35,103,35.18c5,6.45,14.6,8.81,22.29,6.45,7.09-2.18,13.65-8.87,13.35-16.7-.17-4.49-3-9.17-6-12.41-3.17-3.44-7.63-5.66-12.38-5.1-1.32.15-1.33,2.24,0,2.08,7.67-.91,13.9,6.18,15.89,13,2.12,7.23-3.91,14.28-10.36,16.67s-14.65,1-19.72-3.89S101.43,22.57,105,17c3.68-5.71,10.77-8.33,17.38-7.51C123,9.58,123,8.72,122.52,8.56Z"/><path class="cls-6" d="M118.1,2c-.85,1.68-.27,4.24-.13,6a1.12,1.12,0,0,0,2.24,0c.1-1.87.23-4.73-1.21-6.16A.57.57,0,0,0,118.1,2Z"/><path class="cls-6" d="M116.45,2.74a16.13,16.13,0,0,1,4.79-.48c1.44.09,1.44-2.14,0-2.24a8.58,8.58,0,0,0-5.36,1.35A.75.75,0,0,0,116.45,2.74Z"/><path class="cls-6" d="M102.6,9c.74,1.46,2.54,2.4,3.74,3.46s2.34,2.63,3.85,3.1a.92.92,0,0,0,1.13-1.12c-.51-1.62-2.41-2.82-3.71-3.82s-2.78-2.42-4.48-2.55A.62.62,0,0,0,102.6,9Z"/><path class="cls-6" d="M103.17,10.61A5.32,5.32,0,0,1,105.62,8c1.51-.79.17-3.08-1.34-2.29a6.68,6.68,0,0,0-3.25,4C100.63,11,102.63,11.84,103.17,10.61Z"/><path class="cls-6" d="M95.92,24.63a9.79,9.79,0,0,0,5,1.05c1.52,0,1.45-2.48,0-2.32s-3.19.1-4.77.26A.55.55,0,0,0,95.92,24.63Z"/><path class="cls-6" d="M94.47,22.18a10.55,10.55,0,0,0,.24,5.49A1.34,1.34,0,0,0,97.29,27a11.15,11.15,0,0,1-.23-4.07,1.39,1.39,0,0,0-.94-1.65A1.35,1.35,0,0,0,94.47,22.18Z"/><path class="cls-6" d="M97.39,39.15a7.93,7.93,0,0,0,3.25,3.14,1.48,1.48,0,0,0,2-.52,1.46,1.46,0,0,0-.51-2,9.2,9.2,0,0,1-2.32-2.05,1.42,1.42,0,0,0-1.89-.5A1.4,1.4,0,0,0,97.39,39.15Z"/><path class="cls-6" d="M113.82,37.67c-.93.81-1.06,2.17-1.28,3.34-.27,1.4-.54,2.8-.71,4.21a1.24,1.24,0,0,0,.92,1.21,1.86,1.86,0,0,0,.34,0,1.28,1.28,0,0,0,1.21-.93c.25-1.39.41-2.81.57-4.22.14-1.19.42-2.5-.23-3.56A.52.52,0,0,0,113.82,37.67Z"/><path class="cls-6" d="M109.71,46.68a9.36,9.36,0,0,0,6,1.11c1.78-.2,1.84-3,0-2.83a17.9,17.9,0,0,1-2.74,0c-.9-.07-1.76-.34-2.66-.39C109.08,44.53,108.87,46.1,109.71,46.68Z"/><path class="cls-6" d="M107.46,28.39a8.5,8.5,0,0,0-3.84.2c-1.59.25-3.16.53-4.74.8-1.42.24-.84,2.52.6,2.19s3.12-.69,4.67-1a8.15,8.15,0,0,0,3.54-1.3A.51.51,0,0,0,107.46,28.39Z"/><path class="cls-6" d="M98.38,28.32c-1.53.69-1.09,3.65-.66,4.88a1.35,1.35,0,1,0,2.47-1.05,6.72,6.72,0,0,1-.51-2,2.85,2.85,0,0,0-.51-1.74A.66.66,0,0,0,98.38,28.32Z"/><path class="cls-6" d="M127.56,13.45a18.34,18.34,0,0,0,2.89-2.82,12.47,12.47,0,0,0,2.61-3.16c.46-1.07-.53-2.41-1.71-1.71a12,12,0,0,0-2.8,3A18.83,18.83,0,0,0,126.08,12C125.65,12.87,126.58,14.09,127.56,13.45Z"/><path class="cls-6" d="M129.84,5.63a8,8,0,0,0,1.48,1.8,11.71,11.71,0,0,1,1.41,1.73A1.41,1.41,0,1,0,135,7.44c-1.08-1.34-2.55-2.94-4.37-3.1C129.88,4.27,129.57,5.1,129.84,5.63Z"/><path class="cls-6" d="M128,33.81a37.85,37.85,0,0,0,5.27,6.33c1.21,1.31,3.14-.64,1.95-2a36.15,36.15,0,0,0-5.82-5.78C128.54,31.8,127.53,33,128,33.81Z"/><path class="cls-6" d="M133.2,42.82a8.49,8.49,0,0,0,2.42-1.72,8,8,0,0,0,2-2.08,1.42,1.42,0,0,0-1.92-1.92,9,9,0,0,0-2.13,1.76,9.64,9.64,0,0,0-1.94,1.94C131.06,41.77,132,43.25,133.2,42.82Z"/><path class="cls-6" d="M131.47,24.55c1.35.72,2.94.52,4.44.45,1.87-.09,3.74-.27,5.6-.47a1.3,1.3,0,1,0-.35-2.56c-1.87.27-3.74.46-5.62.65-1.38.14-2.88.09-4.07.83A.65.65,0,0,0,131.47,24.55Z"/><path class="cls-6" d="M142.58,26.74c.74-.66.69-2.06.83-3a9.08,9.08,0,0,0,0-3.56,1.51,1.51,0,0,0-1.83-1,1.61,1.61,0,0,0-.36.15,1.5,1.5,0,0,0-.68,1.68c.4,1.38-.08,2.86.11,4.28C140.75,26.05,141.6,27.6,142.58,26.74Z"/><path class="cls-6" d="M125.78,20.3c.47.59,1.43.38,2,.17.85-.28,1.69-.58,2.52-.89a1.42,1.42,0,1,0-1.1-2.6C128.42,17.41,124.65,18.91,125.78,20.3Z"/><path class="cls-6" d="M129.07,16.71a12.13,12.13,0,0,1,1.31,2.86,1.76,1.76,0,0,0,2.13,1.2,1.73,1.73,0,0,0,1.2-2.12,5.43,5.43,0,0,0-3.4-3.55A1.11,1.11,0,0,0,129.07,16.71Z"/><path class="cls-6" d="M123.62,41.33c-.76,1.17-.26,2.81.48,3.85a1.53,1.53,0,1,0,2.4-1.85c-.49-.57-.86-1.53-1.41-2.19A1,1,0,0,0,123.62,41.33Z"/><path class="cls-6" d="M101.34,39.88A10,10,0,0,0,105.71,37c1.11-1.08-.66-2.83-1.69-1.69s-2.37,2.14-3.35,3.39A.69.69,0,0,0,101.34,39.88Z"/><path class="cls-6" d="M113.24,22.47A6.83,6.83,0,0,0,111,20.66a1.31,1.31,0,1,0-1,2.39,6.82,6.82,0,0,0,2.9.38A.66.66,0,0,0,113.24,22.47Z"/><path class="cls-6" d="M108.9,22.11l-.12-.09c.13.33.26.65.4,1a2.71,2.71,0,0,0,0-.41l-.16.58a5.89,5.89,0,0,0,.29-.9c-.25.62.35-.19.43-.29.52-.63,1-1.29,1.44-2l-3.42-1.44A9.56,9.56,0,0,1,106.33,22,1.92,1.92,0,0,0,109.65,24a10.28,10.28,0,0,0,1.76-4.39A1.88,1.88,0,0,0,108,18.11c-.73,1.18-1.74,2.52-1.62,4a1.63,1.63,0,0,0,2.53,1.35A.77.77,0,0,0,108.9,22.11Z"/><path class="cls-6" d="M119.53,17.53a3.31,3.31,0,0,0,.42-2c0-.79.06-1.57.12-2.36.14-1.53-2.43-1.58-2.42,0,0,1.32-.22,3.52.83,4.52A.68.68,0,0,0,119.53,17.53Z"/><path class="cls-6" d="M115.89,13.2a2,2,0,0,0,1.75,1c.89.12,1.8.13,2.69.2-.13-.9-.25-1.8-.37-2.7a6.22,6.22,0,0,1-3.26.15c.12.87.23,1.74.34,2.61a2.94,2.94,0,0,1,.93-.17c1.39-.22,1.25-2.36,0-2.67a3.21,3.21,0,0,0-2.36.38,1.44,1.44,0,0,0,.34,2.6,8.07,8.07,0,0,0,4.74-.25,1.39,1.39,0,0,0,1-1.51,1.35,1.35,0,0,0-1.34-1.19C119.56,11.7,115.22,11.47,115.89,13.2Z"/><path class="cls-6" d="M118.81,31c-1.06,1.08-1,3.09-1.16,4.49-.22,1.69,2.74,1.8,2.72,0,0-1.33.29-3.23-.56-4.36A.65.65,0,0,0,118.81,31Z"/><path class="cls-6" d="M116.12,36.33c.46,1.8,3.15,2.09,4.66,2a1.81,1.81,0,0,0,1.77-1.77,1.78,1.78,0,0,0-1.77-1.76,17.21,17.21,0,0,1-2.15.06,3.46,3.46,0,0,0-2,.3A1.07,1.07,0,0,0,116.12,36.33Z"/><path class="cls-6" d="M126.62,29.31A6.88,6.88,0,0,1,127.88,27l-2.41-.64a2.12,2.12,0,0,1-.72,2l2.15.88a1.32,1.32,0,0,1,.18-.84s.25-.42.28-.35c.09-.09,0-.09-.2,0a3.32,3.32,0,0,0,.44-.06,1.25,1.25,0,0,0,.86-1.52c-.5-1.68-2.35-1.11-3.26-.16A4.22,4.22,0,0,0,124,29.61a1.48,1.48,0,0,0,2.2,1.26,4.74,4.74,0,0,0,2-5.28,1.46,1.46,0,0,0-2.41-.64,4.5,4.5,0,0,0-1.4,4.07A1.21,1.21,0,0,0,126.62,29.31Z"/><path class="cls-6" d="M113.21,30.61c.13.14,0,0,0-.05-.27-.47-.07-.07,0,0a.44.44,0,0,1,0,.2c0-.1,0-.1,0,0s-.13.21-.28.26a.58.58,0,0,1-.48,0c.22.09-.17-.13,0,0s-.09-.16,0,.05a1.76,1.76,0,0,0,.14.23c.12.19-.06-.24,0,0,0-.2,0-.25,0-.15,0,.58.47.31,1.42-.82-.09-.05-.08-.05,0,0a.48.48,0,0,1,.19.21c-.13-.2.08.28,0,.06s0,.31,0,.07a1.47,1.47,0,0,1,0-.21,1.69,1.69,0,0,0-.2-.95l.09.74,0-.1a.89.89,0,0,0-.85-1.11c-.09,0-.08,0,0,0a1.16,1.16,0,0,0-.64,0,1.36,1.36,0,0,0-.62.4,1.84,1.84,0,0,0-.46,1.16,2.2,2.2,0,0,0,.65,1.59,1.64,1.64,0,0,0,2.53-.17,1.85,1.85,0,0,0-.06-1.9A3.11,3.11,0,0,0,113.59,29a1.82,1.82,0,0,0-2.18.35,1.59,1.59,0,0,0,0,2.17,1.27,1.27,0,0,0,1.85.16A.75.75,0,0,0,113.21,30.61Z"/><path class="cls-6" d="M119.83,24.56a3.07,3.07,0,0,0-1.17-.72l.9.91c-.15-.4,0,0,0,0l0,.06.29-.16.41-.13c-.17,0-.17,0,0,0a.41.41,0,0,1-.26-.09q-.17-1.77-.48-1c0,.09-.09.18-.14.27a2.26,2.26,0,0,1-.16.26c.07-.1,0-.09-.06,0a.65.65,0,0,1,.73-.06.66.66,0,0,1,.2.24c-.26-.35-.31-.4-.14-.16a1.42,1.42,0,0,0-2.63.71c-.18,1.69,2,2.44,3.25,1.81s2.22-2.41,1.69-3.67c-.63-1.49-2.4-1.32-3.61-.77a2.64,2.64,0,0,0-1.38,3.62,1.29,1.29,0,0,0,1.46.59,3.1,3.1,0,0,0,1.17-.63A.82.82,0,0,0,119.83,24.56Z"/><path class="cls-2" d="M358.38,160.92a11.06,11.06,0,0,0-14.76-10l.17,0a12,12,0,0,0-7.08,4.17,11.23,11.23,0,0,0-2.39,8.69,10.59,10.59,0,0,0,5,7.44,12.84,12.84,0,0,0,6.7,1.55,13.66,13.66,0,0,0,8.21-2.78A11.27,11.27,0,0,0,358.38,160.92Z"/><path class="cls-5" d="M354.65,161.11a7.66,7.66,0,0,0-10.21-6.88l.12,0a8.36,8.36,0,0,0-4.9,2.88,7.77,7.77,0,0,0-1.65,6,7.34,7.34,0,0,0,3.48,5.15,8.87,8.87,0,0,0,4.64,1.07,9.48,9.48,0,0,0,5.68-1.92A7.81,7.81,0,0,0,354.65,161.11Z"/><path class="cls-6" d="M348.71,151a11.12,11.12,0,0,0-12.36,4.15c-2.86,3.75-3.63,9.66-.61,13.53,3.35,4.29,9.7,5.85,14.81,4.29,4.71-1.45,9.07-5.9,8.87-11.1-.12-3-2-6.09-4-8.24a9.76,9.76,0,0,0-8.22-3.39c-.88.1-.89,1.49,0,1.39,5.09-.61,9.23,4.1,10.55,8.63,1.41,4.8-2.6,9.48-6.88,11.07a12.9,12.9,0,0,1-13.1-2.58c-3.29-3.19-3.11-8.44-.73-12.13a12,12,0,0,1,11.55-5C349,151.68,349,151.11,348.71,151Z"/><path class="cls-6" d="M345.77,146.63c-.56,1.12-.17,2.82-.08,4a.75.75,0,0,0,1.49,0c.07-1.24.15-3.15-.8-4.09A.39.39,0,0,0,345.77,146.63Z"/><path class="cls-6" d="M344.68,147.13a11,11,0,0,1,3.18-.32c1,.07.95-1.42,0-1.48a5.64,5.64,0,0,0-3.56.89A.5.5,0,0,0,344.68,147.13Z"/><path class="cls-6" d="M335.48,151.28c.49,1,1.68,1.6,2.49,2.3s1.55,1.75,2.55,2.07a.62.62,0,0,0,.75-.75c-.34-1.08-1.6-1.87-2.46-2.54s-1.85-1.61-3-1.69A.41.41,0,0,0,335.48,151.28Z"/><path class="cls-6" d="M335.86,152.36a3.48,3.48,0,0,1,1.62-1.72c1-.53.12-2-.88-1.52a4.45,4.45,0,0,0-2.17,2.64C334.17,152.59,335.5,153.18,335.86,152.36Z"/><path class="cls-6" d="M331,161.67a6.39,6.39,0,0,0,3.36.7c1,0,1-1.65,0-1.54s-2.12.06-3.17.17A.36.36,0,0,0,331,161.67Z"/><path class="cls-6" d="M330.08,160.05a7,7,0,0,0,.16,3.65.89.89,0,0,0,1.71-.48,7.43,7.43,0,0,1-.15-2.7.93.93,0,0,0-.62-1.1A.91.91,0,0,0,330.08,160.05Z"/><path class="cls-6" d="M332,171.32a5.21,5.21,0,0,0,2.16,2.08,1,1,0,1,0,1-1.64,6.24,6.24,0,0,1-1.54-1.37,1,1,0,0,0-1.25-.33A.94.94,0,0,0,332,171.32Z"/><path class="cls-6" d="M342.93,170.33a3.72,3.72,0,0,0-.85,2.23c-.18.92-.35,1.85-.47,2.79a.86.86,0,0,0,.61.81l.22,0a.85.85,0,0,0,.81-.62c.17-.92.28-1.87.38-2.8a3.68,3.68,0,0,0-.15-2.37A.36.36,0,0,0,342.93,170.33Z"/><path class="cls-6" d="M340.2,176.32a6.21,6.21,0,0,0,4,.74c1.18-.13,1.22-2,0-1.88a12.29,12.29,0,0,1-1.82,0c-.6,0-1.17-.23-1.77-.26C339.79,174.89,339.64,175.94,340.2,176.32Z"/><path class="cls-6" d="M338.71,164.17a5.86,5.86,0,0,0-2.56.13c-1,.17-2.09.36-3.14.54s-.56,1.67.4,1.45l3.1-.7a5.38,5.38,0,0,0,2.35-.86A.34.34,0,0,0,338.71,164.17Z"/><path class="cls-6" d="M332.68,164.13c-1,.45-.73,2.42-.44,3.23a.89.89,0,1,0,1.64-.69,4.58,4.58,0,0,1-.34-1.32,1.9,1.9,0,0,0-.34-1.15A.42.42,0,0,0,332.68,164.13Z"/><path class="cls-6" d="M352.06,154.25a12.57,12.57,0,0,0,1.92-1.87,8.09,8.09,0,0,0,1.73-2.11c.31-.71-.35-1.59-1.13-1.13a8.16,8.16,0,0,0-1.87,2,12.12,12.12,0,0,0-1.63,2.16C350.79,153.86,351.41,154.67,352.06,154.25Z"/><path class="cls-6" d="M353.57,149.05a5.41,5.41,0,0,0,1,1.2,6.88,6.88,0,0,1,.93,1.15.94.94,0,1,0,1.48-1.14c-.72-.89-1.7-2-2.9-2.07A.58.58,0,0,0,353.57,149.05Z"/><path class="cls-6" d="M352.36,167.77a25.08,25.08,0,0,0,3.5,4.21c.81.87,2.08-.43,1.3-1.3a24.65,24.65,0,0,0-3.87-3.84C352.71,166.43,352,167.21,352.36,167.77Z"/><path class="cls-6" d="M355.81,173.76a6,6,0,0,0,1.61-1.14,5.5,5.5,0,0,0,1.33-1.39.94.94,0,0,0-1.28-1.27,6,6,0,0,0-1.41,1.16,6.85,6.85,0,0,0-1.29,1.29C354.39,173.06,355,174,355.81,173.76Z"/><path class="cls-6" d="M354.66,161.62a5.54,5.54,0,0,0,2.95.3c1.24-.06,2.48-.18,3.72-.31a.87.87,0,1,0-.23-1.71c-1.25.19-2.49.31-3.74.44a6.13,6.13,0,0,0-2.7.55A.43.43,0,0,0,354.66,161.62Z"/><path class="cls-6" d="M362,163.07c.49-.43.46-1.36.55-2a6.1,6.1,0,0,0,0-2.37,1,1,0,0,0-1.21-.69,1,1,0,0,0-.24.1,1,1,0,0,0-.45,1.12,20.61,20.61,0,0,1,.07,2.84C360.82,162.62,361.39,163.65,362,163.07Z"/><path class="cls-6" d="M350.88,158.8c.31.39.95.25,1.35.11l1.67-.59a.94.94,0,1,0-.73-1.73C352.63,156.88,350.13,157.87,350.88,158.8Z"/><path class="cls-6" d="M353.06,156.41a8.61,8.61,0,0,1,.88,1.9,1.15,1.15,0,0,0,2.21-.61,3.62,3.62,0,0,0-2.26-2.36A.74.74,0,0,0,353.06,156.41Z"/><path class="cls-6" d="M349.44,172.77a2.42,2.42,0,0,0,.32,2.56,1,1,0,0,0,1.5.28,1,1,0,0,0,.1-1.51c-.33-.38-.57-1-.94-1.46A.63.63,0,0,0,349.44,172.77Z"/><path class="cls-6" d="M334.64,171.81a6.77,6.77,0,0,0,2.91-1.9c.73-.71-.44-1.88-1.13-1.12s-1.57,1.42-2.22,2.25A.46.46,0,0,0,334.64,171.81Z"/><path class="cls-6" d="M342.55,160.24A4.45,4.45,0,0,0,341,159a.86.86,0,1,0-.67,1.58,4.56,4.56,0,0,0,1.93.26A.44.44,0,0,0,342.55,160.24Z"/><path class="cls-6" d="M339.67,160l-.08-.06c.08.22.17.43.26.65l0-.28c0,.13-.07.26-.11.39a4.62,4.62,0,0,0,.19-.6c-.16.41.23-.13.29-.19.35-.42.65-.86,1-1.31l-2.27-1a6.62,6.62,0,0,1-1,2.3,1.28,1.28,0,0,0,.46,1.74,1.29,1.29,0,0,0,1.74-.45,6.81,6.81,0,0,0,1.17-2.93,1.25,1.25,0,0,0-2.27-1A4.64,4.64,0,0,0,338,160a1.09,1.09,0,0,0,1.69.9A.52.52,0,0,0,339.67,160Z"/><path class="cls-6" d="M346.73,157a2.13,2.13,0,0,0,.27-1.34c0-.52,0-1.05.09-1.57.08-1-1.62-1-1.61,0,0,.88-.15,2.34.55,3A.45.45,0,0,0,346.73,157Z"/><path class="cls-6" d="M344.31,154.08a1.3,1.3,0,0,0,1.16.68c.59.08,1.19.09,1.78.13L347,153.1a4.17,4.17,0,0,1-2.16.1c.07.58.15,1.15.22,1.73a2.18,2.18,0,0,1,.62-.11c.92-.15.83-1.57,0-1.77a2.11,2.11,0,0,0-1.57.24,1,1,0,0,0,.22,1.74,5.41,5.41,0,0,0,3.16-.17.93.93,0,0,0,.65-1,.9.9,0,0,0-.9-.79C346.75,153.09,343.86,152.93,344.31,154.08Z"/><path class="cls-6" d="M346.25,165.93c-.71.72-.65,2.06-.77,3-.15,1.12,1.82,1.19,1.8,0,0-.89.2-2.15-.37-2.9A.43.43,0,0,0,346.25,165.93Z"/><path class="cls-6" d="M344.46,169.45c.3,1.19,2.09,1.39,3.09,1.34a1.2,1.2,0,0,0,1.18-1.18,1.19,1.19,0,0,0-1.18-1.17,13.57,13.57,0,0,1-1.43.05,2.24,2.24,0,0,0-1.35.19A.71.71,0,0,0,344.46,169.45Z"/><path class="cls-6" d="M351.44,164.78a4.59,4.59,0,0,1,.83-1.54l-1.6-.42a1.4,1.4,0,0,1-.47,1.32l1.42.58a.88.88,0,0,1,.12-.55s.17-.28.18-.24,0-.05-.13,0l.29,0a.83.83,0,0,0,.58-1c-.34-1.12-1.56-.74-2.17-.11a2.85,2.85,0,0,0-.78,2.2,1,1,0,0,0,1.47.84,3.16,3.16,0,0,0,1.34-3.51,1,1,0,0,0-1.6-.42,3,3,0,0,0-.93,2.7A.8.8,0,0,0,351.44,164.78Z"/><path class="cls-6" d="M342.53,165.65c.08.09,0,0,0,0-.18-.31,0,0,0,0a.28.28,0,0,1,0,.13c0-.07,0-.07,0,0a.45.45,0,0,1-.19.17.4.4,0,0,1-.32,0c.15.07-.11-.09,0,0s-.06-.11,0,0,.07.11.1.16,0-.16,0,0c0-.13,0-.16,0-.1,0,.39.31.21.94-.54-.05,0-.05,0,0,0a.29.29,0,0,1,.13.14c-.08-.14.05.19,0,0s0,.2,0,.05v-.14a1.07,1.07,0,0,0-.13-.63l.06.49,0-.07c.15-.38-.22-.71-.56-.74h0a1,1,0,0,0-.43,0,1,1,0,0,0-.41.27,1.23,1.23,0,0,0-.31.77,1.46,1.46,0,0,0,.44,1.06,1.09,1.09,0,0,0,1.68-.12,1.24,1.24,0,0,0,0-1.26,2.11,2.11,0,0,0-.78-.79,1.23,1.23,0,0,0-1.45.23,1.06,1.06,0,0,0,0,1.45.84.84,0,0,0,1.23.1A.5.5,0,0,0,342.53,165.65Z"/><path class="cls-6" d="M346.92,161.63a1.93,1.93,0,0,0-.77-.48l.59.6c-.09-.26,0,0,0,0l0,0,.19-.1.28-.09c-.12,0-.12,0,0,0a.28.28,0,0,1-.18-.06c-.07-.79-.18-1-.32-.68a1.51,1.51,0,0,1-.09.18,1,1,0,0,1-.11.17c0-.07,0-.06,0,0,.16-.09.32-.16.49,0a.42.42,0,0,1,.13.16c-.17-.24-.2-.27-.09-.11a1,1,0,0,0-1.75.48c-.12,1.12,1.32,1.62,2.16,1.2a2.21,2.21,0,0,0,1.12-2.44c-.42-1-1.59-.88-2.4-.51a1.75,1.75,0,0,0-.91,2.4.87.87,0,0,0,1,.4,1.89,1.89,0,0,0,.77-.43A.53.53,0,0,0,346.92,161.63Z"/><path class="cls-2" d="M31.71,255.14a12.32,12.32,0,0,0-16.44-11.09l.19,0a13.38,13.38,0,0,0-7.89,4.64,12.54,12.54,0,0,0-2.66,9.68,11.76,11.76,0,0,0,5.61,8.28A14.21,14.21,0,0,0,18,268.35a15.13,15.13,0,0,0,9.15-3.09A12.55,12.55,0,0,0,31.71,255.14Z"/><path class="cls-5" d="M27.56,255.36a8.52,8.52,0,0,0-11.37-7.67l.13,0a9.26,9.26,0,0,0-5.46,3.21A8.67,8.67,0,0,0,9,257.58a8.15,8.15,0,0,0,3.88,5.72,9.85,9.85,0,0,0,5.16,1.2,10.48,10.48,0,0,0,6.33-2.14A8.68,8.68,0,0,0,27.56,255.36Z"/><path class="cls-6" d="M20.94,244.09a12.41,12.41,0,0,0-13.77,4.62c-3.19,4.18-4,10.77-.68,15.08,3.74,4.77,10.81,6.52,16.5,4.77,5.25-1.61,10.1-6.56,9.88-12.35-.13-3.33-2.21-6.79-4.41-9.19a10.89,10.89,0,0,0-9.16-3.78c-1,.12-1,1.67,0,1.55,5.67-.68,10.28,4.57,11.76,9.61,1.57,5.35-2.9,10.57-7.67,12.34A14.35,14.35,0,0,1,8.8,263.86c-3.66-3.54-3.47-9.4-.81-13.51s8-6.16,12.86-5.56C21.27,244.85,21.31,244.21,20.94,244.09Z"/><path class="cls-6" d="M17.67,239.23c-.63,1.24-.2,3.13-.09,4.47a.83.83,0,0,0,1.65,0c.08-1.38.17-3.5-.89-4.56A.43.43,0,0,0,17.67,239.23Z"/><path class="cls-6" d="M16.45,239.78a11.81,11.81,0,0,1,3.55-.35c1.06.07,1.06-1.59,0-1.66a6.3,6.3,0,0,0-4,1A.55.55,0,0,0,16.45,239.78Z"/><path class="cls-6" d="M6.2,244.41c.55,1.08,1.88,1.77,2.77,2.56s1.73,1.95,2.85,2.3a.68.68,0,0,0,.83-.83c-.37-1.2-1.78-2.09-2.74-2.83s-2.06-1.79-3.32-1.89C6.23,243.69,6.06,244.12,6.2,244.41Z"/><path class="cls-6" d="M6.63,245.61a3.91,3.91,0,0,1,1.8-1.92c1.12-.59.13-2.28-1-1.69A4.9,4.9,0,0,0,5,244.94C4.74,245.86,6.23,246.52,6.63,245.61Z"/><path class="cls-6" d="M1.26,256a7.3,7.3,0,0,0,3.74.78c1.12,0,1.07-1.84,0-1.71s-2.36.06-3.54.18A.41.41,0,0,0,1.26,256Z"/><path class="cls-6" d="M.19,254.17a7.76,7.76,0,0,0,.17,4.06,1,1,0,0,0,1.92-.52,8.26,8.26,0,0,1-.18-3,1,1,0,0,0-.69-1.22A1,1,0,0,0,.19,254.17Z"/><path class="cls-6" d="M2.35,266.73a5.89,5.89,0,0,0,2.4,2.32,1.06,1.06,0,0,0,1.07-1.84,6.61,6.61,0,0,1-1.71-1.51,1,1,0,0,0-1.4-.37A1,1,0,0,0,2.35,266.73Z"/><path class="cls-6" d="M14.5,265.63a4.14,4.14,0,0,0-.95,2.47c-.2,1-.39,2.07-.52,3.12a.92.92,0,0,0,.68.89l.25,0a.94.94,0,0,0,.9-.69c.19-1,.3-2.08.42-3.12a4.06,4.06,0,0,0-.17-2.63A.39.39,0,0,0,14.5,265.63Z"/><path class="cls-6" d="M11.46,272.3a7,7,0,0,0,4.42.82c1.31-.15,1.36-2.2,0-2.1a12.5,12.5,0,0,1-2,0c-.66-.06-1.3-.25-2-.29C11,270.71,10.84,271.87,11.46,272.3Z"/><path class="cls-6" d="M9.8,258.77a6.27,6.27,0,0,0-2.85.14l-3.5.59c-1.05.18-.62,1.87.45,1.63l3.45-.78a6.05,6.05,0,0,0,2.61-1A.37.37,0,0,0,9.8,258.77Z"/><path class="cls-6" d="M3.08,258.72c-1.13.5-.81,2.69-.49,3.6a1,1,0,1,0,1.83-.77A5,5,0,0,1,4,260.08a2.14,2.14,0,0,0-.37-1.29A.5.5,0,0,0,3.08,258.72Z"/><path class="cls-6" d="M24.67,247.71a13.21,13.21,0,0,0,2.14-2.09,9,9,0,0,0,1.93-2.34c.34-.79-.39-1.78-1.26-1.26a8.9,8.9,0,0,0-2.08,2.2,13.55,13.55,0,0,0-1.82,2.4C23.26,247.28,24,248.18,24.67,247.71Z"/><path class="cls-6" d="M26.35,241.92a6.14,6.14,0,0,0,1.1,1.33,9.16,9.16,0,0,1,1.05,1.28,1,1,0,1,0,1.64-1.27c-.8-1-1.89-2.17-3.23-2.3A.65.65,0,0,0,26.35,241.92Z"/><path class="cls-6" d="M25,262.77a26.84,26.84,0,0,0,3.9,4.69c.89,1,2.32-.47,1.44-1.45A26.78,26.78,0,0,0,26,261.74C25.4,261.29,24.65,262.15,25,262.77Z"/><path class="cls-6" d="M28.84,269.44a6.4,6.4,0,0,0,1.8-1.27,6,6,0,0,0,1.48-1.54,1,1,0,0,0-1.42-1.42,7,7,0,0,0-1.58,1.3A7.5,7.5,0,0,0,27.69,268C27.26,268.66,28,269.76,28.84,269.44Z"/><path class="cls-6" d="M27.56,255.92a6.21,6.21,0,0,0,3.29.34c1.39-.07,2.77-.2,4.14-.35a1,1,0,1,0-.25-1.9c-1.39.2-2.77.34-4.17.49a6.82,6.82,0,0,0-3,.61A.47.47,0,0,0,27.56,255.92Z"/><path class="cls-6" d="M35.79,257.54c.55-.49.51-1.52.61-2.2a6.7,6.7,0,0,0,0-2.64,1.12,1.12,0,0,0-1.35-.77,1.59,1.59,0,0,0-.27.12,1.11,1.11,0,0,0-.5,1.24c.3,1-.06,2.12.08,3.17C34.43,257,35.06,258.18,35.79,257.54Z"/><path class="cls-6" d="M23.36,252.78c.35.43,1.05.28,1.5.13l1.86-.67a1,1,0,1,0-.81-1.92C25.3,250.64,22.52,251.75,23.36,252.78Z"/><path class="cls-6" d="M25.79,250.12a8.83,8.83,0,0,1,1,2.12,1.28,1.28,0,0,0,2.46-.68,4,4,0,0,0-2.51-2.63A.82.82,0,0,0,25.79,250.12Z"/><path class="cls-6" d="M21.76,268.34a2.68,2.68,0,0,0,.35,2.85,1.13,1.13,0,1,0,1.78-1.37c-.37-.42-.64-1.13-1.05-1.62A.69.69,0,0,0,21.76,268.34Z"/><path class="cls-6" d="M5.27,267.27a7.39,7.39,0,0,0,3.23-2.12c.83-.79-.49-2.09-1.25-1.24s-1.75,1.58-2.48,2.51A.52.52,0,0,0,5.27,267.27Z"/><path class="cls-6" d="M14.07,254.39a5,5,0,0,0-1.68-1.34,1,1,0,1,0-.75,1.76,5.1,5.1,0,0,0,2.15.29A.49.49,0,0,0,14.07,254.39Z"/><path class="cls-6" d="M10.87,254.12l-.09-.07c.09.24.19.48.29.72,0-.1,0-.2,0-.3l-.12.43a4.37,4.37,0,0,0,.22-.67c-.19.46.25-.14.32-.22.38-.46.72-.95,1.06-1.45l-2.53-1.07A7.09,7.09,0,0,1,9,254.05,1.43,1.43,0,0,0,9.47,256a1.45,1.45,0,0,0,1.95-.51,7.69,7.69,0,0,0,1.3-3.25,1.39,1.39,0,0,0-2.53-1.07A5.2,5.2,0,0,0,9,254.09a1.22,1.22,0,0,0,1.88,1A.58.58,0,0,0,10.87,254.12Z"/><path class="cls-6" d="M18.73,250.72a2.39,2.39,0,0,0,.31-1.49c0-.59,0-1.17.09-1.75.1-1.13-1.8-1.17-1.79,0,0,1-.16,2.61.61,3.35A.51.51,0,0,0,18.73,250.72Z"/><path class="cls-6" d="M16,247.52c.21.54.76.68,1.29.76s1.33.1,2,.14l-.27-2a4.59,4.59,0,0,1-2.41.11c.08.64.17,1.29.25,1.93a2.63,2.63,0,0,1,.69-.13c1-.16.92-1.74,0-2a2.38,2.38,0,0,0-1.75.28,1.06,1.06,0,0,0,.25,1.93,6.09,6.09,0,0,0,3.51-.19,1,1,0,0,0,.73-1.12,1,1,0,0,0-1-.88C18.75,246.41,15.54,246.25,16,247.52Z"/><path class="cls-6" d="M18.2,260.73c-.79.79-.72,2.28-.86,3.32-.16,1.25,2,1.33,2,0,0-1,.22-2.39-.42-3.23A.47.47,0,0,0,18.2,260.73Z"/><path class="cls-6" d="M16.21,264.64c.33,1.33,2.33,1.55,3.44,1.5A1.34,1.34,0,0,0,21,264.83a1.31,1.31,0,0,0-1.31-1.31,14.08,14.08,0,0,1-1.59.05,2.6,2.6,0,0,0-1.51.22A.77.77,0,0,0,16.21,264.64Z"/><path class="cls-6" d="M24,259.44a5,5,0,0,1,.93-1.71l-1.79-.47a1.53,1.53,0,0,1-.53,1.47l1.59.65a1,1,0,0,1,.14-.62s.18-.31.2-.26,0-.07-.15,0l.33-.05a.92.92,0,0,0,.64-1.12c-.37-1.25-1.74-.82-2.41-.12a3.08,3.08,0,0,0-.87,2.44,1.1,1.1,0,0,0,1.63.94,3.51,3.51,0,0,0,1.49-3.91,1.08,1.08,0,0,0-1.78-.47,3.29,3.29,0,0,0-1,3A.89.89,0,0,0,24,259.44Z"/><path class="cls-6" d="M14.05,260.41c.1.1,0,0,0,0-.2-.35-.05-.05,0,0a.33.33,0,0,1,0,.14c0-.07,0-.07,0,0s-.1.15-.21.19a.39.39,0,0,1-.35,0c.16.07-.13-.1,0,0s-.06-.12,0,0l.11.18c.09.13,0-.19,0,0,0-.14,0-.18,0-.11,0,.43.35.23,1.06-.6-.07,0-.06,0,0,0a.36.36,0,0,1,.14.16c-.09-.15.06.2,0,0s0,.23,0,.05,0-.1,0-.15a1.09,1.09,0,0,0-.15-.7c0,.18.05.36.08.54l0-.07a.65.65,0,0,0-.62-.82h0a1,1,0,0,0-.48,0,1.06,1.06,0,0,0-.46.29,1.39,1.39,0,0,0-.34.86,1.61,1.61,0,0,0,.48,1.18,1.21,1.21,0,0,0,1.88-.13,1.38,1.38,0,0,0-.05-1.4,2.23,2.23,0,0,0-.87-.88,1.35,1.35,0,0,0-1.61.25,1.18,1.18,0,0,0,0,1.61.93.93,0,0,0,1.36.12A.55.55,0,0,0,14.05,260.41Z"/><path class="cls-6" d="M19,255.93a2.22,2.22,0,0,0-.87-.53l.67.67c-.11-.3,0,0,0,0l0,.05.22-.12a2.35,2.35,0,0,1,.3-.09h0a.31.31,0,0,1-.2-.07c-.08-.87-.19-1.12-.35-.75l-.1.2-.12.19c.05-.08,0-.07-.05,0,.18-.09.36-.17.54,0a.35.35,0,0,1,.15.17c-.19-.26-.23-.3-.1-.11a1.06,1.06,0,0,0-1.95.52c-.13,1.25,1.47,1.81,2.41,1.34a2.43,2.43,0,0,0,1.24-2.71c-.46-1.11-1.77-1-2.66-.57a1.94,1.94,0,0,0-1,2.67,1,1,0,0,0,1.08.44,2.05,2.05,0,0,0,.87-.47A.61.61,0,0,0,19,255.93Z"/></g></g></svg>