<svg xmlns="http://www.w3.org/2000/svg" xmlns:xlink="http://www.w3.org/1999/xlink" viewBox="0 0 1078.28 157.59"><defs><style>.cls-1,.cls-2,.cls-4,.cls-5{fill:#09095b}.cls-1{clip-rule:evenodd}.cls-2{fill-rule:evenodd}.cls-3{clip-path:url(#clip-path)}.cls-5{font-size:88.98px;font-family:Poppins-Bold,Poppins;font-weight:700}</style><clipPath id="clip-path"><path d="M77,22.62a5.66,5.66,0,0,1,1.66,1.68,2.85,2.85,0,0,0,2.1,1.35c.53.07,1.06.16,1.59.25a3,3,0,0,0,3.37-2.16l.45-1.68a2.87,2.87,0,0,0-.36-2.37,3.91,3.91,0,1,1,7.06-1.1,3.83,3.83,0,0,1-2,2.46,2.93,2.93,0,0,0-1.5,1.87L89,24.6a3,3,0,0,0,1.85,3.56c.5.18,1,.38,1.5.58a2.86,2.86,0,0,0,2.49-.12A5.46,5.46,0,0,1,97.07,28a2.92,2.92,0,0,0,2.41-1.48l5.57-9.65a2.89,2.89,0,0,0,.26-2.38,3.91,3.91,0,1,1,4.56,2.63,2.84,2.84,0,0,0-1.94,1.41l-5.57,9.65a2.88,2.88,0,0,0-.07,2.83,5.57,5.57,0,0,1,.6,2.29A2.9,2.9,0,0,0,104,35.52l1.25,1a3,3,0,0,0,4-.18l1.24-1.24a2.86,2.86,0,0,0,.86-2.23,3.91,3.91,0,1,1,3.73,3.72,2.87,2.87,0,0,0-2.23.87l-1.24,1.24a3,3,0,0,0-.18,4c.34.41.68.83,1,1.25a2.87,2.87,0,0,0,2.21,1.14,5.53,5.53,0,0,1,2.29.6,2.88,2.88,0,0,0,2.83-.08l9.65-5.57a2.89,2.89,0,0,0,1.42-1.93,3.91,3.91,0,1,1,2.63,4.56,2.86,2.86,0,0,0-2.39.25l-9.64,5.57A2.88,2.88,0,0,0,120,50.92a5.7,5.7,0,0,1-.62,2.28,2.84,2.84,0,0,0-.12,2.48c.2.5.39,1,.58,1.51A3,3,0,0,0,123.38,59l1.68-.45a2.9,2.9,0,0,0,1.87-1.51,3.91,3.91,0,1,1,4.48,5.57,3.87,3.87,0,0,1-3.11-.48,2.88,2.88,0,0,0-2.37-.37l-1.69.46a3,3,0,0,0-2.16,3.37c.1.52.18,1.05.25,1.59a2.89,2.89,0,0,0,1.35,2.09A5.66,5.66,0,0,1,125.36,71a2.88,2.88,0,0,0,2.49,1.35H139a2.88,2.88,0,0,0,2.19-1,3.83,3.83,0,0,1,.94-.75,3.91,3.91,0,1,1-.93,6,2.89,2.89,0,0,0-2.2-1H127.85A2.88,2.88,0,0,0,125.36,77a5.54,5.54,0,0,1-1.68,1.66,2.9,2.9,0,0,0-1.35,2.1c-.07.53-.15,1.07-.25,1.59a3,3,0,0,0,2.16,3.37l1.69.46a2.89,2.89,0,0,0,2.36-.37,3.91,3.91,0,1,1,1.1,7.06,3.87,3.87,0,0,1-2.46-2,2.89,2.89,0,0,0-1.86-1.5L123.38,89a3,3,0,0,0-3.55,1.85c-.19.5-.38,1-.58,1.5a2.86,2.86,0,0,0,.12,2.49,5.62,5.62,0,0,1,.62,2.28,2.88,2.88,0,0,0,1.48,2.41l9.64,5.57a2.9,2.9,0,0,0,2.39.26,3.91,3.91,0,1,1-2.63,4.56,2.88,2.88,0,0,0-1.42-1.94l-9.65-5.57a2.88,2.88,0,0,0-2.83-.07,5.53,5.53,0,0,1-2.29.6,2.9,2.9,0,0,0-2.22,1.14c-.33.42-.66.83-1,1.25a3,3,0,0,0,.18,4l1.25,1.25a2.86,2.86,0,0,0,2.23.86,3.91,3.91,0,1,1-3.73,3.73,2.86,2.86,0,0,0-.86-2.23l-1.25-1.25a3,3,0,0,0-4-.17c-.41.34-.82.68-1.25,1a2.89,2.89,0,0,0-1.13,2.21,5.53,5.53,0,0,1-.6,2.29,2.88,2.88,0,0,0,.07,2.83l5.57,9.65a2.88,2.88,0,0,0,1.94,1.42,3.91,3.91,0,1,1-4.56,2.63,2.9,2.9,0,0,0-.26-2.39l-5.57-9.64A2.88,2.88,0,0,0,97.07,120a5.62,5.62,0,0,1-2.28-.62,2.86,2.86,0,0,0-2.49-.12l-1.51.58A3,3,0,0,0,89,123.38l.45,1.68a2.86,2.86,0,0,0,1.5,1.87,3.91,3.91,0,1,1-5.57,4.49,3.85,3.85,0,0,1,.49-3.12,2.88,2.88,0,0,0,.36-2.37l-.45-1.69a3,3,0,0,0-3.37-2.16c-.53.09-1.06.18-1.59.25a2.88,2.88,0,0,0-2.1,1.35A5.54,5.54,0,0,1,77,125.36a2.88,2.88,0,0,0-1.35,2.49V139a2.89,2.89,0,0,0,1,2.2,3.92,3.92,0,1,1-5.27,0,2.92,2.92,0,0,0,1-2.2V127.85A2.88,2.88,0,0,0,71,125.36a5.66,5.66,0,0,1-1.66-1.68,2.89,2.89,0,0,0-2.09-1.35c-.54-.07-1.07-.15-1.6-.25a3,3,0,0,0-3.37,2.16l-.45,1.69a2.85,2.85,0,0,0,.37,2.36,3.91,3.91,0,1,1-5.09-1.36,2.85,2.85,0,0,0,1.5-1.87l.45-1.68a3,3,0,0,0-1.84-3.55l-1.51-.58a2.84,2.84,0,0,0-2.48.12,5.7,5.7,0,0,1-2.28.62,2.88,2.88,0,0,0-2.42,1.48l-5.57,9.64a2.86,2.86,0,0,0-.25,2.39,3.92,3.92,0,1,1-4.56-2.63,2.89,2.89,0,0,0,1.93-1.42l5.57-9.65A2.88,2.88,0,0,0,45.7,117a5.54,5.54,0,0,1-.61-2.29A2.86,2.86,0,0,0,44,112.46c-.42-.33-.84-.66-1.25-1a3,3,0,0,0-4,.17l-1.24,1.25a2.87,2.87,0,0,0-.87,2.23,3.91,3.91,0,1,1-3.72-3.73,2.86,2.86,0,0,0,2.23-.86l1.24-1.24a3,3,0,0,0,.18-4c-.34-.42-.68-.83-1-1.26a2.92,2.92,0,0,0-2.21-1.13,5.57,5.57,0,0,1-2.3-.6,2.88,2.88,0,0,0-2.83.07l-9.65,5.57a2.84,2.84,0,0,0-1.41,1.94,3.91,3.91,0,1,1-2.63-4.56,2.89,2.89,0,0,0,2.38-.26l9.65-5.57A2.92,2.92,0,0,0,28,97.07a5.46,5.46,0,0,1,.62-2.28,2.93,2.93,0,0,0,.12-2.49c-.21-.49-.4-1-.58-1.5A3,3,0,0,0,24.6,89l-1.68.45a2.9,2.9,0,0,0-1.87,1.51,3.91,3.91,0,1,1-1.36-5.09,2.87,2.87,0,0,0,2.37.36l1.68-.45a3,3,0,0,0,2.16-3.37c-.09-.53-.17-1.06-.25-1.59a2.85,2.85,0,0,0-1.35-2.1A5.66,5.66,0,0,1,22.62,77a2.87,2.87,0,0,0-2.48-1.35H9a2.87,2.87,0,0,0-2.19,1,3.92,3.92,0,1,1,0-5.27,2.86,2.86,0,0,0,2.19,1H20.14A2.87,2.87,0,0,0,22.62,71a5.78,5.78,0,0,1,1.68-1.66,2.86,2.86,0,0,0,1.35-2.09c.08-.54.16-1.07.25-1.59a3,3,0,0,0-2.16-3.37l-1.68-.46a2.88,2.88,0,0,0-2.37.37,3.91,3.91,0,1,1,1.36-5.09,2.9,2.9,0,0,0,1.87,1.51L24.6,59a3,3,0,0,0,3.56-1.85c.18-.51.38-1,.58-1.51a2.84,2.84,0,0,0-.12-2.48A5.55,5.55,0,0,1,28,50.92a2.92,2.92,0,0,0-1.48-2.42l-9.65-5.57a2.85,2.85,0,0,0-2.38-.25,3.92,3.92,0,1,1,2.63-4.56,2.84,2.84,0,0,0,1.41,1.93l9.65,5.57A2.88,2.88,0,0,0,31,45.7a5.58,5.58,0,0,1,2.29-.61A2.86,2.86,0,0,0,35.52,44c.33-.42.66-.84,1-1.25a3,3,0,0,0-.18-4l-1.24-1.24a2.88,2.88,0,0,0-2.24-.87,3.91,3.91,0,1,1,3.73-3.72,2.87,2.87,0,0,0,.87,2.23l1.24,1.24a3,3,0,0,0,4,.18l1.25-1a2.88,2.88,0,0,0,1.14-2.21,5.42,5.42,0,0,1,.6-2.3,2.88,2.88,0,0,0-.08-2.83l-5.57-9.65a2.84,2.84,0,0,0-1.93-1.41,3.91,3.91,0,1,1,4.56-2.63,2.85,2.85,0,0,0,.25,2.38l5.57,9.65A2.92,2.92,0,0,0,50.92,28a5.55,5.55,0,0,1,2.28.62,2.88,2.88,0,0,0,2.48.12c.5-.2,1-.4,1.51-.58A3,3,0,0,0,59,24.6l-.45-1.68a2.83,2.83,0,0,0-1.5-1.86,3.91,3.91,0,1,1,5.09-1.37,2.88,2.88,0,0,0-.37,2.37l.45,1.68a3,3,0,0,0,3.37,2.16c.53-.09,1.06-.18,1.6-.25a2.86,2.86,0,0,0,2.09-1.35A5.78,5.78,0,0,1,71,22.62a2.87,2.87,0,0,0,1.35-2.48V9a2.89,2.89,0,0,0-1-2.19,3.91,3.91,0,1,1,5.27,0,2.87,2.87,0,0,0-1,2.19V20.14A2.87,2.87,0,0,0,77,22.62ZM56.25,43.27a3.59,3.59,0,1,1-1.31,4.89,3.57,3.57,0,0,1,1.31-4.89ZM38.51,74a3.59,3.59,0,1,1,3.59,3.59A3.58,3.58,0,0,1,38.51,74Zm17.74,30.73a3.59,3.59,0,1,1,4.9-1.31,3.59,3.59,0,0,1-4.9,1.31ZM78.19,30.88a5.53,5.53,0,0,1-8.4,0,2.91,2.91,0,0,0-2.7-1,43.94,43.94,0,0,0-9.17,2.45,2.89,2.89,0,0,0-1.84,2.22,5.55,5.55,0,0,1-7.28,4.2,2.9,2.9,0,0,0-2.84.49A45.6,45.6,0,0,0,39.25,46a2.9,2.9,0,0,0-.49,2.84,5.55,5.55,0,0,1-4.2,7.28,2.89,2.89,0,0,0-2.22,1.84,43.94,43.94,0,0,0-2.45,9.17,2.89,2.89,0,0,0,1,2.7,5.53,5.53,0,0,1,0,8.4,2.89,2.89,0,0,0-1,2.7,43.94,43.94,0,0,0,2.45,9.17,2.9,2.9,0,0,0,2.22,1.85,5.53,5.53,0,0,1,4.2,7.27,2.89,2.89,0,0,0,.49,2.84,46.25,46.25,0,0,0,3.18,3.53A44.24,44.24,0,0,0,46,108.73a2.9,2.9,0,0,0,2.84.49,5.56,5.56,0,0,1,7.28,4.21,2.89,2.89,0,0,0,1.84,2.22,44.55,44.55,0,0,0,9.17,2.44,2.87,2.87,0,0,0,2.7-1,5.53,5.53,0,0,1,8.4,0,2.87,2.87,0,0,0,2.7,1,44.55,44.55,0,0,0,9.17-2.44,2.9,2.9,0,0,0,1.85-2.22,5.55,5.55,0,0,1,7.27-4.21,2.89,2.89,0,0,0,2.84-.49,45.6,45.6,0,0,0,6.71-6.71,2.89,2.89,0,0,0,.49-2.84,5.55,5.55,0,0,1,4.21-7.27,2.9,2.9,0,0,0,2.22-1.85,44.55,44.55,0,0,0,2.44-9.17,2.87,2.87,0,0,0-1-2.7,5.53,5.53,0,0,1,0-8.4,2.87,2.87,0,0,0,1-2.7,44.55,44.55,0,0,0-2.44-9.17,2.89,2.89,0,0,0-2.22-1.84,5.56,5.56,0,0,1-4.21-7.28,2.9,2.9,0,0,0-.49-2.84A45.6,45.6,0,0,0,102,39.25a2.89,2.89,0,0,0-2.84-.49,5.53,5.53,0,0,1-7.27-4.2,2.9,2.9,0,0,0-1.85-2.22,43.94,43.94,0,0,0-9.17-2.45,2.91,2.91,0,0,0-2.7,1ZM47.55,58.73a7.17,7.17,0,1,0,9.8-2.63,7.17,7.17,0,0,0-9.8,2.63Zm52.88,30.53a7.17,7.17,0,1,1-2.62-9.8,7.16,7.16,0,0,1,2.62,9.8Zm-52.88,0a7.17,7.17,0,1,0,2.63-9.8,7.17,7.17,0,0,0-2.63,9.8Zm52.88-30.53a7.17,7.17,0,1,1-9.79-2.63,7.16,7.16,0,0,1,9.79,2.63ZM74,104.52a7.17,7.17,0,1,0-7.17-7.17A7.17,7.17,0,0,0,74,104.52Zm0-39.33a8.8,8.8,0,1,1-8.8,8.8,8.8,8.8,0,0,1,8.8-8.8Zm17.74,39.53A3.58,3.58,0,1,1,93,99.82a3.59,3.59,0,0,1-1.31,4.9ZM109.47,74a3.59,3.59,0,1,1-3.58-3.58A3.58,3.58,0,0,1,109.47,74ZM91.73,43.27a3.58,3.58,0,1,1-4.9,1.31,3.57,3.57,0,0,1,4.9-1.31ZM74,43.46a7.17,7.17,0,1,1-7.17,7.17A7.17,7.17,0,0,1,74,43.46Z" class="cls-1"/></clipPath></defs><g id="Layer_2" data-name="Layer 2"><g id="Layer_1-2" data-name="Layer 1"><path d="M77,22.62a5.66,5.66,0,0,1,1.66,1.68,2.85,2.85,0,0,0,2.1,1.35c.53.07,1.06.16,1.59.25a3,3,0,0,0,3.37-2.16l.45-1.68a2.87,2.87,0,0,0-.36-2.37,3.91,3.91,0,1,1,7.06-1.1,3.83,3.83,0,0,1-2,2.46,2.93,2.93,0,0,0-1.5,1.87L89,24.6a3,3,0,0,0,1.85,3.56c.5.18,1,.38,1.5.58a2.86,2.86,0,0,0,2.49-.12A5.46,5.46,0,0,1,97.07,28a2.92,2.92,0,0,0,2.41-1.48l5.57-9.65a2.89,2.89,0,0,0,.26-2.38,3.91,3.91,0,1,1,4.56,2.63,2.84,2.84,0,0,0-1.94,1.41l-5.57,9.65a2.88,2.88,0,0,0-.07,2.83,5.57,5.57,0,0,1,.6,2.29A2.9,2.9,0,0,0,104,35.52l1.25,1a3,3,0,0,0,4-.18l1.24-1.24a2.86,2.86,0,0,0,.86-2.23,3.91,3.91,0,1,1,3.73,3.72,2.87,2.87,0,0,0-2.23.87l-1.24,1.24a3,3,0,0,0-.18,4c.34.41.68.83,1,1.25a2.87,2.87,0,0,0,2.21,1.14,5.53,5.53,0,0,1,2.29.6,2.88,2.88,0,0,0,2.83-.08l9.65-5.57a2.89,2.89,0,0,0,1.42-1.93,3.91,3.91,0,1,1,2.63,4.56,2.86,2.86,0,0,0-2.39.25l-9.64,5.57A2.88,2.88,0,0,0,120,50.92a5.7,5.7,0,0,1-.62,2.28,2.84,2.84,0,0,0-.12,2.48c.2.5.39,1,.58,1.51A3,3,0,0,0,123.38,59l1.68-.45a2.9,2.9,0,0,0,1.87-1.51,3.91,3.91,0,1,1,4.48,5.57,3.87,3.87,0,0,1-3.11-.48,2.88,2.88,0,0,0-2.37-.37l-1.69.46a3,3,0,0,0-2.16,3.37c.1.52.18,1.05.25,1.59a2.89,2.89,0,0,0,1.35,2.09A5.66,5.66,0,0,1,125.36,71a2.88,2.88,0,0,0,2.49,1.35H139a2.88,2.88,0,0,0,2.19-1,3.83,3.83,0,0,1,.94-.75,3.91,3.91,0,1,1-.93,6,2.89,2.89,0,0,0-2.2-1H127.85A2.88,2.88,0,0,0,125.36,77a5.54,5.54,0,0,1-1.68,1.66,2.9,2.9,0,0,0-1.35,2.1c-.07.53-.15,1.07-.25,1.59a3,3,0,0,0,2.16,3.37l1.69.46a2.89,2.89,0,0,0,2.36-.37,3.91,3.91,0,1,1,1.1,7.06,3.87,3.87,0,0,1-2.46-2,2.89,2.89,0,0,0-1.86-1.5L123.38,89a3,3,0,0,0-3.55,1.85c-.19.5-.38,1-.58,1.5a2.86,2.86,0,0,0,.12,2.49,5.62,5.62,0,0,1,.62,2.28,2.88,2.88,0,0,0,1.48,2.41l9.64,5.57a2.9,2.9,0,0,0,2.39.26,3.91,3.91,0,1,1-2.63,4.56,2.88,2.88,0,0,0-1.42-1.94l-9.65-5.57a2.88,2.88,0,0,0-2.83-.07,5.53,5.53,0,0,1-2.29.6,2.9,2.9,0,0,0-2.22,1.14c-.33.42-.66.83-1,1.25a3,3,0,0,0,.18,4l1.25,1.25a2.86,2.86,0,0,0,2.23.86,3.91,3.91,0,1,1-3.73,3.73,2.86,2.86,0,0,0-.86-2.23l-1.25-1.25a3,3,0,0,0-4-.17c-.41.34-.82.68-1.25,1a2.89,2.89,0,0,0-1.13,2.21,5.53,5.53,0,0,1-.6,2.29,2.88,2.88,0,0,0,.07,2.83l5.57,9.65a2.88,2.88,0,0,0,1.94,1.42,3.91,3.91,0,1,1-4.56,2.63,2.9,2.9,0,0,0-.26-2.39l-5.57-9.64A2.88,2.88,0,0,0,97.07,120a5.62,5.62,0,0,1-2.28-.62,2.86,2.86,0,0,0-2.49-.12l-1.51.58A3,3,0,0,0,89,123.38l.45,1.68a2.86,2.86,0,0,0,1.5,1.87,3.91,3.91,0,1,1-5.57,4.49,3.85,3.85,0,0,1,.49-3.12,2.88,2.88,0,0,0,.36-2.37l-.45-1.69a3,3,0,0,0-3.37-2.16c-.53.09-1.06.18-1.59.25a2.88,2.88,0,0,0-2.1,1.35A5.54,5.54,0,0,1,77,125.36a2.88,2.88,0,0,0-1.35,2.49V139a2.89,2.89,0,0,0,1,2.2,3.92,3.92,0,1,1-5.27,0,2.92,2.92,0,0,0,1-2.2V127.85A2.88,2.88,0,0,0,71,125.36a5.66,5.66,0,0,1-1.66-1.68,2.89,2.89,0,0,0-2.09-1.35c-.54-.07-1.07-.15-1.6-.25a3,3,0,0,0-3.37,2.16l-.45,1.69a2.85,2.85,0,0,0,.37,2.36,3.91,3.91,0,1,1-5.09-1.36,2.85,2.85,0,0,0,1.5-1.87l.45-1.68a3,3,0,0,0-1.84-3.55l-1.51-.58a2.84,2.84,0,0,0-2.48.12,5.7,5.7,0,0,1-2.28.62,2.88,2.88,0,0,0-2.42,1.48l-5.57,9.64a2.86,2.86,0,0,0-.25,2.39,3.92,3.92,0,1,1-4.56-2.63,2.89,2.89,0,0,0,1.93-1.42l5.57-9.65A2.88,2.88,0,0,0,45.7,117a5.54,5.54,0,0,1-.61-2.29A2.86,2.86,0,0,0,44,112.46c-.42-.33-.84-.66-1.25-1a3,3,0,0,0-4,.17l-1.24,1.25a2.87,2.87,0,0,0-.87,2.23,3.91,3.91,0,1,1-3.72-3.73,2.86,2.86,0,0,0,2.23-.86l1.24-1.24a3,3,0,0,0,.18-4c-.34-.42-.68-.83-1-1.26a2.92,2.92,0,0,0-2.21-1.13,5.57,5.57,0,0,1-2.3-.6,2.88,2.88,0,0,0-2.83.07l-9.65,5.57a2.84,2.84,0,0,0-1.41,1.94,3.91,3.91,0,1,1-2.63-4.56,2.89,2.89,0,0,0,2.38-.26l9.65-5.57A2.92,2.92,0,0,0,28,97.07a5.46,5.46,0,0,1,.62-2.28,2.93,2.93,0,0,0,.12-2.49c-.21-.49-.4-1-.58-1.5A3,3,0,0,0,24.6,89l-1.68.45a2.9,2.9,0,0,0-1.87,1.51,3.91,3.91,0,1,1-1.36-5.09,2.87,2.87,0,0,0,2.37.36l1.68-.45a3,3,0,0,0,2.16-3.37c-.09-.53-.17-1.06-.25-1.59a2.85,2.85,0,0,0-1.35-2.1A5.66,5.66,0,0,1,22.62,77a2.87,2.87,0,0,0-2.48-1.35H9a2.87,2.87,0,0,0-2.19,1,3.92,3.92,0,1,1,0-5.27,2.86,2.86,0,0,0,2.19,1H20.14A2.87,2.87,0,0,0,22.62,71a5.78,5.78,0,0,1,1.68-1.66,2.86,2.86,0,0,0,1.35-2.09c.08-.54.16-1.07.25-1.59a3,3,0,0,0-2.16-3.37l-1.68-.46a2.88,2.88,0,0,0-2.37.37,3.91,3.91,0,1,1,1.36-5.09,2.9,2.9,0,0,0,1.87,1.51L24.6,59a3,3,0,0,0,3.56-1.85c.18-.51.38-1,.58-1.51a2.84,2.84,0,0,0-.12-2.48A5.55,5.55,0,0,1,28,50.92a2.92,2.92,0,0,0-1.48-2.42l-9.65-5.57a2.85,2.85,0,0,0-2.38-.25,3.92,3.92,0,1,1,2.63-4.56,2.84,2.84,0,0,0,1.41,1.93l9.65,5.57A2.88,2.88,0,0,0,31,45.7a5.58,5.58,0,0,1,2.29-.61A2.86,2.86,0,0,0,35.52,44c.33-.42.66-.84,1-1.25a3,3,0,0,0-.18-4l-1.24-1.24a2.88,2.88,0,0,0-2.24-.87,3.91,3.91,0,1,1,3.73-3.72,2.87,2.87,0,0,0,.87,2.23l1.24,1.24a3,3,0,0,0,4,.18l1.25-1a2.88,2.88,0,0,0,1.14-2.21,5.42,5.42,0,0,1,.6-2.3,2.88,2.88,0,0,0-.08-2.83l-5.57-9.65a2.84,2.84,0,0,0-1.93-1.41,3.91,3.91,0,1,1,4.56-2.63,2.85,2.85,0,0,0,.25,2.38l5.57,9.65A2.92,2.92,0,0,0,50.92,28a5.55,5.55,0,0,1,2.28.62,2.88,2.88,0,0,0,2.48.12c.5-.2,1-.4,1.51-.58A3,3,0,0,0,59,24.6l-.45-1.68a2.83,2.83,0,0,0-1.5-1.86,3.91,3.91,0,1,1,5.09-1.37,2.88,2.88,0,0,0-.37,2.37l.45,1.68a3,3,0,0,0,3.37,2.16c.53-.09,1.06-.18,1.6-.25a2.86,2.86,0,0,0,2.09-1.35A5.78,5.78,0,0,1,71,22.62a2.87,2.87,0,0,0,1.35-2.48V9a2.89,2.89,0,0,0-1-2.19,3.91,3.91,0,1,1,5.27,0,2.87,2.87,0,0,0-1,2.19V20.14A2.87,2.87,0,0,0,77,22.62ZM56.25,43.27a3.59,3.59,0,1,1-1.31,4.89,3.57,3.57,0,0,1,1.31-4.89ZM38.51,74a3.59,3.59,0,1,1,3.59,3.59A3.58,3.58,0,0,1,38.51,74Zm17.74,30.73a3.59,3.59,0,1,1,4.9-1.31,3.59,3.59,0,0,1-4.9,1.31ZM78.19,30.88a5.53,5.53,0,0,1-8.4,0,2.91,2.91,0,0,0-2.7-1,43.94,43.94,0,0,0-9.17,2.45,2.89,2.89,0,0,0-1.84,2.22,5.55,5.55,0,0,1-7.28,4.2,2.9,2.9,0,0,0-2.84.49A45.6,45.6,0,0,0,39.25,46a2.9,2.9,0,0,0-.49,2.84,5.55,5.55,0,0,1-4.2,7.28,2.89,2.89,0,0,0-2.22,1.84,43.94,43.94,0,0,0-2.45,9.17,2.89,2.89,0,0,0,1,2.7,5.53,5.53,0,0,1,0,8.4,2.89,2.89,0,0,0-1,2.7,43.94,43.94,0,0,0,2.45,9.17,2.9,2.9,0,0,0,2.22,1.85,5.53,5.53,0,0,1,4.2,7.27,2.89,2.89,0,0,0,.49,2.84,46.25,46.25,0,0,0,3.18,3.53A44.24,44.24,0,0,0,46,108.73a2.9,2.9,0,0,0,2.84.49,5.56,5.56,0,0,1,7.28,4.21,2.89,2.89,0,0,0,1.84,2.22,44.55,44.55,0,0,0,9.17,2.44,2.87,2.87,0,0,0,2.7-1,5.53,5.53,0,0,1,8.4,0,2.87,2.87,0,0,0,2.7,1,44.55,44.55,0,0,0,9.17-2.44,2.9,2.9,0,0,0,1.85-2.22,5.55,5.55,0,0,1,7.27-4.21,2.89,2.89,0,0,0,2.84-.49,45.6,45.6,0,0,0,6.71-6.71,2.89,2.89,0,0,0,.49-2.84,5.55,5.55,0,0,1,4.21-7.27,2.9,2.9,0,0,0,2.22-1.85,44.55,44.55,0,0,0,2.44-9.17,2.87,2.87,0,0,0-1-2.7,5.53,5.53,0,0,1,0-8.4,2.87,2.87,0,0,0,1-2.7,44.55,44.55,0,0,0-2.44-9.17,2.89,2.89,0,0,0-2.22-1.84,5.56,5.56,0,0,1-4.21-7.28,2.9,2.9,0,0,0-.49-2.84A45.6,45.6,0,0,0,102,39.25a2.89,2.89,0,0,0-2.84-.49,5.53,5.53,0,0,1-7.27-4.2,2.9,2.9,0,0,0-1.85-2.22,43.94,43.94,0,0,0-9.17-2.45,2.91,2.91,0,0,0-2.7,1ZM47.55,58.73a7.17,7.17,0,1,0,9.8-2.63,7.17,7.17,0,0,0-9.8,2.63Zm52.88,30.53a7.17,7.17,0,1,1-2.62-9.8,7.16,7.16,0,0,1,2.62,9.8Zm-52.88,0a7.17,7.17,0,1,0,2.63-9.8,7.17,7.17,0,0,0-2.63,9.8Zm52.88-30.53a7.17,7.17,0,1,1-9.79-2.63,7.16,7.16,0,0,1,9.79,2.63ZM74,104.52a7.17,7.17,0,1,0-7.17-7.17A7.17,7.17,0,0,0,74,104.52Zm0-39.33a8.8,8.8,0,1,1-8.8,8.8,8.8,8.8,0,0,1,8.8-8.8Zm17.74,39.53A3.58,3.58,0,1,1,93,99.82a3.59,3.59,0,0,1-1.31,4.9ZM109.47,74a3.59,3.59,0,1,1-3.58-3.58A3.58,3.58,0,0,1,109.47,74ZM91.73,43.27a3.58,3.58,0,1,1-4.9,1.31,3.57,3.57,0,0,1,4.9-1.31ZM74,43.46a7.17,7.17,0,1,1-7.17,7.17A7.17,7.17,0,0,1,74,43.46Z" class="cls-2"/><g class="cls-3"><rect width="148.54" height="147.98" class="cls-4"/></g><text class="cls-5" transform="translate(154.95 103.67)">Vaccination System</text></g></g></svg>